<?xml version="1.0" encoding="UTF-8" standalone="no"?>
<!DOCTYPE svg PUBLIC "-//W3C//DTD SVG 1.1//EN" "http://www.w3.org/Graphics/SVG/1.1/DTD/svg11.dtd">
<svg xmlns="http://www.w3.org/2000/svg" xmlns:xl="http://www.w3.org/1999/xlink" version="1.1" viewBox="-291 -716 801 801" width="801pt" height="801pt" xmlns:dc="http://purl.org/dc/elements/1.1/">
  <metadata> Produced by OmniGraffle 7.4.2 
    <dc:date>2017-09-12 22:10:18 +0000</dc:date>
  </metadata>
  <defs>
    <linearGradient x1="0" x2="1" id="Gradient" gradientUnits="userSpaceOnUse">
      <stop offset="0" stop-color="#683b1b"/>
      <stop offset=".371" stop-color="#a1612f"/>
      <stop offset="1" stop-color="#efa363"/>
    </linearGradient>
    <linearGradient id="Obj_Gradient" xl:href="#Gradient" gradientTransform="translate(-66.35487 -756.0749) rotate(60.63441) scale(877.4069)"/>
    <linearGradient x1="0" x2="1" id="Gradient_2" gradientUnits="userSpaceOnUse">
      <stop offset="0" stop-color="#683b1b"/>
      <stop offset=".371" stop-color="#a1612f"/>
      <stop offset="1" stop-color="#efa363"/>
    </linearGradient>
    <linearGradient id="Obj_Gradient_2" xl:href="#Gradient_2" gradientTransform="translate(9.125919 -576.00334) rotate(60.63439) scale(723.673)"/>
    <linearGradient x1="0" x2="1" id="Gradient_3" gradientUnits="userSpaceOnUse">
      <stop offset="0" stop-color="#683b1b"/>
      <stop offset=".5161" stop-color="#a1612f"/>
      <stop offset="1" stop-color="#bd753d"/>
    </linearGradient>
    <linearGradient id="Obj_Gradient_3" xl:href="#Gradient_3" gradientTransform="translate(-78.90005 -742.5073) rotate(60.634406) scale(840.8992)"/>
  </defs>
  <g stroke="none" stroke-opacity="1" stroke-dasharray="none" fill="none" fill-opacity="1">
    <title>Canvas 1</title>
    <g>
      <title>Layer 1</title>
      <path d="M 470.149 53.898105 C 456.0302 40.397186 438.15885 24.259635 414.1334 4.9022175 C 415.2404 4.6649007 416.485 4.604566 417.47 4.81976 C 419.86537 5.32255 431.02283 11.806531 433.03355 11.931223 C 435.0443 12.069993 433.03355 8.37348 430.6382 6.3462306 C 428.24285 4.3008807 418.66457 1.1252584 415.4593 -.27652034 C 412.2978 -1.6662322 420.2469 -4.717162 422.2576 -7.007874 C 424.2683 -9.296574 422.64223 -16.301445 420.6784 -15.537205 C 418.6677 -14.776986 412.2978 -6.505084 411.48477 -5.479392 C 410.6717 -4.473812 409.47404 -4.8559324 410.2871 -10.577684 C 411.1001 -16.301445 407.51023 -23.028777 405.4995 -22.02521 C 403.4888 -21.00354 397.93195 -12.488285 395.92122 -12.345494 C 393.9105 -12.224823 394.72354 -32.951842 394.34205 -34.35362 C 393.9105 -35.75741 393.14437 -32.06492 390.75215 -32.70447 C 388.3568 -33.32994 389.12294 -41.724523 385.96456 -41.342404 C 382.7562 -40.96028 377.58396 -27.36484 375.95475 -28.24975 C 374.37556 -29.13466 373.55937 -45.036905 373.55937 -45.036905 C 366.37647 -49.996427 271.79755 -116.0007 271.79755 -116.0007 C 170.03573 -182.7672 -124.4769 -326.21724 -128.06998 -326.97946 C -131.65986 -327.7437 -138.84276 -326.59935 -138.84276 -326.59935 C -138.84276 -326.59935 -129.26448 -322.40206 -128.06998 -320.8756 C -126.87222 -319.35113 -141.23814 -320.8756 -141.23814 -320.8756 C -143.2019 -321.13505 -144.39965 -312.48302 -146.41038 -307.90562 C -148.42105 -303.3262 -141.23814 -303.4489 -141.23814 -303.4489 C -124.8615 -300.1526 -120.45545 -297.60244 -122.85077 -296.4581 C -125.24617 -295.31375 -140.42508 -298.48736 -146.02878 -299.50902 C -151.58254 -300.5327 -146.02878 -286.2776 -140.04044 -278.26714 C -134.05518 -270.2547 -122.08158 -255.75824 -108.10033 -253.84964 C -94.11912 -251.94308 -89.75993 -251.43827 -89.75993 -250.17123 C -89.75993 -248.8901 -96.94287 -248.64678 -103.31275 -249.14958 C -109.6826 -249.65235 -110.49567 -248.64678 -108.10033 -245.59182 C -105.70493 -242.5409 49.11734 -136.60101 63.10167 -127.94699 C 77.08605 -119.31106 77.852185 -120.19598 101.41172 -118.79218 C 124.97434 -117.40248 105.38627 -114.85433 95.42645 -115.11377 C 85.46352 -115.35914 83.83745 -113.32988 87.42735 -112.56564 C 91.02035 -111.8014 101.79319 -111.92407 102.60626 -111.04118 C 103.41932 -110.15425 92.64334 -110.15425 89.82271 -110.0195 C 87.04271 -109.89482 88.24043 -110.15425 100.59553 -103.67028 C 112.9976 -97.18629 231.52375 -24.17715 252.641 -17.307027 C 273.80828 -10.438914 289.75645 -9.173894 304.93536 -9.053224 C 320.11427 -8.914454 312.50292 -6.764524 308.90992 -5.7428546 C 305.31686 -4.717162 283.38344 -4.978613 278.21122 -5.3607336 C 272.9921 -5.7428546 267.00687 -4.339064 278.9805 -3.0720333 C 290.9541 -1.8070133 311.30524 5.5799786 315.3267 5.4412086 C 319.30123 5.320539 332.85404 3.5346285 340.85313 2.649718 C 348.8491 1.7668185 348.03607 4.556298 342.86386 6.8449984 C 337.64476 9.133699 322.5096 8.874259 311.7368 8.751578 C 300.96083 8.630909 319.30123 12.309321 336.06243 13.33099 C 352.82365 14.354671 370.78254 7.868679 380.3608 3.790046 C 389.9391 -.28255387 382.7562 5.700648 382.7562 5.700648 C 378.3501 8.874259 356.03518 15.9998 350.04994 17.4056 C 344.06465 18.791292 350.8192 19.555532 359.19665 19.17341 C 367.57727 18.791292 380.74857 12.06396 383.1408 10.658159 C 385.53617 9.254368 385.96456 13.067528 382.7562 18.66861 C 379.54777 24.271702 388.74456 35.075657 390.32373 35.337106 C 391.95294 35.578447 391.95294 31.381156 390.75526 27.567994 C 389.5576 23.750813 395.9275 13.206299 398.32284 10.658159 C 400.7182 8.108007 403.49504 11.036257 403.49504 11.800498 C 403.49504 12.564739 403.9266 21.462112 403.49504 24.515053 C 403.1104 27.567994 415.8971 37.364356 419.0586 37.867146 C 422.267 38.386026 417.8609 32.666287 414.271 28.849104 C 410.678 25.035944 413.0733 19.17341 413.0733 19.17341 C 416.2817 21.21876 421.88235 25.538734 421.88235 25.538734 C 421.88235 25.538734 422.85175 24.171145 422.7173 21.446022 C 435.53524 31.84372 447.5245 41.855276 458.9947 51.60337 Z" fill="#a7a9ac"/>
      <path d="M -106.36166 -359.5281 L -246.85879 -351.7107 L -243.81925 -348.47675 C -243.06873 -347.6904 -243.79114 -347.05487 -245.97378 -346.57017 C -248.18466 -346.0855 -251.33365 -345.7295 -255.42073 -345.4962 C -259.4172 -345.26694 -262.8351 -345.2589 -265.64635 -345.458 C -268.4451 -345.6571 -270.15873 -346.1619 -270.77792 -346.9664 L -278.07654 -356.3927 C -278.61753 -357.0986 -277.83575 -357.6577 -275.7156 -358.08407 C -273.60793 -358.5044 -270.66846 -358.81813 -266.90032 -359.0273 C -263.21976 -359.2244 -260.0895 -359.2425 -257.48463 -359.07156 C -254.87352 -358.90865 -253.24743 -358.47825 -252.59074 -357.7824 L -249.77323 -354.7878 L -143.99621 -360.6121 L -153.91849 -362.80627 C -155.51951 -363.1502 -156.4702 -363.41966 -156.79223 -363.61476 C -157.34574 -363.96067 -156.61403 -364.3247 -154.57522 -364.71487 C -152.5457 -365.09296 -149.75631 -365.38258 -146.22268 -365.5716 C -143.01431 -365.73854 -140.32813 -365.79284 -138.17044 -365.7104 C -136.00024 -365.6239 -133.69557 -365.32828 -131.2283 -364.81945 Z" fill="#a7a9ac"/>
      <path d="M -69.05859 -339.8569 L -226.80162 -330.4487 L -222.899 -326.31377 C -221.93902 -325.29813 -222.66134 -324.4776 -225.10673 -323.8682 C -227.54273 -323.24877 -231.0826 -322.8043 -235.70127 -322.52275 C -240.22625 -322.2472 -244.10378 -322.2472 -247.33725 -322.5167 C -250.555 -322.7882 -252.56572 -323.44585 -253.35683 -324.47356 L -262.67873 -336.50634 C -263.3605 -337.39727 -262.54113 -338.10722 -260.19578 -338.63415 C -257.87552 -339.15704 -254.59517 -339.5452 -250.37363 -339.7845 C -246.24583 -340.02787 -242.71538 -340.0339 -239.7728 -339.8147 C -236.81147 -339.59748 -234.9164 -339.05046 -234.08773 -338.17158 L -230.49785 -334.3765 L -111.93414 -341.35725 L -123.61382 -344.1548 C -125.50255 -344.58315 -126.62521 -344.9311 -127.00985 -345.17846 C -127.72596 -345.61085 -126.96607 -346.0674 -124.7521 -346.538 C -122.54753 -347.01262 -119.47977 -347.35855 -115.54281 -347.5858 C -111.95919 -347.79294 -108.9446 -347.8372 -106.49611 -347.73463 C -104.04136 -347.624 -101.3552 -347.2399 -98.4626 -346.5963 Z" fill="#a7a9ac"/>
      <path d="M -97.70587 -299.8449 L -135.48114 -297.32893 C -158.10873 -295.81856 -181.03036 -295.44044 -203.8894 -296.1846 C -226.47326 -296.91663 -239.11296 -299.20937 -241.92114 -302.96018 C -243.5003 -305.05983 -241.84293 -306.99256 -237.05223 -308.7684 C -232.32087 -310.51208 -222.76138 -312.46694 -208.47062 -314.6209 C -194.4112 -316.73864 -179.0728 -318.30734 -162.33347 -319.3451 L -128.19501 -321.47894 C -108.25977 -322.7158 -87.89619 -323.08184 -66.82585 -322.56697 C -45.545977 -322.05615 -31.808658 -320.2059 -25.638915 -316.95584 C -22.01465 -315.0412 -21.705017 -313.2171 -24.775836 -311.4694 C -27.896708 -309.69554 -36.133427 -307.64217 -49.611205 -305.28104 C -63.3579 -302.88173 -79.41864 -301.06365 -97.70587 -299.8449 Z M -105.31722 -305.24083 C -87.25513 -306.4274 -72.79546 -308.23345 -61.997606 -310.6267 C -56.181194 -311.96212 -54.608295 -313.384 -57.20379 -314.8924 C -59.680444 -316.3364 -65.57817 -317.25148 -74.8437 -317.65773 C -88.76238 -318.25707 -104.32907 -318.00567 -121.75947 -316.90154 L -156.6641 -314.6993 C -174.21013 -313.58915 -188.77304 -311.87364 -200.43397 -309.53265 C -207.0259 -308.2254 -209.6182 -306.75523 -208.12348 -305.13424 C -206.69437 -303.5736 -201.28454 -302.54185 -191.90013 -302.0652 C -177.59052 -301.34522 -160.94821 -301.5986 -142.18564 -302.83147 Z" fill="#a7a9ac"/>
      <path d="M 43.5011 -280.4734 L -165.4762 -265.43393 L -158.27764 -257.8036 C -156.49207 -255.91713 -157.12066 -254.4128 -160.20393 -253.30664 C -163.30915 -252.18642 -167.99039 -251.392 -174.26022 -250.92543 C -180.40182 -250.47492 -185.78668 -250.51716 -190.35222 -251.0662 C -194.90215 -251.60922 -197.91354 -252.8521 -199.40516 -254.7768 L -216.40718 -276.73262 C -217.63612 -278.32345 -216.77298 -279.56837 -213.81476 -280.46936 C -210.86594 -281.36233 -206.63186 -282.00188 -201.06877 -282.386 C -195.64327 -282.75807 -190.9214 -282.73596 -186.8874 -282.31562 C -182.83783 -281.90332 -180.0766 -280.9239 -178.60997 -279.3552 L -172.2026 -272.55746 L -15.788578 -283.60275 L -33.45354 -288.6186 C -36.264777 -289.3949 -38.009704 -290.00027 -38.70703 -290.43667 C -39.939073 -291.1969 -39.229253 -291.97923 -36.568075 -292.77164 C -33.944476 -293.56 -30.079342 -294.12917 -24.97597 -294.48113 C -20.341625 -294.7989 -16.3452 -294.84513 -12.989834 -294.62995 C -9.625072 -294.4188 -5.781885 -293.737 -1.4227145 -292.59466 Z" fill="#a7a9ac"/>
      <path d="M 36.918558 -204.3349 L -16.45776 -199.7394 C -48.60744 -196.97604 -82.00474 -196.55169 -115.92747 -198.49245 C -149.29038 -200.38295 -168.72214 -205.30626 -174.47284 -212.9728 C -177.66248 -217.2204 -176.1396 -221.0456 -170.10744 -224.4867 C -164.18788 -227.8534 -151.57002 -231.5318 -132.49482 -235.50988 C -113.8573 -239.3874 -93.2248 -242.1789 -70.37197 -243.94268 L -23.953415 -247.52255 C 3.0521543 -249.60612 31.28355 -250.02845 61.31926 -248.78555 C 91.78964 -247.52255 113.007 -243.81397 125.04001 -237.46272 C 132.17292 -233.70184 134.537 -230.10992 131.92899 -226.71104 C 129.23973 -223.23578 119.42689 -219.2436 102.17785 -214.6984 C 84.44726 -210.02848 62.64511 -206.55923 36.918558 -204.3349 Z M 21.204934 -215.47872 C 46.378003 -217.59044 65.70028 -220.99534 79.05614 -225.59889 C 86.17963 -228.143 87.08337 -230.9164 81.93304 -233.91502 C 77.05165 -236.75077 67.839255 -238.60707 54.311444 -239.51812 C 34.079175 -240.86158 12.242643 -240.59812 -11.551362 -238.7197 L -59.38962 -234.94676 C -83.52764 -233.03415 -103.1533 -229.9108 -118.41348 -225.4762 C -127.0943 -222.9723 -130.01814 -220.09635 -127.01924 -216.8262 C -124.11729 -213.66465 -115.7617 -211.50467 -101.92435 -210.3945 C -80.74453 -208.69105 -56.76598 -208.9505 -30.392095 -211.16076 Z" fill="#a7a9ac"/>
      <path d="M 161.8834 -115.68294 L 94.67595 -108.61773 C 54.00499 -104.34603 10.710402 -103.982 -33.99451 -107.48746 C -77.73314 -110.92453 -104.14143 -119.13811 -113.47578 -131.59323 C -118.58545 -138.4171 -117.60977 -144.48276 -110.83027 -149.85456 C -104.2196 -155.07956 -89.2971 -160.72286 -66.44751 -166.74027 C -44.260764 -172.57664 -19.365967 -176.70154 8.56209 -179.22554 L 65.11867 -184.33188 C 97.92812 -187.2903 132.9453 -187.71868 171.0364 -185.615 C 209.80921 -183.47514 238.42838 -177.6488 257.17528 -167.76997 C 268.38903 -161.85314 273.4862 -156.2038 272.14157 -150.87824 C 270.7437 -145.3938 260.45873 -139.1029 240.8425 -131.95121 C 220.53514 -124.54612 194.14564 -119.07174 161.8834 -115.68294 Z M 136.19749 -133.91008 C 167.49654 -137.07767 190.5401 -142.34489 205.20927 -149.5549 C 212.9488 -153.50885 212.62047 -157.85496 204.50567 -162.57918 C 196.85056 -167.03992 184.2734 -169.97421 166.77419 -171.47855 C 140.65982 -173.71095 113.32903 -173.4676 84.24711 -170.76257 L 25.557828 -165.29222 C -4.1495375 -162.52287 -27.843537 -157.80468 -45.72738 -150.98283 C -55.96857 -147.10732 -58.80485 -142.57014 -54.01415 -137.35319 C -49.332854 -132.26293 -37.984678 -128.71123 -19.872596 -126.79258 C 7.930428 -123.8583 38.719775 -124.06545 71.76684 -127.39995 Z" fill="#a7a9ac"/>
      <path d="M 504.22805 -37.448798 L 98.72863 14.618133 L 132.33551 50.255895 C 141.0257 59.46902 143.36478 66.77959 139.04001 72.03475 C 134.65583 77.41259 125.74048 81.04274 112.28772 82.94932 C 99.05701 84.82372 86.43294 84.18618 74.58125 81.06888 C 62.85466 77.99382 53.25763 71.57218 45.87455 62.01113 L -29.960545 -35.932383 C -34.92635 -42.34195 -35.0233 -47.1627 -30.404568 -50.53743 C -25.83281 -53.86791 -18.299636 -56.114374 -7.717551 -57.30498 C 2.59248 -58.44732 12.120708 -58.14967 20.948511 -56.36376 C 29.854432 -54.55372 37.184356 -50.603795 43.028893 -44.41747 L 69.355925 -16.496528 L 368.29962 -52.91261 L 316.76514 -72.94377 C 308.82546 -75.96252 303.57197 -78.2834 300.96083 -79.91847 C 296.33898 -82.78437 295.601 -85.59397 298.6812 -88.35127 C 301.72384 -91.07035 307.8279 -92.93872 316.959 -93.97246 C 325.24895 -94.90765 333.0229 -94.92173 340.3278 -94.00867 C 347.66395 -93.07749 357.3423 -90.47706 369.5755 -86.11888 Z" fill="#a7a9ac"/>
      <path d="M -127.37575 -374.37446 L -261.24342 -364.9964 L -258.29767 -362.1044 C -257.57538 -361.4025 -258.24452 -360.8132 -260.30532 -360.33858 C -262.391 -359.86194 -265.36492 -359.48987 -269.22995 -359.21636 C -273.00753 -358.94684 -276.24094 -358.88853 -278.90208 -359.0253 C -281.55077 -359.16406 -283.1831 -359.59446 -283.78038 -360.31647 L -290.83507 -368.74725 C -291.36043 -369.37674 -290.6318 -369.8976 -288.6336 -370.31594 C -286.65416 -370.73024 -283.88672 -371.0621 -280.3343 -371.31146 C -276.86327 -371.5508 -273.90185 -371.61516 -271.43777 -371.50455 C -268.9673 -371.39996 -267.4194 -371.0339 -266.78774 -370.4125 L -264.06403 -367.74167 L -163.51864 -374.74653 L -173.07193 -376.5827 C -174.61357 -376.8703 -175.52982 -377.0996 -175.8394 -377.27254 C -176.38037 -377.57825 -175.68933 -377.92015 -173.75357 -378.3123 C -171.82108 -378.6904 -169.16302 -379.00014 -165.78893 -379.23142 C -162.72436 -379.43856 -160.1539 -379.5311 -158.08694 -379.49086 C -156.00425 -379.44662 -153.78714 -379.21534 -151.4105 -378.793 Z" fill="black"/>
      <path d="M -90.75752 -356.9417 L -241.77412 -345.95073 L -237.97785 -342.23615 C -237.03975 -341.32105 -237.712 -340.56082 -240.02296 -339.97156 C -242.32763 -339.37022 -245.68613 -338.9117 -250.0734 -338.5899 C -254.3669 -338.27415 -258.05064 -338.2158 -261.12148 -338.41693 C -264.18285 -338.62006 -266.09982 -339.18923 -266.869 -340.11434 L -275.93137 -350.9364 C -276.59122 -351.73684 -275.82817 -352.39247 -273.6173 -352.90533 C -271.43457 -353.41617 -268.33563 -353.8204 -264.34236 -354.10198 C -260.43345 -354.38554 -257.09064 -354.44387 -254.29193 -354.289 C -251.48064 -354.1362 -249.6669 -353.66555 -248.86637 -352.8772 L -245.37342 -349.4743 L -132.17898 -357.6537 L -143.49588 -360.0349 C -145.3221 -360.3969 -146.41346 -360.69857 -146.79184 -360.9178 C -147.4923 -361.30193 -146.77618 -361.7323 -144.66231 -362.1969 C -142.56084 -362.6675 -139.61829 -363.03152 -135.84389 -363.30304 C -132.40406 -363.5504 -129.50527 -363.63687 -127.14427 -363.5806 C -124.77714 -363.51824 -122.17853 -363.2085 -119.37349 -362.6655 Z" fill="black"/>
      <path d="M -117.14702 -319.66487 L -153.54011 -316.84323 C -175.27336 -315.15787 -197.26 -314.50824 -219.1621 -314.89843 C -240.73906 -315.27653 -252.8284 -317.21326 -255.5771 -320.61213 C -257.1219 -322.51267 -255.58024 -324.3026 -251.06472 -325.992 C -246.60236 -327.6512 -237.54008 -329.57185 -223.96534 -331.7419 C -210.59388 -333.87774 -195.96536 -335.5289 -179.95466 -336.7195 L -147.22962 -339.1651 C -128.06059 -340.589 -108.41308 -341.2225 -88.00251 -341.0556 C -67.33869 -340.89067 -53.914086 -339.3823 -47.78498 -336.47014 C -44.17941 -334.7526 -43.80421 -333.06725 -46.73424 -331.40602 C -49.708133 -329.7207 -57.65409 -327.7055 -70.684644 -325.33433 C -83.95915 -322.93703 -99.47894 -321.03647 -117.14702 -319.66487 Z M -124.67392 -324.54394 C -107.24663 -325.8854 -93.29668 -327.75176 -82.90851 -330.11285 C -77.307845 -331.42614 -75.83189 -332.76155 -78.4086 -334.11707 C -80.86021 -335.4163 -86.61407 -336.17448 -95.60759 -336.41783 C -109.09472 -336.7718 -124.1298 -336.3193 -140.9004 -335.05428 L -174.39782 -332.54033 C -191.19345 -331.2773 -205.08395 -329.50145 -216.17262 -327.19466 C -222.43616 -325.9055 -224.87845 -324.52384 -223.4181 -323.0577 C -222.02028 -321.64385 -216.82615 -320.773 -207.83896 -320.45928 C -194.11729 -319.98665 -178.1597 -320.43916 -160.1539 -321.82686 Z" fill="black"/>
      <path d="M 21.43945 -303.49716 L -181.54009 -287.01972 L -174.39782 -280.03296 C -172.62477 -278.30336 -173.19075 -276.9016 -176.1365 -275.8437 C -179.09472 -274.77174 -183.59145 -273.9854 -189.61735 -273.4866 C -195.51814 -273.00193 -200.69665 -272.98383 -205.10272 -273.4444 C -209.49007 -273.8989 -212.41071 -275.0171 -213.88984 -276.7829 L -230.68235 -296.8543 C -231.8957 -298.30433 -231.09513 -299.46075 -228.29323 -300.32354 C -225.49132 -301.1823 -221.45428 -301.82387 -216.14132 -302.2442 C -210.9535 -302.65246 -206.4317 -302.6927 -202.55098 -302.3528 C -198.65778 -302.02095 -195.981 -301.15415 -194.53007 -299.72624 L -188.2008 -293.52783 L -36.8933 -305.67123 L -54.33624 -310.10784 C -57.10996 -310.79164 -58.83298 -311.33464 -59.530345 -311.73084 C -60.75929 -312.41866 -60.0963 -313.15474 -57.53213 -313.921 C -55.002304 -314.68724 -51.25293 -315.26647 -46.29022 -315.65863 C -41.77469 -316.0146 -37.875216 -316.11116 -34.588652 -315.95427 C -31.289575 -315.80143 -27.50266 -315.2182 -23.190423 -314.21262 Z" fill="black"/>
      <path d="M 18.27482 -231.8697 L -34.266564 -227.09317 C -65.77201 -224.2333 -98.47827 -223.56962 -131.64107 -225.12626 C -164.12218 -226.63463 -183.07549 -231.0813 -188.8356 -238.18874 C -192.0252 -242.12057 -190.65874 -245.69842 -184.9236 -248.96052 C -179.30108 -252.15022 -167.20237 -255.6959 -148.85567 -259.5875 C -130.89687 -263.38456 -110.93973 -266.2022 -88.74359 -268.08263 L -43.494573 -271.9179 C -17.067555 -274.15633 10.71354 -274.8562 40.445913 -274.01555 C 70.722395 -273.15477 92.01482 -269.88864 104.33863 -264.01607 C 111.65292 -260.53073 114.20464 -257.154 111.77176 -253.912 C 109.267 -250.59158 99.66053 -246.71808 82.66481 -242.2533 C 65.23125 -237.66585 43.70435 -234.19458 18.27482 -231.8697 Z M 2.2453854 -242.25934 C 27.065123 -244.47966 46.071567 -247.8725 59.120914 -252.34933 C 66.081814 -254.81902 66.847965 -257.4476 61.58508 -260.22705 C 56.6036 -262.85362 47.37867 -264.5068 33.93845 -265.22477 C 13.871893 -266.2766 -7.645629 -265.80398 -30.973724 -263.80087 L -77.70189 -259.78258 C -101.19254 -257.75533 -120.19593 -254.64808 -134.887 -250.3623 C -143.23947 -247.94488 -145.9913 -245.2278 -142.97991 -242.201 C -140.06547 -239.27075 -131.87875 -237.31992 -118.3697 -236.4008 C -97.65271 -234.98296 -74.19957 -235.42944 -48.413545 -237.73623 Z" fill="black"/>
      <path d="M 147.90843 -147.83737 L 80.42267 -140.7963 C 39.79862 -136.5628 -3.4303018 -136.09018 -47.99449 -139.32413 C -91.34221 -142.47763 -117.59418 -150.21456 -127.14747 -162.01404 C -132.36656 -168.4618 -131.5973 -174.20972 -125.13355 -179.33013 C -118.83252 -184.30975 -104.40411 -189.72983 -82.19549 -195.55617 C -60.59354 -201.2216 -36.21786 -205.2922 -8.724473 -207.87252 L 47.197305 -213.12164 C 79.79099 -216.17861 114.84256 -216.85033 153.26829 -215.12676 C 192.58208 -213.367 221.98924 -207.9791 241.70557 -198.59906 C 253.5385 -192.95976 259.1172 -187.53164 258.0884 -182.37302 C 257.0158 -177.05752 246.8934 -170.9114 227.28967 -163.89045 C 207.01986 -156.63619 180.46771 -151.23422 147.90843 -147.83737 Z M 120.94666 -165.3224 C 152.40207 -168.51812 175.455 -173.70692 189.9209 -180.73593 C 197.55102 -184.59132 196.95688 -188.77654 188.43555 -193.26947 C 180.41458 -197.509 167.51843 -200.24418 149.75342 -201.57154 C 123.32325 -203.53444 95.89238 -203.11611 66.91989 -200.34272 L 8.709072 -194.75773 C -20.619936 -191.94212 -43.85418 -187.32247 -61.23769 -180.74397 C -71.188175 -177.01126 -73.81489 -172.68726 -68.905395 -167.74786 C -64.09902 -162.92307 -52.753926 -159.58454 -34.754384 -157.8268 C -7.035855 -155.13184 23.62842 -155.45161 56.51293 -158.78411 Z" fill="black"/>
      <path d="M 509 -71.29864 L 90.72956 -20.679742 L 126.9319 14.74886 C 136.35382 23.963995 139.16196 31.264507 135.00604 36.46939 C 130.80009 41.80299 121.84412 45.354696 108.1412 47.14463 C 94.67595 48.906406 81.73291 48.160265 69.468465 44.96453 C 57.360335 41.813044 47.28172 35.367274 39.32957 25.834374 L -41.205596 -70.40568 C -46.40282 -76.62017 -46.690466 -81.28203 -42.218755 -84.54213 C -37.79702 -87.762 -30.37958 -89.93204 -19.8632 -91.08645 C -9.612558 -92.19258 -.071776425 -91.90498 8.84354 -90.17539 C 17.849547 -88.42166 25.38582 -84.5904 31.53993 -78.57703 L 59.39611 -51.311725 L 364.42204 -86.77451 L 309.33517 -106.51003 C 300.9014 -109.47046 295.3039 -111.74106 292.48953 -113.33993 C 287.5206 -116.1455 286.56056 -118.89677 289.5532 -121.60379 C 292.51142 -124.2746 298.69058 -126.11683 308.05617 -127.14856 C 316.57126 -128.08374 324.6204 -128.11593 332.26304 -127.23705 C 339.94627 -126.34007 350.19376 -123.80601 363.2525 -119.54436 Z" fill="black"/>
      <path d="M 471.42174 53.20627 L 460.26426 48.58663 C 448.7722 28.905417 436.7986 8.7013 423.965 -12.273092 C 423.965 -12.826161 423.965 -13.411409 423.91806 -14.028834 C 423.53345 -20.71192 413.1421 -38.66756 412.76063 -41.748657 C 412.51983 -43.53457 413.81446 -45.014783 415.3936 -45.69053 C 439.4316 -6.605642 457.29353 25.94901 471.42174 53.20627 Z" fill="#f4dcc9"/>
      <path d="M 431.91093 -42.762283 C 434.30627 -38.66555 436.317 -31.21219 434.30627 -31.48973 C 432.29557 -31.7371 421.1381 -44.825733 418.74275 -45.84137 C 417.73897 -46.271757 416.49123 -46.179243 415.3905 -45.68852 C 334.93667 -176.52256 185.28658 -380.4723 -125.22116 -703.3681 C -125.46197 -703.64566 -125.7465 -703.89105 -125.9873 -704.1686 L -127.13808 -703.7985 C -129.1488 -707.24766 -137.5763 -714.701 -137.5763 -714.701 C -137.5763 -714.701 -130.39334 -717.0098 -126.80034 -715.4713 C -123.2073 -713.93275 171.30535 -424.4222 273.06717 -289.67647 C 273.06717 -289.67647 367.64605 -156.47127 374.829 -146.46174 C 374.829 -146.46174 375.64516 -114.36764 377.22435 -112.58173 C 378.85354 -110.79581 384.02264 -138.2381 387.23417 -139.00838 C 390.39566 -139.77865 389.62953 -122.83865 392.02175 -121.57563 C 394.4171 -120.28246 395.1832 -127.73582 395.61165 -124.9021 C 395.9963 -122.06837 395.1801 -80.48964 397.19083 -80.48964 C 399.20155 -80.76718 404.75526 -97.95254 406.7691 -100.016 C 408.77983 -102.04928 412.37285 -88.4659 411.55667 -76.91782 C 410.7405 -65.36973 411.9413 -64.59745 412.75437 -66.63073 C 413.5674 -68.694185 419.9373 -85.38883 421.948 -86.92736 C 423.91183 -88.46791 425.5379 -74.32945 423.5272 -69.70982 C 421.51647 -65.090184 413.5643 -58.93 416.72577 -56.128455 C 419.94043 -53.29473 429.5187 -46.889187 431.91093 -42.762283 Z" fill="url(#Obj_Gradient)"/>
      <path d="M 400.73695 -47.999345 L 401.5969 -48.246716 C 409.40524 -35.988695 416.82585 -24.008212 423.96186 -12.273092 C 424.1526 -6.760501 423.1488 -4.01929 423.1488 -4.01929 C 423.1488 -4.01929 417.54507 -12.735659 414.33666 -16.862559 C 414.33666 -16.862559 411.9413 -5.0349257 415.53434 2.663796 C 419.12425 10.362518 423.53345 21.912612 420.32193 20.864797 C 417.16043 19.849162 404.3769 .07543262 404.7584 -6.0847514 C 405.18993 -12.244936 404.7584 -30.200575 404.7584 -31.739113 C 404.7584 -33.27765 401.98153 -39.192473 399.5862 -34.047925 C 397.19083 -28.90539 390.82407 -7.623289 392.02175 .07744393 C 393.21943 7.778177 393.21943 16.247173 391.5902 15.754439 C 390.011 15.231538 380.81426 -6.575475 384.02264 -17.878196 C 387.23105 -29.180916 386.7995 -36.88165 384.40728 -34.047925 C 382.0119 -31.2142 368.84373 -17.632833 360.46313 -16.862559 C 352.08253 -16.092284 345.33114 -17.632833 351.31638 -20.43438 C 357.30478 -23.268106 379.6197 -37.651926 384.02264 -44.05747 C 384.02264 -44.05747 391.20556 -56.130466 381.6273 -47.90884 C 372.049 -39.68722 354.0901 -26.594565 337.3289 -28.660026 C 320.5677 -30.723476 302.2273 -38.14667 313.00325 -37.899296 C 323.7761 -37.651926 338.9112 -37.129024 344.13034 -41.748657 C 349.30253 -46.368293 350.1156 -52.005576 342.11647 -50.217657 C 334.1205 -48.431743 320.5677 -44.827744 316.59315 -44.58037 C 312.5686 -44.30283 292.21748 -59.20955 280.24384 -61.76574 C 268.27333 -64.32192 274.2586 -67.15565 279.4777 -66.38537 C 284.64992 -65.6151 306.5802 -65.090184 310.17324 -67.15565 C 313.76626 -69.2191 321.3776 -73.56119 306.1987 -73.83873 C 291.0198 -74.086105 275.07164 -76.64229 253.90435 -90.5012 C 232.7871 -104.3601 114.26093 -251.70174 101.85888 -264.79238 C 89.50376 -277.881 88.30606 -277.3581 91.08291 -277.60548 C 93.9098 -277.883 104.68265 -277.883 103.8696 -279.66893 C 103.05656 -281.45482 92.2806 -281.20947 88.69069 -282.748 C 85.10079 -284.28654 86.72688 -288.3853 96.6898 -287.89255 C 106.6496 -287.36966 126.23769 -292.5122 102.67506 -295.31375 C 79.11241 -298.14746 78.3494 -296.36155 64.36505 -313.79228 C 57.80442 -321.95558 20.307454 -373.2965 -17.905647 -426.17793 C -24.22547 -440.43706 -58.32325 -533.5136 -49.370434 -541.45764 C -39.79215 -549.92665 11.686061 -489.0991 60.77201 -430.5824 C 109.85798 -372.06566 237.9593 -236.54966 273.87396 -196.51148 C 309.2226 -157.0887 397.9601 -51.293625 400.73695 -47.999345 Z" fill="url(#Obj_Gradient_2)"/>
      <path d="M 423.91495 -14.026823 C 423.96186 -13.411409 423.96186 -12.826161 423.96186 -12.27108 C 416.82585 -24.00419 409.40524 -35.986684 401.5969 -48.244705 C 307.5934 -197.06454 166.46773 -388.5431 -125.22116 -703.3681 C 185.28658 -380.4723 334.9398 -176.52256 415.3905 -45.68852 C 413.8113 -45.01076 412.5167 -43.53256 412.7575 -41.746646 C 413.139 -38.66555 423.53345 -20.709909 423.91495 -14.026823 Z" fill="#f4dcc9"/>
      <path d="M 401.60003 -48.244705 L 400.74007 -47.997333 C 397.9632 -51.293625 309.22575 -157.0867 273.88334 -196.50946 C 237.9687 -236.54765 109.86424 -372.06364 60.78141 -430.58034 C 11.698534 -489.0971 -39.782757 -549.92665 -49.36104 -541.45564 C -58.31705 -533.50954 -24.219213 -440.43504 -17.896252 -426.17593 C -61.28467 -486.08035 -105.53302 -547.9557 -106.82447 -551.21985 C -109.21985 -557.38 -108.40369 -559.4113 -102.03377 -558.3956 C -95.6639 -557.38 -88.48407 -557.87274 -88.48407 -560.4591 C -88.48407 -563.0153 -92.8432 -564.0329 -106.82447 -567.88225 C -120.80566 -571.73166 -132.77934 -600.99 -138.76459 -617.1597 C -144.74987 -633.32946 -150.30356 -662.0951 -144.74987 -660.0316 C -139.14606 -657.96816 -123.96717 -651.56266 -121.57185 -653.8715 C -119.17653 -656.1803 -123.5857 -661.3248 -139.96223 -667.9777 C -139.96223 -667.9777 -147.14519 -667.7304 -145.13446 -676.9716 C -143.12374 -686.2129 -141.92608 -703.6738 -139.96223 -703.1509 C -139.96223 -703.1509 -125.5964 -700.0698 -126.79406 -703.1509 C -126.89101 -703.33595 -126.98484 -703.5511 -127.12868 -703.7965 L -125.9779 -704.16655 C -125.73713 -703.88905 -125.45258 -703.6436 -125.21177 -703.3661 C 166.46773 -388.5431 307.5934 -197.06454 401.60003 -48.244705 Z" fill="url(#Obj_Gradient_3)"/>
    </g>
  </g>
</svg>
