<?xml version="1.0" encoding="UTF-8" standalone="no"?>
<!DOCTYPE svg PUBLIC "-//W3C//DTD SVG 1.1//EN" "http://www.w3.org/Graphics/SVG/1.1/DTD/svg11.dtd">
<svg xmlns="http://www.w3.org/2000/svg" xmlns:xl="http://www.w3.org/1999/xlink" version="1.1" viewBox="-736 -402 1316 398" width="1316pt" height="398pt" xmlns:dc="http://purl.org/dc/elements/1.1/">
  <metadata> Produced by OmniGraffle 7.4.2 
    <dc:date>2017-09-12 22:15:33 +0000</dc:date>
  </metadata>
  <defs>
    <linearGradient x1="0" x2="1" id="Gradient" gradientUnits="userSpaceOnUse">
      <stop offset="0" stop-color="#683b1b"/>
      <stop offset=".371" stop-color="#a1612f"/>
      <stop offset="1" stop-color="#efa363"/>
    </linearGradient>
    <linearGradient id="Obj_Gradient" xl:href="#Gradient" gradientTransform="translate(-690.116 -400.2114) rotate(60.63441) scale(386.4362)"/>
    <linearGradient x1="0" x2="1" id="Gradient_2" gradientUnits="userSpaceOnUse">
      <stop offset="0" stop-color="#683b1b"/>
      <stop offset=".371" stop-color="#a1612f"/>
      <stop offset="1" stop-color="#efa363"/>
    </linearGradient>
    <linearGradient id="Obj_Gradient_2" xl:href="#Gradient_2" gradientTransform="translate(-661.3777 -314.38578) rotate(60.63439) scale(318.51095)"/>
    <linearGradient x1="0" x2="1" id="Gradient_3" gradientUnits="userSpaceOnUse">
      <stop offset="0" stop-color="#683b1b"/>
      <stop offset=".5161" stop-color="#a1612f"/>
      <stop offset="1" stop-color="#bd753d"/>
    </linearGradient>
    <linearGradient id="Obj_Gradient_3" xl:href="#Gradient_3" gradientTransform="translate(-693.0529 -394.37777) rotate(60.634406) scale(370.37772)"/>
  </defs>
  <g stroke="none" stroke-opacity="1" stroke-dasharray="none" fill="none" fill-opacity="1">
    <title>Canvas 1</title>
    <g>
      <title>Layer 1</title>
      <path d="M -492.59526 -19.18711 C -497.11026 -25.90011 -502.82526 -33.92411 -510.50826 -43.54911 C -510.15426 -43.66711 -509.75626 -43.69711 -509.44126 -43.59011 C -508.67526 -43.34011 -505.10726 -40.11611 -504.46426 -40.05411 C -503.82126 -39.98511 -504.46426 -41.82311 -505.23026 -42.83111 C -505.99626 -43.84811 -509.05926 -45.42711 -510.08426 -46.12411 C -511.09526 -46.81511 -508.55326 -48.33211 -507.91026 -49.47111 C -507.26726 -50.60911 -507.78726 -54.09211 -508.41526 -53.71211 C -509.05826 -53.33411 -511.09526 -49.22111 -511.35526 -48.71111 C -511.61526 -48.21111 -511.99826 -48.40111 -511.73826 -51.24611 C -511.47826 -54.09211 -512.62626 -57.43711 -513.26926 -56.93811 C -513.91226 -56.43011 -515.68926 -52.19611 -516.33226 -52.12511 C -516.97526 -52.06511 -516.71526 -62.37111 -516.83726 -63.06811 C -516.97526 -63.76611 -517.22026 -61.93011 -517.98526 -62.24811 C -518.75126 -62.55911 -518.50626 -66.73311 -519.51626 -66.54311 C -520.54226 -66.35311 -522.19626 -59.59311 -522.71726 -60.03311 C -523.22226 -60.47311 -523.48326 -68.38011 -523.48326 -68.38011 C -525.78026 -70.84611 -556.02526 -103.66511 -556.02526 -103.66511 C -588.56726 -136.86311 -682.74826 -208.1901 -683.89726 -208.5691 C -685.04526 -208.9491 -687.34226 -208.3801 -687.34226 -208.3801 C -687.34226 -208.3801 -684.27926 -206.2931 -683.89726 -205.5341 C -683.51426 -204.7761 -688.10826 -205.5341 -688.10826 -205.5341 C -688.73626 -205.6631 -689.11926 -201.3611 -689.76226 -199.0851 C -690.40526 -196.8081 -688.10826 -196.8691 -688.10826 -196.8691 C -682.87126 -195.2301 -681.46226 -193.9621 -682.22826 -193.3931 C -682.99426 -192.8241 -687.84826 -194.4021 -689.64026 -194.9101 C -691.41626 -195.4191 -689.64026 -188.3311 -687.72526 -184.3481 C -685.81126 -180.3641 -681.98226 -173.1561 -677.51126 -172.2071 C -673.04026 -171.2591 -671.64626 -171.0081 -671.64626 -170.3781 C -671.64626 -169.7411 -673.94326 -169.6201 -675.98026 -169.8701 C -678.01726 -170.1201 -678.27726 -169.6201 -677.51126 -168.1011 C -676.74526 -166.5841 -627.23526 -113.90811 -622.76326 -109.60511 C -618.29126 -105.31111 -618.04626 -105.75111 -610.51226 -105.05311 C -602.97726 -104.36211 -609.24126 -103.09511 -612.42626 -103.22411 C -615.61226 -103.34611 -616.13226 -102.33711 -614.98426 -101.95711 C -613.83526 -101.57711 -610.39026 -101.63811 -610.13026 -101.19911 C -609.87026 -100.75811 -613.31626 -100.75811 -614.21826 -100.69111 C -615.10726 -100.62911 -614.72426 -100.75811 -610.77326 -97.53411 C -606.80726 -94.31011 -568.90426 -58.00811 -562.15126 -54.59211 C -555.38226 -51.17711 -550.28226 -50.54811 -545.42826 -50.48811 C -540.57426 -50.41911 -543.00826 -49.35011 -544.15726 -48.84211 C -545.30626 -48.33211 -552.32026 -48.46211 -553.97426 -48.65211 C -555.64326 -48.84211 -557.55726 -48.14411 -553.72826 -47.51411 C -549.89926 -46.88511 -543.39126 -43.21211 -542.10526 -43.28111 C -540.83426 -43.34111 -536.50026 -44.22911 -533.94226 -44.66911 C -531.38526 -45.10811 -531.64526 -43.72111 -533.29926 -42.58311 C -534.96826 -41.44511 -539.80826 -41.57411 -543.25326 -41.63511 C -546.69926 -41.69511 -540.83426 -39.86611 -535.47426 -39.35811 C -530.11426 -38.84911 -524.37126 -42.07411 -521.30826 -44.10211 C -518.24526 -46.12711 -520.54226 -43.15211 -520.54226 -43.15211 C -521.95126 -41.57411 -529.08726 -38.03111 -531.00126 -37.33211 C -532.91526 -36.64311 -530.75526 -36.26311 -528.07626 -36.45311 C -525.39626 -36.64311 -521.18426 -39.98811 -520.41926 -40.68711 C -519.65326 -41.38511 -519.51626 -39.48911 -520.54226 -36.70411 C -521.56826 -33.91811 -518.62726 -28.54611 -518.12226 -28.41611 C -517.60126 -28.29611 -517.60126 -30.38311 -517.98426 -32.27911 C -518.36726 -34.17711 -516.33026 -39.42011 -515.56426 -40.68711 C -514.79826 -41.95511 -513.91026 -40.49911 -513.91026 -40.11911 C -513.91026 -39.73911 -513.77226 -35.31511 -513.91026 -33.79711 C -514.03326 -32.27911 -509.94426 -27.40811 -508.93326 -27.15811 C -507.90726 -26.90011 -509.31626 -29.74411 -510.46426 -31.64211 C -511.61326 -33.53811 -510.84726 -36.45311 -510.84726 -36.45311 C -509.82126 -35.43611 -508.03026 -33.28811 -508.03026 -33.28811 C -508.03026 -33.28811 -507.72026 -33.96811 -507.76326 -35.32311 C -503.66426 -30.15311 -499.83026 -25.17511 -496.16226 -20.32811 Z" fill="#a7a9ac"/>
      <path d="M -676.95526 -224.7531 L -721.8843 -220.8661 L -720.9123 -219.2581 C -720.6723 -218.8671 -720.9033 -218.5511 -721.6013 -218.3101 C -722.3083 -218.0691 -723.3153 -217.8921 -724.6223 -217.7761 C -725.9003 -217.6621 -726.9933 -217.6581 -727.8923 -217.7571 C -728.7873 -217.8561 -729.3353 -218.1071 -729.5333 -218.5071 L -731.8673 -223.1941 C -732.0403 -223.5451 -731.7903 -223.8231 -731.1123 -224.0351 C -730.4383 -224.2441 -729.4983 -224.4001 -728.2933 -224.5041 C -727.1163 -224.6021 -726.1153 -224.6111 -725.2823 -224.5261 C -724.4473 -224.4451 -723.9273 -224.2311 -723.7173 -223.8851 L -722.8163 -222.3961 L -688.99026 -225.2921 L -692.16326 -226.3831 C -692.67526 -226.5541 -692.97926 -226.6881 -693.08226 -226.7851 C -693.25926 -226.9571 -693.02526 -227.1381 -692.37326 -227.3321 C -691.72426 -227.5201 -690.83226 -227.6641 -689.70226 -227.7581 C -688.67626 -227.8411 -687.81726 -227.8681 -687.12726 -227.8271 C -686.43326 -227.7841 -685.69626 -227.6371 -684.90726 -227.3841 Z" fill="#a7a9ac"/>
      <path d="M -665.02626 -214.9721 L -715.4703 -210.2941 L -714.2223 -208.2381 C -713.9153 -207.7331 -714.1463 -207.3251 -714.9283 -207.0221 C -715.7073 -206.7141 -716.8393 -206.4931 -718.3163 -206.3531 C -719.7633 -206.2161 -721.0033 -206.2161 -722.0373 -206.3501 C -723.0663 -206.4851 -723.7093 -206.8121 -723.9623 -207.3231 L -726.9433 -213.3061 C -727.1613 -213.7491 -726.8993 -214.1021 -726.1493 -214.3641 C -725.4073 -214.6241 -724.3583 -214.8171 -723.0083 -214.9361 C -721.6883 -215.0571 -720.5593 -215.0601 -719.6183 -214.9511 C -718.6713 -214.8431 -718.0653 -214.5711 -717.8003 -214.1341 L -716.6523 -212.2471 L -678.73726 -215.7181 L -682.47226 -217.1091 C -683.07626 -217.3221 -683.43526 -217.4951 -683.55826 -217.6181 C -683.78726 -217.8331 -683.54426 -218.0601 -682.83626 -218.2941 C -682.13126 -218.5301 -681.15026 -218.7021 -679.89126 -218.8151 C -678.74526 -218.9181 -677.78126 -218.9401 -676.99826 -218.8891 C -676.21326 -218.8341 -675.35426 -218.6431 -674.42926 -218.3231 Z" fill="#a7a9ac"/>
      <path d="M -674.18726 -195.0771 L -686.26726 -193.8261 C -693.50326 -193.0751 -700.83326 -192.8871 -708.1433 -193.2571 C -715.3653 -193.6211 -719.4073 -194.7611 -720.3053 -196.6261 C -720.8103 -197.6701 -720.2803 -198.6311 -718.7483 -199.5141 C -717.2353 -200.3811 -714.1783 -201.3531 -709.6083 -202.4241 C -705.11226 -203.4771 -700.20726 -204.2571 -694.85426 -204.7731 L -683.93726 -205.8341 C -677.56226 -206.4491 -671.05026 -206.6311 -664.31226 -206.3751 C -657.50726 -206.1211 -653.11426 -205.2011 -651.14126 -203.5851 C -649.98226 -202.6331 -649.88326 -201.7261 -650.86526 -200.8571 C -651.86326 -199.9751 -654.49726 -198.9541 -658.80726 -197.7801 C -663.20326 -196.5871 -668.33926 -195.6831 -674.18726 -195.0771 Z M -676.62126 -197.7601 C -670.84526 -198.3501 -666.22126 -199.2481 -662.76826 -200.4381 C -660.90826 -201.1021 -660.40526 -201.8091 -661.23526 -202.5591 C -662.02726 -203.2771 -663.91326 -203.7321 -666.87626 -203.9341 C -671.32726 -204.2321 -676.30526 -204.1071 -681.87926 -203.5581 L -693.04126 -202.4631 C -698.65226 -201.9111 -703.30926 -201.0581 -707.03826 -199.8941 C -709.1463 -199.2441 -709.9753 -198.5131 -709.4973 -197.7071 C -709.0403 -196.9311 -707.31026 -196.4181 -704.30926 -196.1811 C -699.73326 -195.8231 -694.41126 -195.9491 -688.41126 -196.5621 Z" fill="#a7a9ac"/>
      <path d="M -629.03126 -185.4451 L -695.85926 -177.9671 L -693.55726 -174.1731 C -692.98626 -173.2351 -693.18726 -172.4871 -694.17326 -171.9371 C -695.16626 -171.3801 -696.66326 -170.9851 -698.66826 -170.7531 C -700.63226 -170.5291 -702.35426 -170.5501 -703.81426 -170.8231 C -705.26926 -171.0931 -706.23226 -171.7111 -706.70926 -172.6681 L -712.1463 -183.5851 C -712.5393 -184.3761 -712.2633 -184.9951 -711.3173 -185.4431 C -710.3743 -185.8871 -709.0203 -186.2051 -707.24126 -186.3961 C -705.50626 -186.5811 -703.99626 -186.5701 -702.70626 -186.3611 C -701.41126 -186.1561 -700.52826 -185.6691 -700.05926 -184.8891 L -698.01026 -181.5091 L -647.99126 -187.0011 L -653.64026 -189.4951 C -654.53926 -189.8811 -655.09726 -190.1821 -655.32026 -190.3991 C -655.71426 -190.7771 -655.48726 -191.1661 -654.63626 -191.5601 C -653.79726 -191.9521 -652.56126 -192.2351 -650.92926 -192.4101 C -649.44726 -192.5681 -648.16926 -192.5911 -647.09626 -192.4841 C -646.02026 -192.3791 -644.79126 -192.0401 -643.39726 -191.4721 Z" fill="#a7a9ac"/>
      <path d="M -631.13626 -147.58711 L -648.20526 -145.30211 C -658.48626 -143.92811 -669.16626 -143.71711 -680.01426 -144.68211 C -690.68326 -145.62211 -696.89726 -148.07011 -698.73626 -151.88211 C -699.75626 -153.99411 -699.26926 -155.89611 -697.34026 -157.6071 C -695.44726 -159.2811 -691.41226 -161.1101 -685.31226 -163.0881 C -679.35226 -165.0161 -672.75426 -166.4041 -665.44626 -167.2811 L -650.60226 -169.0611 C -641.96626 -170.0971 -632.93826 -170.3071 -623.33326 -169.6891 C -613.58926 -169.0611 -606.80426 -167.2171 -602.95626 -164.0591 C -600.67526 -162.1891 -599.91926 -160.4031 -600.75326 -158.7131 C -601.61326 -156.9851 -604.75126 -155.00011 -610.26726 -152.74011 C -615.93726 -150.41811 -622.90926 -148.69311 -631.13626 -147.58711 Z M -636.16126 -153.12811 C -628.11126 -154.17811 -621.93226 -155.87111 -617.66126 -158.1601 C -615.38326 -159.4251 -615.09426 -160.8041 -616.74126 -162.2951 C -618.30226 -163.7051 -621.24826 -164.6281 -625.57426 -165.0811 C -632.04426 -165.7491 -639.02726 -165.6181 -646.63626 -164.6841 L -661.93426 -162.8081 C -669.65326 -161.8571 -675.92926 -160.3041 -680.80926 -158.0991 C -683.58526 -156.85411 -684.52026 -155.42411 -683.56126 -153.79811 C -682.63326 -152.22611 -679.96126 -151.15211 -675.53626 -150.60011 C -668.76326 -149.75311 -661.09526 -149.88211 -652.66126 -150.98111 Z" fill="#a7a9ac"/>
      <path d="M -591.17426 -103.50711 L -612.66626 -99.99411 C -625.67226 -97.87011 -639.51726 -97.68911 -653.81326 -99.43211 C -667.80026 -101.14111 -676.24526 -105.22511 -679.23026 -111.41811 C -680.86426 -114.81111 -680.55226 -117.82711 -678.38426 -120.49811 C -676.27026 -123.09611 -671.49826 -125.90211 -664.19126 -128.89411 C -657.09626 -131.79611 -649.13526 -133.84711 -640.20426 -135.10211 L -622.11826 -137.64111 C -611.62626 -139.11211 -600.42826 -139.32511 -588.24726 -138.27911 C -575.84826 -137.21511 -566.69626 -134.31811 -560.70126 -129.40611 C -557.11526 -126.46411 -555.48526 -123.65511 -555.91526 -121.00711 C -556.36226 -118.28011 -559.65126 -115.15211 -565.92426 -111.59611 C -572.41826 -107.91411 -580.85726 -105.19211 -591.17426 -103.50711 Z M -599.38826 -112.57011 C -589.37926 -114.14511 -582.01026 -116.76411 -577.31926 -120.34911 C -574.84426 -122.31511 -574.94926 -124.47611 -577.54426 -126.82511 C -579.99226 -129.04311 -584.01426 -130.50211 -589.61026 -131.25011 C -597.96126 -132.36011 -606.70126 -132.23911 -616.00126 -130.89411 L -634.76926 -128.17411 C -644.26926 -126.79711 -651.84626 -124.45111 -657.56526 -121.05911 C -660.84026 -119.13211 -661.74726 -116.87611 -660.21526 -114.28211 C -658.71826 -111.75111 -655.08926 -109.98511 -649.29726 -109.03111 C -640.40626 -107.57211 -630.56026 -107.67511 -619.99226 -109.33311 Z" fill="#a7a9ac"/>
      <path d="M -481.69726 -64.60711 L -611.37026 -38.71811 L -600.62326 -20.99811 C -597.84426 -16.41711 -597.09626 -12.78211 -598.47926 -10.169109 C -599.88126 -7.495109 -602.73226 -5.6901094 -607.03426 -4.7421094 C -611.26526 -3.8101094 -615.30226 -4.1271094 -619.09226 -5.6771094 C -622.84226 -7.206109 -625.91126 -10.399109 -628.27226 -15.15311 L -652.52326 -63.85311 C -654.11126 -67.04011 -654.14226 -69.43711 -652.66526 -71.11511 C -651.20326 -72.77111 -648.79426 -73.88811 -645.41026 -74.48011 C -642.11326 -75.04811 -639.06626 -74.90011 -636.24326 -74.01211 C -633.39526 -73.11211 -631.05126 -71.14811 -629.18226 -68.07211 L -620.76326 -54.18911 L -525.16526 -72.29611 L -541.64526 -82.25611 C -544.18426 -83.75711 -545.86426 -84.91111 -546.69926 -85.72411 C -548.17726 -87.14911 -548.41326 -88.54611 -547.42826 -89.91711 C -546.45526 -91.26911 -544.50326 -92.19811 -541.58326 -92.71211 C -538.93226 -93.17711 -536.44626 -93.18411 -534.11026 -92.73011 C -531.76426 -92.26711 -528.66926 -90.97411 -524.75726 -88.80711 Z" fill="#a7a9ac"/>
      <path d="M -683.67526 -232.1351 L -726.4843 -227.4721 L -725.5423 -226.0341 C -725.3113 -225.6851 -725.5253 -225.3921 -726.1843 -225.1561 C -726.8513 -224.9191 -727.8023 -224.7341 -729.0383 -224.5981 C -730.2463 -224.4641 -731.2803 -224.4351 -732.1313 -224.5031 C -732.9783 -224.5721 -733.5003 -224.7861 -733.6913 -225.1451 L -735.9473 -229.3371 C -736.1153 -229.6501 -735.8823 -229.9091 -735.2433 -230.1171 C -734.6103 -230.3231 -733.7253 -230.4881 -732.5893 -230.6121 C -731.4793 -230.7311 -730.5323 -230.7631 -729.7443 -230.7081 C -728.9543 -230.6561 -728.4593 -230.4741 -728.2573 -230.1651 L -727.3863 -228.8371 L -695.23326 -232.3201 L -698.28826 -233.2331 C -698.78126 -233.3761 -699.07426 -233.4901 -699.17326 -233.5761 C -699.34626 -233.7281 -699.12526 -233.8981 -698.50626 -234.0931 C -697.88826 -234.2811 -697.03826 -234.4351 -695.95926 -234.5501 C -694.97926 -234.6531 -694.15726 -234.6991 -693.49626 -234.6791 C -692.83026 -234.6571 -692.12126 -234.5421 -691.36126 -234.3321 Z" fill="black"/>
      <path d="M -671.96526 -223.4671 L -720.2583 -218.0021 L -719.0443 -216.1551 C -718.7443 -215.7001 -718.9593 -215.3221 -719.6983 -215.0291 C -720.4353 -214.7301 -721.5093 -214.5021 -722.9123 -214.3421 C -724.2853 -214.1851 -725.4633 -214.1561 -726.4453 -214.2561 C -727.4243 -214.3571 -728.0373 -214.6401 -728.2833 -215.1001 L -731.1813 -220.4811 C -731.3923 -220.8791 -731.1483 -221.2051 -730.4413 -221.4601 C -729.7433 -221.7141 -728.7523 -221.9151 -727.4753 -222.0551 C -726.2253 -222.1961 -725.1563 -222.2251 -724.2613 -222.1481 C -723.3623 -222.0721 -722.7823 -221.8381 -722.5263 -221.4461 L -721.4093 -219.7541 L -685.21126 -223.8211 L -688.83026 -225.0051 C -689.41426 -225.1851 -689.76326 -225.3351 -689.88426 -225.4441 C -690.10826 -225.6351 -689.87926 -225.8491 -689.20326 -226.0801 C -688.53126 -226.3141 -687.59026 -226.4951 -686.38326 -226.6301 C -685.28326 -226.7531 -684.35626 -226.7961 -683.60126 -226.7681 C -682.84426 -226.7371 -682.01326 -226.5831 -681.11626 -226.3131 Z" fill="black"/>
      <path d="M -680.40426 -204.9321 L -692.04226 -203.5291 C -698.99226 -202.6911 -706.02326 -202.3681 -713.0273 -202.5621 C -719.9273 -202.7501 -723.7933 -203.7131 -724.6723 -205.4031 C -725.1663 -206.3481 -724.6733 -207.2381 -723.2293 -208.0781 C -721.8023 -208.9031 -718.9043 -209.8581 -714.5633 -210.9371 C -710.2873 -211.9991 -705.60926 -212.8201 -700.48926 -213.4121 L -690.02426 -214.6281 C -683.89426 -215.3361 -677.61126 -215.6511 -671.08426 -215.5681 C -664.47626 -215.4861 -660.18326 -214.7361 -658.22326 -213.2881 C -657.07026 -212.4341 -656.95026 -211.5961 -657.88726 -210.7701 C -658.83826 -209.9321 -661.37926 -208.9301 -665.54626 -207.7511 C -669.79126 -206.5591 -674.75426 -205.6141 -680.40426 -204.9321 Z M -682.81126 -207.3581 C -677.23826 -208.0251 -672.77726 -208.9531 -669.45526 -210.1271 C -667.66426 -210.7801 -667.19226 -211.4441 -668.01626 -212.1181 C -668.80026 -212.7641 -670.64026 -213.1411 -673.51626 -213.2621 C -677.82926 -213.4381 -682.63726 -213.2131 -688.00026 -212.5841 L -698.71226 -211.3341 C -704.08326 -210.7061 -708.5253 -209.8231 -712.0713 -208.6761 C -714.0743 -208.0351 -714.8553 -207.3481 -714.3883 -206.6191 C -713.9413 -205.9161 -712.2803 -205.4831 -709.4063 -205.3271 C -705.01826 -205.0921 -699.91526 -205.3171 -694.15726 -206.0071 Z" fill="black"/>
      <path d="M -636.08626 -196.8931 L -700.99626 -188.7001 L -698.71226 -185.2261 C -698.14526 -184.3661 -698.32626 -183.6691 -699.26826 -183.1431 C -700.21426 -182.6101 -701.65226 -182.2191 -703.57926 -181.9711 C -705.46626 -181.7301 -707.12226 -181.7211 -708.5313 -181.9501 C -709.9343 -182.1761 -710.8683 -182.7321 -711.3413 -183.6101 L -716.7113 -193.5901 C -717.0993 -194.3111 -716.8433 -194.8861 -715.9473 -195.3151 C -715.0513 -195.7421 -713.7603 -196.0611 -712.0613 -196.2701 C -710.4023 -196.4731 -708.9563 -196.4931 -707.7153 -196.3241 C -706.47026 -196.1591 -705.61426 -195.7281 -705.15026 -195.0181 L -703.12626 -191.9361 L -654.74026 -197.9741 L -660.31826 -200.1801 C -661.20526 -200.5201 -661.75626 -200.7901 -661.97926 -200.9871 C -662.37226 -201.3291 -662.16026 -201.6951 -661.34026 -202.0761 C -660.53126 -202.4571 -659.33226 -202.7451 -657.74526 -202.9401 C -656.30126 -203.1171 -655.05426 -203.1651 -654.00326 -203.0871 C -652.94826 -203.0111 -651.73726 -202.7211 -650.35826 -202.2211 Z" fill="black"/>
      <path d="M -637.09826 -161.2781 L -653.90026 -158.9031 C -663.97526 -157.4811 -674.43426 -157.1511 -685.03926 -157.9251 C -695.42626 -158.6751 -701.48726 -160.8861 -703.32926 -164.4201 C -704.34926 -166.3751 -703.91226 -168.1541 -702.07826 -169.7761 C -700.28026 -171.3621 -696.41126 -173.1251 -690.54426 -175.0601 C -684.80126 -176.9481 -678.41926 -178.3491 -671.32126 -179.2841 L -656.85126 -181.1911 C -648.40026 -182.3041 -639.51626 -182.6521 -630.00826 -182.2341 C -620.32626 -181.8061 -613.51726 -180.1821 -609.57626 -177.2621 C -607.23726 -175.5291 -606.42126 -173.8501 -607.19926 -172.2381 C -608.00026 -170.5871 -611.07226 -168.6611 -616.50726 -166.4411 C -622.08226 -164.1601 -628.96626 -162.4341 -637.09826 -161.2781 Z M -642.22426 -166.4441 C -634.28726 -167.5481 -628.20926 -169.2351 -624.03626 -171.4611 C -621.81026 -172.6891 -621.56526 -173.9961 -623.24826 -175.3781 C -624.84126 -176.6841 -627.79126 -177.5061 -632.08926 -177.8631 C -638.50626 -178.3861 -645.38726 -178.1511 -652.84726 -177.1551 L -667.79026 -175.1571 C -675.30226 -174.1491 -681.37926 -172.6041 -686.07726 -170.4731 C -688.74826 -169.2711 -689.62826 -167.9201 -688.66526 -166.4151 C -687.73326 -164.9581 -685.11526 -163.9881 -680.79526 -163.5311 C -674.17026 -162.8261 -666.67026 -163.0481 -658.42426 -164.1951 Z" fill="black"/>
      <path d="M -595.64326 -119.49511 L -617.22426 -115.99411 C -630.21526 -113.88911 -644.03926 -113.65411 -658.29026 -115.26211 C -672.15226 -116.83011 -680.54726 -120.67711 -683.60226 -126.54411 C -685.27126 -129.75011 -685.02526 -132.60811 -682.95826 -135.15411 C -680.94326 -137.63011 -676.32926 -140.32511 -669.22726 -143.22211 C -662.31926 -146.03911 -654.52426 -148.06311 -645.73226 -149.34611 L -627.84926 -151.95611 C -617.42626 -153.47611 -606.21726 -153.81011 -593.92926 -152.95311 C -581.35726 -152.07811 -571.95326 -149.39911 -565.64826 -144.73511 C -561.86426 -141.93111 -560.08026 -139.23211 -560.40926 -136.66711 C -560.75226 -134.02411 -563.98926 -130.96811 -570.25826 -127.47711 C -576.74026 -123.87011 -585.23126 -121.18411 -595.64326 -119.49511 Z M -604.26526 -128.18911 C -594.20626 -129.77811 -586.83426 -132.35811 -582.20826 -135.85311 C -579.76826 -137.77011 -579.95826 -139.85111 -582.68326 -142.08511 C -585.24826 -144.19311 -589.37226 -145.55311 -595.05326 -146.21311 C -603.50526 -147.18911 -612.27726 -146.98111 -621.54226 -145.60211 L -640.15726 -142.82511 C -649.53626 -141.42511 -656.96626 -139.12811 -662.52526 -135.85711 C -665.70726 -134.00111 -666.54726 -131.85111 -664.97726 -129.39511 C -663.44026 -126.99611 -659.81226 -125.33611 -654.05626 -124.46211 C -645.19226 -123.12211 -635.38626 -123.28111 -624.87026 -124.93811 Z" fill="black"/>
      <path d="M -480.17126 -81.43811 L -613.92826 -56.26911 L -602.35126 -38.65311 C -599.33826 -34.07111 -598.44026 -30.44111 -599.76926 -27.85311 C -601.11426 -25.20111 -603.97826 -23.43511 -608.36026 -22.54511 C -612.66626 -21.66911 -616.80526 -22.04011 -620.72726 -23.62911 C -624.59926 -25.19611 -627.82226 -28.40111 -630.36526 -33.14111 L -656.11926 -80.99411 C -657.78126 -84.08411 -657.87326 -86.40211 -656.44326 -88.02311 C -655.02926 -89.62411 -652.65726 -90.70311 -649.29426 -91.27711 C -646.01626 -91.82711 -642.96526 -91.68411 -640.11426 -90.82411 C -637.23426 -89.95211 -634.82426 -88.04711 -632.85626 -85.05711 L -623.94826 -71.50011 L -526.40526 -89.13311 L -544.02126 -98.94611 C -546.71826 -100.41811 -548.50826 -101.54711 -549.40826 -102.34211 C -550.99726 -103.73711 -551.30426 -105.10511 -550.34726 -106.45111 C -549.40126 -107.77911 -547.42526 -108.69511 -544.43026 -109.20811 C -541.70726 -109.67311 -539.13326 -109.68911 -536.68926 -109.25211 C -534.23226 -108.80611 -530.95526 -107.54611 -526.77926 -105.42711 Z" fill="black"/>
      <path d="M -440.31226 -282.9231 L -403.52626 -282.9231 C -386.24626 -282.9231 -373.74826 -280.3401 -366.02826 -275.1741 C -358.31026 -270.0081 -354.44926 -261.8421 -354.44926 -250.6801 C -354.44926 -242.9601 -356.60226 -236.5921 -360.90726 -231.5741 C -365.21326 -226.5561 -371.49226 -223.3051 -379.74526 -221.8211 L -379.74526 -220.9301 C -359.97126 -217.5461 -350.08426 -207.1541 -350.08426 -189.7561 C -350.08426 -178.1171 -354.01826 -169.0321 -361.88626 -162.5011 C -369.75526 -155.96811 -380.75526 -152.70311 -394.88626 -152.70311 L -440.31226 -152.70311 Z M -425.17026 -227.1651 L -400.23026 -227.1651 C -389.54226 -227.1651 -381.85326 -228.8421 -377.16126 -232.1981 C -372.47126 -235.5521 -370.12426 -241.2081 -370.12426 -249.1661 C -370.12426 -256.4691 -372.73826 -261.7391 -377.96226 -264.9761 C -383.18826 -268.2111 -391.50126 -269.8301 -402.90226 -269.8301 L -425.17026 -269.8301 Z M -425.17026 -214.3391 L -425.17026 -165.6181 L -398.00326 -165.6181 C -387.49326 -165.6181 -379.58126 -167.6511 -374.26626 -171.7191 C -368.95326 -175.7861 -366.29426 -182.1551 -366.29426 -190.8251 C -366.29426 -198.8991 -369.01126 -204.8381 -374.44426 -208.6381 C -379.87726 -212.4371 -388.14726 -214.3381 -399.25026 -214.3381 L -425.17026 -214.3381 Z" fill="black"/>
      <path d="M -440.31226 -282.9231 L -403.52626 -282.9231 C -386.24626 -282.9231 -373.74826 -280.3401 -366.02826 -275.1741 C -358.31026 -270.0081 -354.44926 -261.8421 -354.44926 -250.6801 C -354.44926 -242.9601 -356.60226 -236.5921 -360.90726 -231.5741 C -365.21326 -226.5561 -371.49226 -223.3051 -379.74526 -221.8211 L -379.74526 -220.9301 C -359.97126 -217.5461 -350.08426 -207.1541 -350.08426 -189.7561 C -350.08426 -178.1171 -354.01826 -169.0321 -361.88626 -162.5011 C -369.75526 -155.96811 -380.75526 -152.70311 -394.88626 -152.70311 L -440.31226 -152.70311 Z M -425.17026 -227.1651 L -400.23026 -227.1651 C -389.54226 -227.1651 -381.85326 -228.8421 -377.16126 -232.1981 C -372.47126 -235.5521 -370.12426 -241.2081 -370.12426 -249.1661 C -370.12426 -256.4691 -372.73826 -261.7391 -377.96226 -264.9761 C -383.18826 -268.2111 -391.50126 -269.8301 -402.90226 -269.8301 L -425.17026 -269.8301 Z M -425.17026 -214.3391 L -425.17026 -165.6181 L -398.00326 -165.6181 C -387.49326 -165.6181 -379.58126 -167.6511 -374.26626 -171.7191 C -368.95326 -175.7861 -366.29426 -182.1551 -366.29426 -190.8251 C -366.29426 -198.8991 -369.01126 -204.8381 -374.44426 -208.6381 C -379.87726 -212.4371 -388.14726 -214.3381 -399.25026 -214.3381 L -425.17026 -214.3381 Z" stroke="#231f20" stroke-linecap="butt" stroke-linejoin="round" stroke-width="1.5314"/>
      <path d="M -240.08426 -201.6031 C -240.08426 -185.6881 -244.09226 -173.2631 -252.10826 -164.3271 C -260.12526 -155.38911 -271.19926 -150.92211 -285.33126 -150.92211 C -294.06026 -150.92211 -301.80926 -152.97011 -308.57826 -157.0681 C -315.34826 -161.1651 -320.57426 -167.0441 -324.25426 -174.7041 C -327.93726 -182.3641 -329.77726 -191.3291 -329.77726 -201.6031 C -329.77726 -217.5161 -325.79926 -229.9121 -317.84126 -238.7901 C -309.88526 -247.6661 -298.84026 -252.1061 -284.70726 -252.1061 C -271.05026 -252.1061 -260.19926 -247.5641 -252.15226 -238.4781 C -244.10726 -229.3921 -240.08426 -217.1011 -240.08426 -201.6031 Z M -314.45726 -201.6031 C -314.45726 -189.1331 -311.96226 -179.6321 -306.97526 -173.1011 C -301.98726 -166.5681 -294.65426 -163.3031 -284.97526 -163.3031 C -275.29726 -163.3031 -267.94926 -166.5541 -262.93126 -173.0561 C -257.91326 -179.5591 -255.40526 -189.0741 -255.40526 -201.6031 C -255.40526 -214.0131 -257.91426 -223.4391 -262.93126 -229.8821 C -267.94926 -236.3241 -275.35626 -239.5461 -285.15326 -239.5461 C -294.83326 -239.5461 -302.13726 -236.3691 -307.06526 -230.0161 C -311.99326 -223.6611 -314.45726 -214.1901 -314.45726 -201.6031 Z" fill="black"/>
      <path d="M -240.08426 -201.6031 C -240.08426 -185.6881 -244.09226 -173.2631 -252.10826 -164.3271 C -260.12526 -155.38911 -271.19926 -150.92211 -285.33126 -150.92211 C -294.06026 -150.92211 -301.80926 -152.97011 -308.57826 -157.0681 C -315.34826 -161.1651 -320.57426 -167.0441 -324.25426 -174.7041 C -327.93726 -182.3641 -329.77726 -191.3291 -329.77726 -201.6031 C -329.77726 -217.5161 -325.79926 -229.9121 -317.84126 -238.7901 C -309.88526 -247.6661 -298.84026 -252.1061 -284.70726 -252.1061 C -271.05026 -252.1061 -260.19926 -247.5641 -252.15226 -238.4781 C -244.10726 -229.3921 -240.08426 -217.1011 -240.08426 -201.6031 Z M -314.45726 -201.6031 C -314.45726 -189.1331 -311.96226 -179.6321 -306.97526 -173.1011 C -301.98726 -166.5681 -294.65426 -163.3031 -284.97526 -163.3031 C -275.29726 -163.3031 -267.94926 -166.5541 -262.93126 -173.0561 C -257.91326 -179.5591 -255.40526 -189.0741 -255.40526 -201.6031 C -255.40526 -214.0131 -257.91426 -223.4391 -262.93126 -229.8821 C -267.94926 -236.3241 -275.35626 -239.5461 -285.15326 -239.5461 C -294.83326 -239.5461 -302.13726 -236.3691 -307.06526 -230.0161 C -311.99326 -223.6611 -314.45726 -214.1901 -314.45726 -201.6031 Z" stroke="#231f20" stroke-linecap="butt" stroke-linejoin="round" stroke-width="1.5314"/>
      <path d="M -129.90426 -201.6031 C -129.90426 -185.6881 -133.91226 -173.2631 -141.92826 -164.3271 C -149.94526 -155.38911 -161.02026 -150.92211 -175.15226 -150.92211 C -183.88126 -150.92211 -191.63026 -152.97011 -198.39926 -157.0681 C -205.16826 -161.1651 -210.39526 -167.0441 -214.07526 -174.7041 C -217.75826 -182.3641 -219.59826 -191.3291 -219.59826 -201.6031 C -219.59826 -217.5161 -215.62026 -229.9121 -207.66226 -238.7901 C -199.70626 -247.6661 -188.66126 -252.1061 -174.52826 -252.1061 C -160.87126 -252.1061 -150.02026 -247.5641 -141.97326 -238.4781 C -133.92726 -229.3921 -129.90426 -217.1011 -129.90426 -201.6031 Z M -204.27826 -201.6031 C -204.27826 -189.1331 -201.78326 -179.6321 -196.79626 -173.1011 C -191.80826 -166.5681 -184.47526 -163.3031 -174.79626 -163.3031 C -165.11826 -163.3031 -157.77026 -166.5541 -152.75226 -173.0561 C -147.73526 -179.5591 -145.22626 -189.0741 -145.22626 -201.6031 C -145.22626 -214.0131 -147.73526 -223.4391 -152.75226 -229.8821 C -157.77026 -236.3241 -165.17826 -239.5461 -174.97526 -239.5461 C -184.65526 -239.5461 -191.95926 -236.3691 -196.88726 -230.0161 C -201.81426 -223.6611 -204.27826 -214.1901 -204.27826 -201.6031 Z" fill="black"/>
      <path d="M -129.90426 -201.6031 C -129.90426 -185.6881 -133.91226 -173.2631 -141.92826 -164.3271 C -149.94526 -155.38911 -161.02026 -150.92211 -175.15226 -150.92211 C -183.88126 -150.92211 -191.63026 -152.97011 -198.39926 -157.0681 C -205.16826 -161.1651 -210.39526 -167.0441 -214.07526 -174.7041 C -217.75826 -182.3641 -219.59826 -191.3291 -219.59826 -201.6031 C -219.59826 -217.5161 -215.62026 -229.9121 -207.66226 -238.7901 C -199.70626 -247.6661 -188.66126 -252.1061 -174.52826 -252.1061 C -160.87126 -252.1061 -150.02026 -247.5641 -141.97326 -238.4781 C -133.92726 -229.3921 -129.90426 -217.1011 -129.90426 -201.6031 Z M -204.27826 -201.6031 C -204.27826 -189.1331 -201.78326 -179.6321 -196.79626 -173.1011 C -191.80826 -166.5681 -184.47526 -163.3031 -174.79626 -163.3031 C -165.11826 -163.3031 -157.77026 -166.5541 -152.75226 -173.0561 C -147.73526 -179.5591 -145.22626 -189.0741 -145.22626 -201.6031 C -145.22626 -214.0131 -147.73526 -223.4391 -152.75226 -229.8821 C -157.77026 -236.3241 -165.17826 -239.5461 -174.97526 -239.5461 C -184.65526 -239.5461 -191.95926 -236.3691 -196.88726 -230.0161 C -201.81426 -223.6611 -204.27826 -214.1901 -204.27826 -201.6031 Z" stroke="#231f20" stroke-linecap="butt" stroke-linejoin="round" stroke-width="1.5314"/>
      <path d="M -89.37726 -202.6711 C -86.82626 -206.2931 -82.93626 -211.0441 -77.70926 -216.9221 L -46.17926 -250.3231 L -28.632258 -250.3231 L -68.17826 -208.7281 L -25.870258 -152.70311 L -43.77326 -152.70311 L -78.24326 -198.8411 L -89.37726 -189.2221 L -89.37726 -152.70311 L -103.98526 -152.70311 L -103.98526 -291.2951 L -89.37726 -291.2951 L -89.37726 -217.8131 C -89.37726 -214.5471 -89.61526 -209.4991 -90.09026 -202.6711 Z" fill="black"/>
      <path d="M -89.37726 -202.6711 C -86.82626 -206.2931 -82.93626 -211.0441 -77.70926 -216.9221 L -46.17926 -250.3231 L -28.632258 -250.3231 L -68.17826 -208.7281 L -25.870258 -152.70311 L -43.77326 -152.70311 L -78.24326 -198.8411 L -89.37726 -189.2221 L -89.37726 -152.70311 L -103.98526 -152.70311 L -103.98526 -291.2951 L -89.37726 -291.2951 L -89.37726 -217.8131 C -89.37726 -214.5471 -89.61526 -209.4991 -90.09026 -202.6711 Z" stroke="#231f20" stroke-linecap="butt" stroke-linejoin="round" stroke-width="1.5314"/>
      <path d="M 88.04974 -152.70311 L 70.23574 -152.70311 L 22.760742 -215.8531 L 9.133742 -203.7401 L 9.133742 -152.70311 L -6.008258 -152.70311 L -6.008258 -282.9231 L 9.133742 -282.9231 L 9.133742 -218.3481 L 68.18674 -282.9231 L 86.08974 -282.9231 L 33.716742 -226.3641 Z" fill="black"/>
      <path d="M 88.04974 -152.70311 L 70.23574 -152.70311 L 22.760742 -215.8531 L 9.133742 -203.7401 L 9.133742 -152.70311 L -6.008258 -152.70311 L -6.008258 -282.9231 L 9.133742 -282.9231 L 9.133742 -218.3481 L 68.18674 -282.9231 L 86.08974 -282.9231 L 33.716742 -226.3641 Z" stroke="#231f20" stroke-linecap="butt" stroke-linejoin="round" stroke-width="1.5314"/>
      <path d="M 144.96474 -150.92211 C 130.53474 -150.92211 119.14774 -155.31511 110.80574 -164.1041 C 102.46174 -172.8911 98.29074 -185.0931 98.29074 -200.7121 C 98.29074 -216.4461 102.16574 -228.9471 109.91574 -238.2111 C 117.66474 -247.4741 128.06974 -252.1061 141.13474 -252.1061 C 153.36674 -252.1061 163.04574 -248.0831 170.17174 -240.0371 C 177.29674 -231.9901 180.85974 -221.3771 180.85974 -208.1951 L 180.85974 -198.8421 L 113.61074 -198.8421 C 113.90674 -187.3821 116.80174 -178.6821 122.29574 -172.7451 C 127.78774 -166.8071 135.52274 -163.8381 145.49874 -163.8381 C 156.00874 -163.8381 166.39974 -166.0341 176.67274 -170.4291 L 176.67274 -157.2471 C 171.44674 -154.99011 166.50374 -153.37211 161.84274 -152.39311 C 157.17974 -151.41211 151.55574 -150.92211 144.96474 -150.92211 Z M 140.95674 -239.7251 C 133.11774 -239.7251 126.86774 -237.1701 122.20774 -232.0651 C 117.54474 -226.9571 114.79874 -219.8921 113.96674 -210.8661 L 165.00474 -210.8661 C 165.00474 -220.1871 162.92574 -227.3281 158.76974 -232.2871 C 154.61174 -237.2441 148.67474 -239.7251 140.95674 -239.7251 Z" fill="black"/>
      <path d="M 144.96474 -150.92211 C 130.53474 -150.92211 119.14774 -155.31511 110.80574 -164.1041 C 102.46174 -172.8911 98.29074 -185.0931 98.29074 -200.7121 C 98.29074 -216.4461 102.16574 -228.9471 109.91574 -238.2111 C 117.66474 -247.4741 128.06974 -252.1061 141.13474 -252.1061 C 153.36674 -252.1061 163.04574 -248.0831 170.17174 -240.0371 C 177.29674 -231.9901 180.85974 -221.3771 180.85974 -208.1951 L 180.85974 -198.8421 L 113.61074 -198.8421 C 113.90674 -187.3821 116.80174 -178.6821 122.29574 -172.7451 C 127.78774 -166.8071 135.52274 -163.8381 145.49874 -163.8381 C 156.00874 -163.8381 166.39974 -166.0341 176.67274 -170.4291 L 176.67274 -157.2471 C 171.44674 -154.99011 166.50374 -153.37211 161.84274 -152.39311 C 157.17974 -151.41211 151.55574 -150.92211 144.96474 -150.92211 Z M 140.95674 -239.7251 C 133.11774 -239.7251 126.86774 -237.1701 122.20774 -232.0651 C 117.54474 -226.9571 114.79874 -219.8921 113.96674 -210.8661 L 165.00474 -210.8661 C 165.00474 -220.1871 162.92574 -227.3281 158.76974 -232.2871 C 154.61174 -237.2441 148.67474 -239.7251 140.95674 -239.7251 Z" stroke="#231f20" stroke-linecap="butt" stroke-linejoin="round" stroke-width="1.5314"/>
      <path d="M 247.30774 -150.92211 C 232.87674 -150.92211 221.49074 -155.31511 213.14874 -164.1041 C 204.80474 -172.8911 200.63374 -185.0931 200.63374 -200.7121 C 200.63374 -216.4461 204.50874 -228.9471 212.25874 -238.2111 C 220.00674 -247.4741 230.41174 -252.1061 243.47774 -252.1061 C 255.70874 -252.1061 265.38774 -248.0831 272.51374 -240.0371 C 279.63874 -231.9901 283.20174 -221.3771 283.20174 -208.1951 L 283.20174 -198.8421 L 215.95374 -198.8421 C 216.24974 -187.3821 219.14474 -178.6821 224.63774 -172.7451 C 230.12974 -166.8071 237.86474 -163.8381 247.84074 -163.8381 C 258.35174 -163.8381 268.74174 -166.0341 279.01474 -170.4291 L 279.01474 -157.2471 C 273.78974 -154.99011 268.84574 -153.37211 264.18574 -152.39311 C 259.52274 -151.41211 253.89774 -150.92211 247.30774 -150.92211 Z M 243.29874 -239.7251 C 235.45974 -239.7251 229.20974 -237.1701 224.54974 -232.0651 C 219.88674 -226.9571 217.14174 -219.8921 216.30974 -210.8661 L 267.34674 -210.8661 C 267.34674 -220.1871 265.26874 -227.3281 261.11274 -232.2871 C 256.95474 -237.2441 251.01774 -239.7251 243.29874 -239.7251 Z" fill="black"/>
      <path d="M 247.30774 -150.92211 C 232.87674 -150.92211 221.49074 -155.31511 213.14874 -164.1041 C 204.80474 -172.8911 200.63374 -185.0931 200.63374 -200.7121 C 200.63374 -216.4461 204.50874 -228.9471 212.25874 -238.2111 C 220.00674 -247.4741 230.41174 -252.1061 243.47774 -252.1061 C 255.70874 -252.1061 265.38774 -248.0831 272.51374 -240.0371 C 279.63874 -231.9901 283.20174 -221.3771 283.20174 -208.1951 L 283.20174 -198.8421 L 215.95374 -198.8421 C 216.24974 -187.3821 219.14474 -178.6821 224.63774 -172.7451 C 230.12974 -166.8071 237.86474 -163.8381 247.84074 -163.8381 C 258.35174 -163.8381 268.74174 -166.0341 279.01474 -170.4291 L 279.01474 -157.2471 C 273.78974 -154.99011 268.84574 -153.37211 264.18574 -152.39311 C 259.52274 -151.41211 253.89774 -150.92211 247.30774 -150.92211 Z M 243.29874 -239.7251 C 235.45974 -239.7251 229.20974 -237.1701 224.54974 -232.0651 C 219.88674 -226.9571 217.14174 -219.8921 216.30974 -210.8661 L 267.34674 -210.8661 C 267.34674 -220.1871 265.26874 -227.3281 261.11274 -232.2871 C 256.95474 -237.2441 251.01774 -239.7251 243.29874 -239.7251 Z" stroke="#231f20" stroke-linecap="butt" stroke-linejoin="round" stroke-width="1.5314"/>
      <path d="M 353.83374 -150.92211 C 347.47974 -150.92211 341.67474 -152.09511 336.41974 -154.44011 C 331.16474 -156.78511 326.75574 -160.3921 323.19274 -165.2621 L 322.12374 -165.2621 C 322.83774 -159.5621 323.19274 -154.15811 323.19274 -149.05111 L 323.19274 -108.88111 L 308.40674 -108.88111 L 308.40674 -250.3231 L 320.43174 -250.3231 L 322.47974 -236.9631 L 323.19274 -236.9631 C 326.99174 -242.3071 331.41774 -246.1671 336.46374 -248.5421 C 341.50974 -250.9161 347.30074 -252.1051 353.83274 -252.1051 C 366.77574 -252.1051 376.76774 -247.6811 383.80474 -238.8331 C 390.84074 -229.9851 394.35974 -217.5751 394.35974 -201.6031 C 394.35974 -185.5701 390.78174 -173.1141 383.62674 -164.2381 C 376.47174 -155.36011 366.53974 -150.92211 353.83374 -150.92211 Z M 351.69474 -239.5461 C 341.71874 -239.5461 334.50574 -236.7851 330.05074 -231.2631 C 325.59774 -225.7401 323.31074 -216.9521 323.19274 -204.8981 L 323.19274 -201.6031 C 323.19274 -187.8861 325.47774 -178.0731 330.05074 -172.1651 C 334.62274 -166.2551 341.95474 -163.3021 352.05174 -163.3021 C 360.48174 -163.3021 367.08874 -166.7161 371.86874 -173.5451 C 376.64774 -180.3731 379.03874 -189.7841 379.03874 -201.7801 C 379.03874 -213.9521 376.64774 -223.2911 371.86874 -229.7931 C 367.08974 -236.2951 360.36374 -239.5461 351.69474 -239.5461 Z" fill="black"/>
      <path d="M 353.83374 -150.92211 C 347.47974 -150.92211 341.67474 -152.09511 336.41974 -154.44011 C 331.16474 -156.78511 326.75574 -160.3921 323.19274 -165.2621 L 322.12374 -165.2621 C 322.83774 -159.5621 323.19274 -154.15811 323.19274 -149.05111 L 323.19274 -108.88111 L 308.40674 -108.88111 L 308.40674 -250.3231 L 320.43174 -250.3231 L 322.47974 -236.9631 L 323.19274 -236.9631 C 326.99174 -242.3071 331.41774 -246.1671 336.46374 -248.5421 C 341.50974 -250.9161 347.30074 -252.1051 353.83274 -252.1051 C 366.77574 -252.1051 376.76774 -247.6811 383.80474 -238.8331 C 390.84074 -229.9851 394.35974 -217.5751 394.35974 -201.6031 C 394.35974 -185.5701 390.78174 -173.1141 383.62674 -164.2381 C 376.47174 -155.36011 366.53974 -150.92211 353.83374 -150.92211 Z M 351.69474 -239.5461 C 341.71874 -239.5461 334.50574 -236.7851 330.05074 -231.2631 C 325.59774 -225.7401 323.31074 -216.9521 323.19274 -204.8981 L 323.19274 -201.6031 C 323.19274 -187.8861 325.47774 -178.0731 330.05074 -172.1651 C 334.62274 -166.2551 341.95474 -163.3021 352.05174 -163.3021 C 360.48174 -163.3021 367.08874 -166.7161 371.86874 -173.5451 C 376.64774 -180.3731 379.03874 -189.7841 379.03874 -201.7801 C 379.03874 -213.9521 376.64774 -223.2911 371.86874 -229.7931 C 367.08974 -236.2951 360.36374 -239.5461 351.69474 -239.5461 Z" stroke="#231f20" stroke-linecap="butt" stroke-linejoin="round" stroke-width="1.5314"/>
      <path d="M 461.42974 -150.92211 C 446.99874 -150.92211 435.61274 -155.31511 427.27074 -164.1041 C 418.92774 -172.8911 414.75674 -185.0931 414.75674 -200.7121 C 414.75674 -216.4461 418.63074 -228.9471 426.38074 -238.2111 C 434.12874 -247.4741 444.53474 -252.1061 457.59974 -252.1061 C 469.83074 -252.1061 479.51074 -248.0831 486.63674 -240.0371 C 493.76074 -231.9901 497.32474 -221.3771 497.32474 -208.1951 L 497.32474 -198.8421 L 430.07574 -198.8421 C 430.37174 -187.3821 433.26674 -178.6821 438.76074 -172.7451 C 444.25174 -166.8071 451.98774 -163.8381 461.96374 -163.8381 C 472.47374 -163.8381 482.86474 -166.0341 493.13774 -170.4291 L 493.13774 -157.2471 C 487.91174 -154.99011 482.96774 -153.37211 478.30774 -152.39311 C 473.64574 -151.41211 468.02074 -150.92211 461.42974 -150.92211 Z M 457.42174 -239.7251 C 449.58174 -239.7251 443.33274 -237.1701 438.67274 -232.0651 C 434.00974 -226.9571 431.26374 -219.8921 430.43274 -210.8661 L 481.46974 -210.8661 C 481.46974 -220.1871 479.39074 -227.3281 475.23474 -232.2871 C 471.07674 -237.2441 465.13974 -239.7251 457.42174 -239.7251 Z" fill="black"/>
      <path d="M 461.42974 -150.92211 C 446.99874 -150.92211 435.61274 -155.31511 427.27074 -164.1041 C 418.92774 -172.8911 414.75674 -185.0931 414.75674 -200.7121 C 414.75674 -216.4461 418.63074 -228.9471 426.38074 -238.2111 C 434.12874 -247.4741 444.53474 -252.1061 457.59974 -252.1061 C 469.83074 -252.1061 479.51074 -248.0831 486.63674 -240.0371 C 493.76074 -231.9901 497.32474 -221.3771 497.32474 -208.1951 L 497.32474 -198.8421 L 430.07574 -198.8421 C 430.37174 -187.3821 433.26674 -178.6821 438.76074 -172.7451 C 444.25174 -166.8071 451.98774 -163.8381 461.96374 -163.8381 C 472.47374 -163.8381 482.86474 -166.0341 493.13774 -170.4291 L 493.13774 -157.2471 C 487.91174 -154.99011 482.96774 -153.37211 478.30774 -152.39311 C 473.64574 -151.41211 468.02074 -150.92211 461.42974 -150.92211 Z M 457.42174 -239.7251 C 449.58174 -239.7251 443.33274 -237.1701 438.67274 -232.0651 C 434.00974 -226.9571 431.26374 -219.8921 430.43274 -210.8661 L 481.46974 -210.8661 C 481.46974 -220.1871 479.39074 -227.3281 475.23474 -232.2871 C 471.07674 -237.2441 465.13974 -239.7251 457.42174 -239.7251 Z" stroke="#231f20" stroke-linecap="butt" stroke-linejoin="round" stroke-width="1.5314"/>
      <path d="M 567.06674 -252.1051 C 571.40074 -252.1051 575.29074 -251.7491 578.73474 -251.0361 L 576.68774 -237.3191 C 572.64774 -238.2111 569.08474 -238.6551 565.99974 -238.6551 C 558.10074 -238.6551 551.34674 -235.4481 545.73474 -229.0361 C 540.12374 -222.6221 537.31774 -214.6361 537.31774 -205.0761 L 537.31774 -152.70311 L 522.53274 -152.70311 L 522.53274 -250.3231 L 534.73574 -250.3231 L 536.42674 -232.2421 L 537.13974 -232.2421 C 540.76074 -238.5951 545.12574 -243.4941 550.23374 -246.9381 C 555.33874 -250.3821 560.94974 -252.1051 567.06674 -252.1051 Z" fill="black"/>
      <path d="M 567.06674 -252.1051 C 571.40074 -252.1051 575.29074 -251.7491 578.73474 -251.0361 L 576.68774 -237.3191 C 572.64774 -238.2111 569.08474 -238.6551 565.99974 -238.6551 C 558.10074 -238.6551 551.34674 -235.4481 545.73474 -229.0361 C 540.12374 -222.6221 537.31774 -214.6361 537.31774 -205.0761 L 537.31774 -152.70311 L 522.53274 -152.70311 L 522.53274 -250.3231 L 534.73574 -250.3231 L 536.42674 -232.2421 L 537.13974 -232.2421 C 540.76074 -238.5951 545.12574 -243.4941 550.23374 -246.9381 C 555.33874 -250.3821 560.94974 -252.1051 567.06674 -252.1051 Z" stroke="#231f20" stroke-linecap="butt" stroke-linejoin="round" stroke-width="1.5314"/>
      <path d="M -295.92226 -280.8881 L -298.26626 -294.2491 L -314.34026 -294.2491 L -321.49326 -280.8881 L -327.03826 -280.8881 L -303.50326 -324.1861 L -298.48926 -324.1861 L -290.31726 -280.8881 Z M -299.14026 -299.1161 L -301.28326 -311.6211 C -301.33926 -311.9751 -301.40426 -312.4081 -301.48026 -312.9191 C -301.55726 -313.4291 -301.63126 -313.9811 -301.70326 -314.5701 C -301.77526 -315.1591 -301.84426 -315.7741 -301.90726 -316.4131 C -301.97026 -317.0521 -302.02726 -317.6761 -302.07526 -318.2861 C -302.32126 -317.6761 -302.59026 -317.0471 -302.88326 -316.3981 C -303.17526 -315.7491 -303.46326 -315.1251 -303.74626 -314.5241 C -304.03026 -313.9241 -304.30026 -313.3741 -304.55626 -312.8731 C -304.81226 -312.3721 -305.02926 -311.9541 -305.20626 -311.6191 L -311.70626 -299.1141 L -299.14026 -299.1141 Z" fill="black"/>
      <path d="M -270.66126 -280.2981 C -271.82226 -280.2981 -272.85126 -280.4251 -273.74926 -280.6811 C -274.64726 -280.9361 -275.43726 -281.2761 -276.11926 -281.6991 C -276.80126 -282.1221 -277.38126 -282.6181 -277.86026 -283.1891 C -278.33926 -283.7591 -278.74926 -284.3581 -279.08926 -284.9881 L -279.44326 -284.9881 C -279.50326 -284.3191 -279.55726 -283.6801 -279.60726 -283.0711 C -279.65926 -282.5601 -279.71426 -282.0341 -279.77026 -281.4931 C -279.82726 -280.9511 -279.88326 -280.5251 -279.93926 -280.2101 L -282.39726 -266.3771 L -287.76526 -266.3771 L -279.43026 -313.2741 L -275.06426 -313.2741 L -275.07326 -308.9091 L -274.83726 -308.9091 C -274.26226 -309.5971 -273.63726 -310.2411 -272.96026 -310.8411 C -272.28326 -311.4411 -271.52726 -311.9621 -270.69126 -312.4041 C -269.85626 -312.8471 -268.94226 -313.2001 -267.95126 -313.4661 C -266.96026 -313.7321 -265.87426 -313.8641 -264.69426 -313.8641 C -262.84626 -313.8641 -261.22826 -313.5101 -259.83926 -312.8021 C -258.45226 -312.0941 -257.34726 -311.0361 -256.52426 -309.6311 C -255.70226 -308.2251 -255.18226 -306.4801 -254.96326 -304.3961 C -254.74326 -302.3121 -254.87926 -299.8931 -255.36726 -297.1401 C -255.86026 -294.3681 -256.58726 -291.9341 -257.54926 -289.8401 C -258.51126 -287.7461 -259.65426 -285.9911 -260.97726 -284.5761 C -262.30126 -283.1601 -263.78426 -282.0931 -265.42426 -281.3761 C -267.06826 -280.6571 -268.81326 -280.2981 -270.66126 -280.2981 Z M -266.52026 -309.4091 C -268.01426 -309.4091 -269.31826 -309.1821 -270.43026 -308.7311 C -271.54326 -308.2781 -272.50126 -307.5901 -273.30426 -306.6661 C -274.10726 -305.7421 -274.78426 -304.5921 -275.33326 -303.2151 C -275.88326 -301.8391 -276.34226 -300.2161 -276.71526 -298.3491 L -276.93026 -297.1401 C -277.28326 -295.1541 -277.46326 -293.3901 -277.47226 -291.8461 C -277.48126 -290.3021 -277.26026 -289.0041 -276.80826 -287.9521 C -276.35626 -286.9001 -275.64726 -286.1031 -274.68226 -285.5631 C -273.71626 -285.0211 -272.43726 -284.7521 -270.84526 -284.7521 C -268.19026 -284.7521 -266.04826 -285.8231 -264.41826 -287.9671 C -262.79026 -290.1101 -261.61826 -293.1871 -260.90426 -297.1981 C -260.17726 -301.2871 -260.25926 -304.3451 -261.14726 -306.3711 C -262.03526 -308.3961 -263.82526 -309.4091 -266.52026 -309.4091 Z" fill="black"/>
      <path d="M -231.53526 -280.8881 L -231.82926 -285.3711 L -232.06526 -285.3711 C -232.87126 -284.4861 -233.65526 -283.7241 -234.41826 -283.0851 C -235.18126 -282.4451 -235.98226 -281.9201 -236.82326 -281.5061 C -237.66326 -281.0931 -238.57226 -280.7891 -239.55226 -280.5921 C -240.53126 -280.3961 -241.63926 -280.2971 -242.87826 -280.2971 C -244.23426 -280.2971 -245.44926 -280.4881 -246.52226 -280.8721 C -247.59426 -281.2561 -248.47826 -281.8461 -249.17126 -282.6421 C -249.86526 -283.4381 -250.34026 -284.4411 -250.59826 -285.6501 C -250.85526 -286.8601 -250.83626 -288.2901 -250.54326 -289.9421 C -249.96926 -293.1671 -248.39426 -295.6441 -245.81526 -297.3751 C -243.23726 -299.1051 -239.61426 -300.0491 -234.94526 -300.2071 L -229.48126 -300.4141 L -229.11926 -302.4491 C -228.88526 -303.7661 -228.83226 -304.8671 -228.96026 -305.7531 C -229.08726 -306.6381 -229.37426 -307.3501 -229.81826 -307.8911 C -230.26326 -308.4321 -230.86226 -308.8211 -231.61726 -309.0561 C -232.37126 -309.2921 -233.25926 -309.4101 -234.28226 -309.4101 C -235.91426 -309.4101 -237.47626 -309.1741 -238.96526 -308.7021 C -240.45526 -308.2301 -241.90926 -307.6601 -243.32426 -306.9911 L -244.49426 -311.0321 C -242.89926 -311.8191 -241.15826 -312.4871 -239.27026 -313.0371 C -237.38326 -313.5871 -235.45726 -313.8631 -233.49026 -313.8631 C -231.48526 -313.8631 -229.78626 -313.6611 -228.39226 -313.2581 C -226.99926 -312.8551 -225.90326 -312.2161 -225.10626 -311.3411 C -224.30726 -310.4661 -223.79326 -309.3501 -223.56226 -307.9931 C -223.33126 -306.6371 -223.38726 -304.9941 -223.72926 -303.0671 L -227.67126 -280.8871 L -231.53526 -280.8871 Z M -240.72026 -284.6331 C -239.52026 -284.6331 -238.37626 -284.8201 -237.28726 -285.1941 C -236.19926 -285.5671 -235.21326 -286.1321 -234.33126 -286.8901 C -233.44926 -287.6471 -232.69626 -288.6011 -232.06726 -289.7511 C -231.44126 -290.9011 -230.98926 -292.2531 -230.71226 -293.8071 L -230.19326 -296.7271 L -234.44726 -296.5201 C -236.23126 -296.4411 -237.75126 -296.2441 -239.00526 -295.9301 C -240.26126 -295.6151 -241.29726 -295.1781 -242.11526 -294.6171 C -242.93326 -294.0571 -243.57026 -293.3791 -244.02526 -292.5821 C -244.48226 -291.7861 -244.79826 -290.8861 -244.97626 -289.8831 C -245.29826 -288.0731 -245.05826 -286.7461 -244.25426 -285.9011 C -243.45226 -285.0561 -242.27326 -284.6331 -240.72026 -284.6331 Z" fill="black"/>
      <path d="M -205.44826 -280.2981 C -207.43426 -280.2981 -209.23826 -280.6081 -210.85726 -281.2271 C -212.47826 -281.8461 -213.80726 -282.8301 -214.84626 -284.1761 C -215.88626 -285.5231 -216.58226 -287.2431 -216.93726 -289.3381 C -217.29326 -291.4321 -217.20826 -293.9541 -216.68426 -296.9031 C -216.13526 -299.9901 -215.29626 -302.6111 -214.16626 -304.7631 C -213.03626 -306.9171 -211.69826 -308.6661 -210.15026 -310.0131 C -208.60326 -311.3601 -206.90026 -312.3391 -205.04226 -312.9481 C -203.18426 -313.5571 -201.25226 -313.8631 -199.24626 -313.8631 C -197.71226 -313.8631 -196.24326 -313.6961 -194.83726 -313.3621 C -193.43226 -313.0281 -192.28226 -312.6151 -191.38526 -312.1241 L -193.78426 -307.5811 C -194.20226 -307.7781 -194.66926 -307.9691 -195.18626 -308.1561 C -195.70426 -308.3431 -196.24426 -308.5101 -196.80826 -308.6571 C -197.37226 -308.8041 -197.93126 -308.9231 -198.48526 -309.0111 C -199.04026 -309.1001 -199.57326 -309.1441 -200.08426 -309.1441 C -203.17126 -309.1441 -205.59826 -308.1561 -207.36526 -306.1801 C -209.13326 -304.2031 -210.38626 -301.1311 -211.12726 -296.9621 C -211.86426 -292.8141 -211.69026 -289.7811 -210.60626 -287.8631 C -209.52126 -285.9461 -207.52426 -284.9881 -204.61426 -284.9881 C -203.02126 -284.9881 -201.54926 -285.1701 -200.19626 -285.5331 C -198.84426 -285.8971 -197.59326 -286.3251 -196.44526 -286.8161 L -197.29426 -282.0381 C -198.45826 -281.4681 -199.66926 -281.0351 -200.93226 -280.7411 C -202.19226 -280.4451 -203.69826 -280.2981 -205.44826 -280.2981 Z" fill="black"/>
      <path d="M -169.53726 -280.8881 L -165.83026 -301.7411 C -165.37626 -304.2971 -165.55126 -306.2141 -166.35626 -307.4931 C -167.16026 -308.7711 -168.66526 -309.4101 -170.86626 -309.4101 C -172.45926 -309.4101 -173.84226 -309.1541 -175.01426 -308.6431 C -176.18726 -308.1311 -177.19126 -307.3751 -178.02826 -306.3721 C -178.86526 -305.3691 -179.55526 -304.1401 -180.09926 -302.6851 C -180.64226 -301.2301 -181.08226 -299.5591 -181.41826 -297.6711 L -184.40126 -280.8881 L -189.76926 -280.8881 L -181.61226 -326.7821 L -176.24426 -326.7821 L -178.66626 -313.1551 L -179.65726 -308.9081 L -179.36326 -308.9081 C -178.72126 -309.7541 -178.00526 -310.4861 -177.21726 -311.1051 C -176.42926 -311.7241 -175.59526 -312.2401 -174.71526 -312.6541 C -173.83626 -313.0671 -172.92626 -313.3711 -171.98626 -313.5681 C -171.04826 -313.7651 -170.10526 -313.8631 -169.16126 -313.8631 C -165.56326 -313.8631 -163.02126 -312.9241 -161.53626 -311.0461 C -160.05126 -309.1681 -159.67626 -306.1651 -160.40926 -302.0361 L -164.16826 -280.8881 Z" fill="black"/>
      <path d="M -141.50326 -280.2981 C -143.66726 -280.2981 -145.57826 -280.6621 -147.23826 -281.3891 C -148.89826 -282.1161 -150.24826 -283.1781 -151.28826 -284.5751 C -152.32826 -285.9711 -153.01726 -287.7011 -153.35926 -289.7661 C -153.69926 -291.8301 -153.63426 -294.1901 -153.16226 -296.8441 C -152.68726 -299.5181 -151.93826 -301.9071 -150.91526 -304.0111 C -149.89226 -306.1151 -148.66226 -307.8991 -147.22126 -309.3651 C -145.78126 -310.8291 -144.17226 -311.9461 -142.39226 -312.7131 C -140.61526 -313.4791 -138.73326 -313.8631 -136.74626 -313.8631 C -134.80026 -313.8631 -133.11126 -313.5141 -131.68326 -312.8161 C -130.25426 -312.1181 -129.11126 -311.1341 -128.25426 -309.8661 C -127.39826 -308.5981 -126.83826 -307.0741 -126.57426 -305.2941 C -126.31226 -303.5141 -126.37126 -301.5431 -126.75626 -299.3801 L -127.34926 -296.0471 L -147.75926 -296.0471 C -148.33626 -292.2531 -148.03026 -289.4601 -146.84326 -287.6711 C -145.65826 -285.8811 -143.58026 -284.9871 -140.61126 -284.9871 C -139.60826 -284.9871 -138.67126 -285.0351 -137.79726 -285.1341 C -136.92426 -285.2321 -136.07326 -285.3751 -135.24426 -285.5621 C -134.41426 -285.7491 -133.60026 -285.9841 -132.80326 -286.2701 C -132.00626 -286.5541 -131.19226 -286.8741 -130.36226 -287.2291 L -131.21126 -282.4511 C -132.06526 -282.0771 -132.89426 -281.7531 -133.70026 -281.4771 C -134.50626 -281.2011 -135.32326 -280.9761 -136.15126 -280.7991 C -136.97926 -280.6221 -137.82626 -280.4941 -138.69626 -280.4151 C -139.56526 -280.3371 -140.50126 -280.2981 -141.50326 -280.2981 Z M -137.65626 -309.4091 C -139.89826 -309.4091 -141.80926 -308.6421 -143.38826 -307.1081 C -144.97026 -305.5741 -146.12826 -303.3421 -146.86526 -300.4131 L -132.35426 -300.4131 C -132.11626 -301.7501 -132.03126 -302.9741 -132.09926 -304.0851 C -132.16726 -305.1951 -132.41226 -306.1441 -132.83226 -306.9311 C -133.25226 -307.7181 -133.85826 -308.3271 -134.64626 -308.7601 C -135.43426 -309.1921 -136.43726 -309.4091 -137.65626 -309.4091 Z" fill="black"/>
      <path d="M 544.87094 -108.88174 L 541.73814 -108.88174 L 541.73814 -130.78769 L 534.73474 -130.78769 L 534.73474 -133.55511 L 551.85884 -133.55511 L 551.85884 -130.78769 L 544.87094 -130.78769 Z" fill="black"/>
      <path d="M 565.66514 -108.88174 L 558.24224 -130.48386 L 558.10834 -130.48386 C 558.17504 -129.65104 558.23134 -128.82392 558.27554 -128.00314 C 558.3204 -127.294 558.35774 -126.54871 558.38474 -125.76663 C 558.41234 -124.98454 558.42674 -124.2735 558.42674 -123.6316 L 558.42674 -108.88111 L 555.54384 -108.88111 L 555.54384 -133.55448 L 560.16894 -133.55448 L 567.07234 -113.43724 L 567.17294 -113.43724 L 574.10964 -133.55448 L 578.73474 -133.55448 L 578.73474 -108.88111 L 575.61744 -108.88111 L 575.61744 -123.85106 C 575.61744 -124.43588 575.62894 -125.10569 575.65134 -125.85923 C 575.67374 -126.61341 575.70254 -127.33333 575.73524 -128.01963 C 575.78004 -128.81821 575.81914 -129.62884 575.85244 -130.45025 L 575.71854 -130.45025 L 568.22844 -108.88174 Z" fill="black"/>
      <path d="M -492.18826 -19.53111 L -495.75626 -21.82811 C -499.43126 -31.61411 -503.26026 -41.66011 -507.36426 -52.08911 C -507.36426 -52.36411 -507.36426 -52.65511 -507.37926 -52.96211 C -507.50226 -56.28511 -510.82526 -65.21311 -510.94726 -66.74511 C -511.02426 -67.63311 -510.61026 -68.36911 -510.10526 -68.70511 C -502.41826 -49.27111 -496.70626 -33.08411 -492.18826 -19.53111 Z" fill="#f4dcc9"/>
      <path d="M -504.82326 -67.24911 C -504.05726 -65.21211 -503.41426 -61.50611 -504.05726 -61.64411 C -504.70026 -61.76711 -508.26826 -68.27511 -509.03426 -68.78011 C -509.35526 -68.99411 -509.75426 -68.94811 -510.10626 -68.70411 C -535.83426 -133.75811 -583.69026 -235.1671 -682.98626 -395.7191 C -683.06326 -395.8571 -683.15426 -395.9791 -683.23126 -396.1171 L -683.59926 -395.9331 C -684.24226 -397.6481 -686.93726 -401.3541 -686.93726 -401.3541 C -686.93726 -401.3541 -684.64026 -402.5021 -683.49126 -401.7371 C -682.34226 -400.9721 -588.16126 -257.0201 -555.61926 -190.0211 C -555.61926 -190.0211 -525.37426 -123.78811 -523.07726 -118.81111 C -523.07726 -118.81111 -522.81626 -102.85311 -522.31126 -101.96511 C -521.79026 -101.07711 -520.13726 -114.72211 -519.11026 -115.10511 C -518.09926 -115.48811 -518.34426 -107.06511 -517.57926 -106.43711 C -516.81326 -105.79411 -516.56826 -109.50011 -516.43126 -108.09111 C -516.30826 -106.68211 -516.56926 -86.00811 -515.92626 -86.00811 C -515.28326 -86.14611 -513.50726 -94.69111 -512.86326 -95.71711 C -512.22026 -96.72811 -511.07126 -89.97411 -511.33226 -84.23211 C -511.59326 -78.49011 -511.20926 -78.10611 -510.94926 -79.11711 C -510.68926 -80.14311 -508.65226 -88.44411 -508.00926 -89.20911 C -507.38126 -89.97511 -506.86126 -82.94511 -507.50426 -80.64811 C -508.14726 -78.35111 -510.69026 -75.28811 -509.67926 -73.89511 C -508.65126 -72.48611 -505.58826 -69.30111 -504.82326 -67.24911 Z" fill="url(#Obj_Gradient)"/>
      <path d="M -514.79226 -69.85311 L -514.51726 -69.97611 C -512.02026 -63.88111 -509.64726 -57.92411 -507.36526 -52.08911 C -507.30426 -49.34811 -507.62526 -47.98511 -507.62526 -47.98511 C -507.62526 -47.98511 -509.41726 -52.31911 -510.44326 -54.37111 C -510.44326 -54.37111 -511.20926 -48.49011 -510.06026 -44.66211 C -508.91226 -40.83411 -507.50226 -35.09111 -508.52926 -35.61211 C -509.54026 -36.11711 -513.62826 -45.94911 -513.50626 -49.01211 C -513.36826 -52.07511 -513.50626 -61.00311 -513.50626 -61.76811 C -513.50626 -62.53311 -514.39426 -65.47411 -515.16026 -62.91611 C -515.92626 -60.35911 -517.96226 -49.77711 -517.57926 -45.94811 C -517.19626 -42.11911 -517.19626 -37.90811 -517.71726 -38.15311 C -518.22226 -38.41311 -521.16326 -49.25611 -520.13726 -54.87611 C -519.11126 -60.49611 -519.24926 -64.32511 -520.01426 -62.91611 C -520.78026 -61.50711 -524.99126 -54.75411 -527.67126 -54.37111 C -530.35126 -53.98811 -532.51026 -54.75411 -530.59626 -56.14711 C -528.68126 -57.55611 -521.54526 -64.70811 -520.13726 -67.89311 C -520.13726 -67.89311 -517.84026 -73.89611 -520.90326 -69.80811 C -523.96626 -65.72011 -529.70926 -59.21011 -535.06926 -60.23711 C -540.42926 -61.26311 -546.29426 -64.95411 -542.84826 -64.83111 C -539.40326 -64.70811 -534.56326 -64.44811 -532.89426 -66.74511 C -531.24026 -69.04211 -530.98026 -71.84511 -533.53826 -70.95611 C -536.09526 -70.06811 -540.42926 -68.27611 -541.70026 -68.15311 C -542.98726 -68.01511 -549.49526 -75.42711 -553.32426 -76.69811 C -557.15226 -77.96911 -555.23826 -79.37811 -553.56926 -78.99511 C -551.91526 -78.61211 -544.90226 -78.35111 -543.75326 -79.37811 C -542.60426 -80.40411 -540.17026 -82.56311 -545.02426 -82.70111 C -549.87826 -82.82411 -554.97826 -84.09511 -561.74726 -90.98611 C -568.50026 -97.87711 -606.40326 -171.1391 -610.36926 -177.6481 C -614.32026 -184.1561 -614.70326 -183.8961 -613.81526 -184.0191 C -612.91126 -184.1571 -609.46626 -184.1571 -609.72626 -185.0451 C -609.98626 -185.9331 -613.43226 -185.8111 -614.58026 -186.5761 C -615.72826 -187.3411 -615.20826 -189.3791 -612.02226 -189.1341 C -608.83726 -188.8741 -602.57326 -191.4311 -610.10826 -192.8241 C -617.64326 -194.2331 -617.88726 -193.3451 -622.35926 -202.0121 C -624.45726 -206.0711 -636.44826 -231.5991 -648.66826 -257.8931 C -650.68926 -264.9831 -661.59326 -311.2631 -658.73026 -315.2131 C -655.66726 -319.4241 -639.20526 -289.1791 -623.50826 -260.0831 C -607.81126 -230.9871 -566.84626 -163.6051 -555.36126 -143.69711 C -544.05726 -124.09511 -515.68026 -71.49111 -514.79226 -69.85311 Z" fill="url(#Obj_Gradient_2)"/>
      <path d="M -507.38026 -52.96111 C -507.36526 -52.65511 -507.36526 -52.36411 -507.36526 -52.08811 C -509.64726 -57.92211 -512.02026 -63.88011 -514.51726 -69.97511 C -544.57826 -143.97211 -589.70826 -239.1801 -682.98626 -395.7191 C -583.69026 -235.1671 -535.83326 -133.75811 -510.10626 -68.70411 C -510.61126 -68.36711 -511.02526 -67.63211 -510.94826 -66.74411 C -510.82626 -65.21211 -507.50226 -56.28411 -507.38026 -52.96111 Z" fill="#f4dcc9"/>
      <path d="M -514.51626 -69.97511 L -514.79126 -69.85211 C -515.67926 -71.49111 -544.05626 -124.09411 -555.35826 -143.69611 C -566.84326 -163.6041 -607.80926 -230.9861 -623.50526 -260.0821 C -639.20126 -289.1781 -655.66426 -319.4241 -658.72726 -315.2121 C -661.59126 -311.2611 -650.68726 -264.9821 -648.66526 -257.8921 C -662.54026 -287.6781 -676.69026 -318.4441 -677.10326 -320.0671 C -677.86926 -323.1301 -677.60826 -324.1401 -675.57126 -323.6351 C -673.53426 -323.1301 -671.23826 -323.3751 -671.23826 -324.6611 C -671.23826 -325.9321 -672.63226 -326.4381 -677.10326 -328.3521 C -681.57426 -330.2661 -685.40326 -344.8141 -687.31726 -352.8541 C -689.23126 -360.8941 -691.00726 -375.1971 -689.23126 -374.1711 C -687.43926 -373.1451 -682.58526 -369.9601 -681.81926 -371.1081 C -681.05326 -372.2561 -682.46326 -374.8141 -687.70026 -378.1221 C -687.70026 -378.1221 -689.99726 -377.9991 -689.35426 -382.5941 C -688.71126 -387.1891 -688.32826 -395.8711 -687.70026 -395.6111 C -687.70026 -395.6111 -683.10626 -394.0791 -683.48926 -395.6111 C -683.52026 -395.7031 -683.55026 -395.8101 -683.59626 -395.9321 L -683.22826 -396.1161 C -683.15126 -395.9781 -683.06026 -395.8561 -682.98326 -395.7181 C -589.70826 -239.1801 -544.57826 -143.97211 -514.51626 -69.97511 Z" fill="url(#Obj_Gradient_3)"/>
    </g>
  </g>
</svg>
