<?xml version="1.0" encoding="UTF-8" standalone="no"?>
<!DOCTYPE svg PUBLIC "-//W3C//DTD SVG 1.1//EN" "http://www.w3.org/Graphics/SVG/1.1/DTD/svg11.dtd">
<svg xmlns="http://www.w3.org/2000/svg" xmlns:xl="http://www.w3.org/1999/xlink" version="1.1" viewBox="-382 -377 1316 398" width="1316pt" height="398pt" xmlns:dc="http://purl.org/dc/elements/1.1/">
  <metadata> Produced by OmniGraffle 7.4.2 
    <dc:date>2017-09-12 22:13:49 +0000</dc:date>
  </metadata>
  <defs>
    <linearGradient x1="0" x2="1" id="Gradient" gradientUnits="userSpaceOnUse">
      <stop offset="0" stop-color="#683b1b"/>
      <stop offset=".371" stop-color="#a1612f"/>
      <stop offset="1" stop-color="#efa363"/>
    </linearGradient>
    <linearGradient id="Obj_Gradient" xl:href="#Gradient" gradientTransform="translate(-336.11597 -375.2114) rotate(60.63441) scale(386.4362)"/>
    <linearGradient x1="0" x2="1" id="Gradient_2" gradientUnits="userSpaceOnUse">
      <stop offset="0" stop-color="#683b1b"/>
      <stop offset=".371" stop-color="#a1612f"/>
      <stop offset="1" stop-color="#efa363"/>
    </linearGradient>
    <linearGradient id="Obj_Gradient_2" xl:href="#Gradient_2" gradientTransform="translate(-307.3777 -289.38578) rotate(60.63439) scale(318.51095)"/>
    <linearGradient x1="0" x2="1" id="Gradient_3" gradientUnits="userSpaceOnUse">
      <stop offset="0" stop-color="#683b1b"/>
      <stop offset=".5161" stop-color="#a1612f"/>
      <stop offset="1" stop-color="#bd753d"/>
    </linearGradient>
    <linearGradient id="Obj_Gradient_3" xl:href="#Gradient_3" gradientTransform="translate(-339.05287 -369.37777) rotate(60.634406) scale(370.37772)"/>
  </defs>
  <g stroke="none" stroke-opacity="1" stroke-dasharray="none" fill="none" fill-opacity="1">
    <title>Canvas 1</title>
    <g>
      <title>Layer 1</title>
      <path d="M -138.59526 5.8128906 C -143.11026 -.9001094 -148.82526 -8.924109 -156.50826 -18.54911 C -156.15426 -18.66711 -155.75626 -18.69711 -155.44126 -18.59011 C -154.67526 -18.34011 -151.10726 -15.11611 -150.46426 -15.05411 C -149.82126 -14.98511 -150.46426 -16.82311 -151.23026 -17.83111 C -151.99626 -18.84811 -155.05926 -20.42711 -156.08426 -21.12411 C -157.09526 -21.81511 -154.55326 -23.33211 -153.91026 -24.47111 C -153.26726 -25.60911 -153.78726 -29.09211 -154.41526 -28.71211 C -155.05826 -28.33411 -157.09526 -24.22111 -157.35526 -23.71111 C -157.61526 -23.21111 -157.99826 -23.40111 -157.73826 -26.24611 C -157.47826 -29.09211 -158.62626 -32.43711 -159.26926 -31.93811 C -159.91226 -31.43011 -161.68926 -27.19611 -162.33226 -27.12511 C -162.97526 -27.06511 -162.71526 -37.37111 -162.83726 -38.06811 C -162.97526 -38.76611 -163.22026 -36.93011 -163.98526 -37.24811 C -164.75126 -37.55911 -164.50626 -41.73311 -165.51626 -41.54311 C -166.54226 -41.35311 -168.19626 -34.59311 -168.71726 -35.03311 C -169.22226 -35.47311 -169.48326 -43.38011 -169.48326 -43.38011 C -171.78026 -45.84611 -202.02526 -78.66511 -202.02526 -78.66511 C -234.56726 -111.86311 -328.74826 -183.1901 -329.89726 -183.5691 C -331.04526 -183.9491 -333.34226 -183.3801 -333.34226 -183.3801 C -333.34226 -183.3801 -330.27926 -181.2931 -329.89726 -180.5341 C -329.51426 -179.7761 -334.10826 -180.5341 -334.10826 -180.5341 C -334.73626 -180.6631 -335.11926 -176.3611 -335.76226 -174.0851 C -336.40526 -171.8081 -334.10826 -171.8691 -334.10826 -171.8691 C -328.87126 -170.2301 -327.46226 -168.9621 -328.22826 -168.3931 C -328.99426 -167.8241 -333.84826 -169.4021 -335.64026 -169.9101 C -337.41626 -170.4191 -335.64026 -163.3311 -333.72526 -159.3481 C -331.81126 -155.36411 -327.98226 -148.15611 -323.51126 -147.20711 C -319.04026 -146.25911 -317.64626 -146.00811 -317.64626 -145.37811 C -317.64626 -144.74111 -319.94326 -144.62011 -321.98026 -144.87011 C -324.01726 -145.12011 -324.27726 -144.62011 -323.51126 -143.10111 C -322.74526 -141.58411 -273.23526 -88.90811 -268.76326 -84.60511 C -264.29126 -80.31111 -264.04626 -80.75111 -256.51226 -80.05311 C -248.97726 -79.36211 -255.24126 -78.09511 -258.42626 -78.22411 C -261.61226 -78.34611 -262.13226 -77.33711 -260.98426 -76.95711 C -259.83526 -76.57711 -256.39026 -76.63811 -256.13026 -76.19911 C -255.87026 -75.75811 -259.31626 -75.75811 -260.21826 -75.69111 C -261.10726 -75.62911 -260.72426 -75.75811 -256.77326 -72.53411 C -252.80726 -69.31011 -214.90426 -33.00811 -208.15126 -29.59211 C -201.38226 -26.17711 -196.28226 -25.54811 -191.42826 -25.48811 C -186.57426 -25.41911 -189.00826 -24.35011 -190.15726 -23.84211 C -191.30626 -23.33211 -198.32026 -23.46211 -199.97426 -23.65211 C -201.64326 -23.84211 -203.55726 -23.14411 -199.72826 -22.51411 C -195.89926 -21.88511 -189.39126 -18.21211 -188.10526 -18.28111 C -186.83426 -18.34111 -182.50026 -19.22911 -179.94226 -19.66911 C -177.38526 -20.10811 -177.64526 -18.72111 -179.29926 -17.58311 C -180.96826 -16.44511 -185.80826 -16.57411 -189.25326 -16.63511 C -192.69926 -16.69511 -186.83426 -14.86611 -181.47426 -14.35811 C -176.11426 -13.84911 -170.37126 -17.07411 -167.30826 -19.10211 C -164.24526 -21.12711 -166.54226 -18.15211 -166.54226 -18.15211 C -167.95126 -16.57411 -175.08726 -13.03111 -177.00126 -12.33211 C -178.91526 -11.64311 -176.75526 -11.26311 -174.07626 -11.45311 C -171.39626 -11.64311 -167.18426 -14.98811 -166.41926 -15.68711 C -165.65326 -16.38511 -165.51626 -14.48911 -166.54226 -11.70411 C -167.56826 -8.918109 -164.62726 -3.5461094 -164.12226 -3.4161094 C -163.60126 -3.2961094 -163.60126 -5.3831094 -163.98426 -7.279109 C -164.36726 -9.177109 -162.33026 -14.42011 -161.56426 -15.68711 C -160.79826 -16.95511 -159.91026 -15.49911 -159.91026 -15.11911 C -159.91026 -14.73911 -159.77226 -10.315109 -159.91026 -8.797109 C -160.03326 -7.279109 -155.94426 -2.4081094 -154.93326 -2.1581094 C -153.90726 -1.9001094 -155.31626 -4.7441094 -156.46426 -6.642109 C -157.61326 -8.538109 -156.84726 -11.45311 -156.84726 -11.45311 C -155.82126 -10.436109 -154.03026 -8.288109 -154.03026 -8.288109 C -154.03026 -8.288109 -153.72026 -8.968109 -153.76326 -10.323109 C -149.66426 -5.1531094 -145.83026 -.17510935 -142.16226 4.6718906 Z" fill="#a7a9ac"/>
      <path d="M -322.95526 -199.7531 L -367.88426 -195.8661 L -366.91226 -194.2581 C -366.67226 -193.8671 -366.90326 -193.5511 -367.60126 -193.3101 C -368.30826 -193.0691 -369.31526 -192.8921 -370.62226 -192.7761 C -371.90026 -192.6621 -372.99326 -192.6581 -373.89226 -192.7571 C -374.78726 -192.8561 -375.33526 -193.1071 -375.53326 -193.5071 L -377.86726 -198.1941 C -378.04026 -198.5451 -377.79026 -198.8231 -377.11226 -199.0351 C -376.43826 -199.2441 -375.49826 -199.4001 -374.29326 -199.5041 C -373.11626 -199.6021 -372.11526 -199.6111 -371.28226 -199.5261 C -370.44726 -199.4451 -369.92726 -199.2311 -369.71726 -198.8851 L -368.81626 -197.3961 L -334.99026 -200.2921 L -338.16326 -201.3831 C -338.67526 -201.5541 -338.97926 -201.6881 -339.08226 -201.7851 C -339.25926 -201.9571 -339.02526 -202.1381 -338.37326 -202.3321 C -337.72426 -202.5201 -336.83226 -202.6641 -335.70226 -202.7581 C -334.67626 -202.8411 -333.81726 -202.8681 -333.12726 -202.8271 C -332.43326 -202.7841 -331.69626 -202.6371 -330.90726 -202.3841 Z" fill="#a7a9ac"/>
      <path d="M -311.02626 -189.9721 L -361.47026 -185.2941 L -360.22226 -183.2381 C -359.91526 -182.7331 -360.14626 -182.3251 -360.92826 -182.0221 C -361.70726 -181.7141 -362.83926 -181.4931 -364.31626 -181.3531 C -365.76326 -181.2161 -367.00326 -181.2161 -368.03726 -181.3501 C -369.06626 -181.4851 -369.70926 -181.8121 -369.96226 -182.3231 L -372.94326 -188.3061 C -373.16126 -188.7491 -372.89926 -189.1021 -372.14926 -189.3641 C -371.40726 -189.6241 -370.35826 -189.8171 -369.00826 -189.9361 C -367.68826 -190.0571 -366.55926 -190.0601 -365.61826 -189.9511 C -364.67126 -189.8431 -364.06526 -189.5711 -363.80026 -189.1341 L -362.65226 -187.2471 L -324.73726 -190.7181 L -328.47226 -192.1091 C -329.07626 -192.3221 -329.43526 -192.4951 -329.55826 -192.6181 C -329.78726 -192.8331 -329.54426 -193.0601 -328.83626 -193.2941 C -328.13126 -193.5301 -327.15026 -193.7021 -325.89126 -193.8151 C -324.74526 -193.9181 -323.78126 -193.9401 -322.99826 -193.8891 C -322.21326 -193.8341 -321.35426 -193.6431 -320.42926 -193.3231 Z" fill="#a7a9ac"/>
      <path d="M -320.18726 -170.0771 L -332.26726 -168.8261 C -339.50326 -168.0751 -346.83326 -167.8871 -354.14326 -168.2571 C -361.36526 -168.6211 -365.40726 -169.7611 -366.30526 -171.6261 C -366.81026 -172.6701 -366.28026 -173.6311 -364.74826 -174.5141 C -363.23526 -175.3811 -360.17826 -176.3531 -355.60826 -177.4241 C -351.11226 -178.4771 -346.20726 -179.2571 -340.85426 -179.7731 L -329.93726 -180.8341 C -323.56226 -181.4491 -317.05026 -181.6311 -310.31226 -181.3751 C -303.50726 -181.1211 -299.11426 -180.2011 -297.14126 -178.5851 C -295.98226 -177.6331 -295.88326 -176.7261 -296.86526 -175.8571 C -297.86326 -174.9751 -300.49726 -173.9541 -304.80726 -172.7801 C -309.20326 -171.5871 -314.33926 -170.6831 -320.18726 -170.0771 Z M -322.62126 -172.7601 C -316.84526 -173.3501 -312.22126 -174.2481 -308.76826 -175.4381 C -306.90826 -176.1021 -306.40526 -176.8091 -307.23526 -177.5591 C -308.02726 -178.2771 -309.91326 -178.7321 -312.87626 -178.9341 C -317.32726 -179.2321 -322.30526 -179.1071 -327.87926 -178.5581 L -339.04126 -177.4631 C -344.65226 -176.9111 -349.30926 -176.0581 -353.03826 -174.8941 C -355.14626 -174.2441 -355.97526 -173.5131 -355.49726 -172.7071 C -355.04026 -171.9311 -353.31026 -171.4181 -350.30926 -171.1811 C -345.73326 -170.8231 -340.41126 -170.9491 -334.41126 -171.5621 Z" fill="#a7a9ac"/>
      <path d="M -275.03126 -160.4451 L -341.85926 -152.96711 L -339.55726 -149.17311 C -338.98626 -148.23511 -339.18726 -147.48711 -340.17326 -146.93711 C -341.16626 -146.38011 -342.66326 -145.98511 -344.66826 -145.75311 C -346.63226 -145.52911 -348.35426 -145.55011 -349.81426 -145.82311 C -351.26926 -146.09311 -352.23226 -146.71111 -352.70926 -147.66811 L -358.14626 -158.5851 C -358.53926 -159.3761 -358.26326 -159.9951 -357.31726 -160.4431 C -356.37426 -160.8871 -355.02026 -161.2051 -353.24126 -161.3961 C -351.50626 -161.5811 -349.99626 -161.5701 -348.70626 -161.3611 C -347.41126 -161.1561 -346.52826 -160.6691 -346.05926 -159.8891 L -344.01026 -156.50911 L -293.99126 -162.0011 L -299.64026 -164.4951 C -300.53926 -164.8811 -301.09726 -165.1821 -301.32026 -165.3991 C -301.71426 -165.7771 -301.48726 -166.1661 -300.63626 -166.5601 C -299.79726 -166.9521 -298.56126 -167.2351 -296.92926 -167.4101 C -295.44726 -167.5681 -294.16926 -167.5911 -293.09626 -167.4841 C -292.02026 -167.3791 -290.79126 -167.0401 -289.39726 -166.4721 Z" fill="#a7a9ac"/>
      <path d="M -277.13626 -122.58711 L -294.20526 -120.30211 C -304.48626 -118.92811 -315.16626 -118.71711 -326.01426 -119.68211 C -336.68326 -120.62211 -342.89726 -123.07011 -344.73626 -126.88211 C -345.75626 -128.99411 -345.26926 -130.89611 -343.34026 -132.60711 C -341.44726 -134.28111 -337.41226 -136.11011 -331.31226 -138.08811 C -325.35226 -140.01611 -318.75426 -141.40411 -311.44626 -142.28111 L -296.60226 -144.06111 C -287.96626 -145.09711 -278.93826 -145.30711 -269.33326 -144.68911 C -259.58926 -144.06111 -252.80426 -142.21711 -248.95626 -139.05911 C -246.67526 -137.18911 -245.91926 -135.40311 -246.75326 -133.71311 C -247.61326 -131.98511 -250.75126 -130.00011 -256.26726 -127.74011 C -261.93726 -125.41811 -268.90926 -123.69311 -277.13626 -122.58711 Z M -282.16126 -128.12811 C -274.11126 -129.17811 -267.93226 -130.87111 -263.66126 -133.16011 C -261.38326 -134.42511 -261.09426 -135.80411 -262.74126 -137.29511 C -264.30226 -138.70511 -267.24826 -139.62811 -271.57426 -140.08111 C -278.04426 -140.74911 -285.02726 -140.61811 -292.63626 -139.68411 L -307.93426 -137.80811 C -315.65326 -136.85711 -321.92926 -135.30411 -326.80926 -133.09911 C -329.58526 -131.85411 -330.52026 -130.42411 -329.56126 -128.79811 C -328.63326 -127.22611 -325.96126 -126.15211 -321.53626 -125.60011 C -314.76326 -124.75311 -307.09526 -124.88211 -298.66126 -125.98111 Z" fill="#a7a9ac"/>
      <path d="M -237.17426 -78.50711 L -258.66626 -74.99411 C -271.67226 -72.87011 -285.51726 -72.68911 -299.81326 -74.43211 C -313.80026 -76.14111 -322.24526 -80.22511 -325.23026 -86.41811 C -326.86426 -89.81111 -326.55226 -92.82711 -324.38426 -95.49811 C -322.27026 -98.09611 -317.49826 -100.90211 -310.19126 -103.89411 C -303.09626 -106.79611 -295.13526 -108.84711 -286.20426 -110.10211 L -268.11826 -112.64111 C -257.62626 -114.11211 -246.42826 -114.32511 -234.24726 -113.27911 C -221.84826 -112.21511 -212.69626 -109.31811 -206.70126 -104.40611 C -203.11526 -101.46411 -201.48526 -98.65511 -201.91526 -96.00711 C -202.36226 -93.28011 -205.65126 -90.15211 -211.92426 -86.59611 C -218.41826 -82.91411 -226.85726 -80.19211 -237.17426 -78.50711 Z M -245.38826 -87.57011 C -235.37926 -89.14511 -228.01026 -91.76411 -223.31926 -95.34911 C -220.84426 -97.31511 -220.94926 -99.47611 -223.54426 -101.82511 C -225.99226 -104.04311 -230.01426 -105.50211 -235.61026 -106.25011 C -243.96126 -107.36011 -252.70126 -107.23911 -262.00126 -105.89411 L -280.76926 -103.17411 C -290.26926 -101.79711 -297.84626 -99.45111 -303.56526 -96.05911 C -306.84026 -94.13211 -307.74726 -91.87611 -306.21526 -89.28211 C -304.71826 -86.75111 -301.08926 -84.98511 -295.29726 -84.03111 C -286.40626 -82.57211 -276.56026 -82.67511 -265.99226 -84.33311 Z" fill="#a7a9ac"/>
      <path d="M -127.69726 -39.60711 L -257.37026 -13.71811 L -246.62326 4.0018906 C -243.84426 8.582891 -243.09626 12.21789 -244.47926 14.83089 C -245.88126 17.50489 -248.73226 19.30989 -253.03426 20.25789 C -257.26526 21.18989 -261.30226 20.87289 -265.09226 19.32289 C -268.84226 17.79389 -271.91126 14.60089 -274.27226 9.846891 L -298.52326 -38.85311 C -300.11126 -42.04011 -300.14226 -44.43711 -298.66526 -46.11511 C -297.20326 -47.77111 -294.79426 -48.88811 -291.41026 -49.48011 C -288.11326 -50.04811 -285.06626 -49.90011 -282.24326 -49.01211 C -279.39526 -48.11211 -277.05126 -46.14811 -275.18226 -43.07211 L -266.76326 -29.18911 L -171.16526 -47.29611 L -187.64526 -57.25611 C -190.18426 -58.75711 -191.86426 -59.91111 -192.69926 -60.72411 C -194.17726 -62.14911 -194.41326 -63.54611 -193.42826 -64.91711 C -192.45526 -66.26911 -190.50326 -67.19811 -187.58326 -67.71211 C -184.93226 -68.17711 -182.44626 -68.18411 -180.11026 -67.73011 C -177.76426 -67.26711 -174.66926 -65.97411 -170.75726 -63.80711 Z" fill="#a7a9ac"/>
      <path d="M -329.67526 -207.1351 L -372.48426 -202.4721 L -371.54226 -201.0341 C -371.31126 -200.6851 -371.52526 -200.3921 -372.18426 -200.1561 C -372.85126 -199.9191 -373.80226 -199.7341 -375.03826 -199.5981 C -376.24626 -199.4641 -377.28026 -199.4351 -378.13126 -199.5031 C -378.97826 -199.5721 -379.50026 -199.7861 -379.69126 -200.1451 L -381.94726 -204.3371 C -382.11526 -204.6501 -381.88226 -204.9091 -381.24326 -205.1171 C -380.61026 -205.3231 -379.72526 -205.4881 -378.58926 -205.6121 C -377.47926 -205.7311 -376.53226 -205.7631 -375.74426 -205.7081 C -374.95426 -205.6561 -374.45926 -205.4741 -374.25726 -205.1651 L -373.38626 -203.8371 L -341.23326 -207.3201 L -344.28826 -208.2331 C -344.78126 -208.3761 -345.07426 -208.4901 -345.17326 -208.5761 C -345.34626 -208.7281 -345.12526 -208.8981 -344.50626 -209.0931 C -343.88826 -209.2811 -343.03826 -209.4351 -341.95926 -209.5501 C -340.97926 -209.6531 -340.15726 -209.6991 -339.49626 -209.6791 C -338.83026 -209.6571 -338.12126 -209.5421 -337.36126 -209.3321 Z" fill="black"/>
      <path d="M -317.96526 -198.4671 L -366.25826 -193.0021 L -365.04426 -191.1551 C -364.74426 -190.7001 -364.95926 -190.3221 -365.69826 -190.0291 C -366.43526 -189.7301 -367.50926 -189.5021 -368.91226 -189.3421 C -370.28526 -189.1851 -371.46326 -189.1561 -372.44526 -189.2561 C -373.42426 -189.3571 -374.03726 -189.6401 -374.28326 -190.1001 L -377.18126 -195.4811 C -377.39226 -195.8791 -377.14826 -196.2051 -376.44126 -196.4601 C -375.74326 -196.7141 -374.75226 -196.9151 -373.47526 -197.0551 C -372.22526 -197.1961 -371.15626 -197.2251 -370.26126 -197.1481 C -369.36226 -197.0721 -368.78226 -196.8381 -368.52626 -196.4461 L -367.40926 -194.7541 L -331.21126 -198.8211 L -334.83026 -200.0051 C -335.41426 -200.1851 -335.76326 -200.3351 -335.88426 -200.4441 C -336.10826 -200.6351 -335.87926 -200.8491 -335.20326 -201.0801 C -334.53126 -201.3141 -333.59026 -201.4951 -332.38326 -201.6301 C -331.28326 -201.7531 -330.35626 -201.7961 -329.60126 -201.7681 C -328.84426 -201.7371 -328.01326 -201.5831 -327.11626 -201.3131 Z" fill="black"/>
      <path d="M -326.40426 -179.9321 L -338.04226 -178.5291 C -344.99226 -177.6911 -352.02326 -177.3681 -359.02726 -177.5621 C -365.92726 -177.7501 -369.79326 -178.7131 -370.67226 -180.4031 C -371.16626 -181.3481 -370.67326 -182.2381 -369.22926 -183.0781 C -367.80226 -183.9031 -364.90426 -184.8581 -360.56326 -185.9371 C -356.28726 -186.9991 -351.60926 -187.8201 -346.48926 -188.4121 L -336.02426 -189.6281 C -329.89426 -190.3361 -323.61126 -190.6511 -317.08426 -190.5681 C -310.47626 -190.4861 -306.18326 -189.7361 -304.22326 -188.2881 C -303.07026 -187.4341 -302.95026 -186.5961 -303.88726 -185.7701 C -304.83826 -184.9321 -307.37926 -183.9301 -311.54626 -182.7511 C -315.79126 -181.5591 -320.75426 -180.6141 -326.40426 -179.9321 Z M -328.81126 -182.3581 C -323.23826 -183.0251 -318.77726 -183.9531 -315.45526 -185.1271 C -313.66426 -185.7801 -313.19226 -186.4441 -314.01626 -187.1181 C -314.80026 -187.7641 -316.64026 -188.1411 -319.51626 -188.2621 C -323.82926 -188.4381 -328.63726 -188.2131 -334.00026 -187.5841 L -344.71226 -186.3341 C -350.08326 -185.7061 -354.52526 -184.8231 -358.07126 -183.6761 C -360.07426 -183.0351 -360.85526 -182.3481 -360.38826 -181.6191 C -359.94126 -180.9161 -358.28026 -180.4831 -355.40626 -180.3271 C -351.01826 -180.0921 -345.91526 -180.3171 -340.15726 -181.0071 Z" fill="black"/>
      <path d="M -282.08626 -171.8931 L -346.99626 -163.7001 L -344.71226 -160.2261 C -344.14526 -159.3661 -344.32626 -158.6691 -345.26826 -158.1431 C -346.21426 -157.6101 -347.65226 -157.2191 -349.57926 -156.9711 C -351.46626 -156.73011 -353.12226 -156.72111 -354.53126 -156.9501 C -355.93426 -157.1761 -356.86826 -157.7321 -357.34126 -158.6101 L -362.71126 -168.5901 C -363.09926 -169.3111 -362.84326 -169.8861 -361.94726 -170.3151 C -361.05126 -170.7421 -359.76026 -171.0611 -358.06126 -171.2701 C -356.40226 -171.4731 -354.95626 -171.4931 -353.71526 -171.3241 C -352.47026 -171.1591 -351.61426 -170.7281 -351.15026 -170.0181 L -349.12626 -166.9361 L -300.74026 -172.9741 L -306.31826 -175.1801 C -307.20526 -175.5201 -307.75626 -175.7901 -307.97926 -175.9871 C -308.37226 -176.3291 -308.16026 -176.6951 -307.34026 -177.0761 C -306.53126 -177.4571 -305.33226 -177.7451 -303.74526 -177.9401 C -302.30126 -178.1171 -301.05426 -178.1651 -300.00326 -178.0871 C -298.94826 -178.0111 -297.73726 -177.7211 -296.35826 -177.2211 Z" fill="black"/>
      <path d="M -283.09826 -136.27811 L -299.90026 -133.90311 C -309.97526 -132.48111 -320.43426 -132.15111 -331.03926 -132.92511 C -341.42626 -133.67511 -347.48726 -135.88611 -349.32926 -139.42011 C -350.34926 -141.37511 -349.91226 -143.15411 -348.07826 -144.77611 C -346.28026 -146.36211 -342.41126 -148.12511 -336.54426 -150.06011 C -330.80126 -151.94811 -324.41926 -153.34911 -317.32126 -154.28411 L -302.85126 -156.19111 C -294.40026 -157.3041 -285.51626 -157.6521 -276.00826 -157.2341 C -266.32626 -156.80611 -259.51726 -155.18211 -255.57626 -152.26211 C -253.23726 -150.52911 -252.42126 -148.85011 -253.19926 -147.23811 C -254.00026 -145.58711 -257.07226 -143.66111 -262.50726 -141.44111 C -268.08226 -139.16011 -274.96626 -137.43411 -283.09826 -136.27811 Z M -288.22426 -141.44411 C -280.28726 -142.54811 -274.20926 -144.23511 -270.03626 -146.46111 C -267.81026 -147.68911 -267.56526 -148.99611 -269.24826 -150.37811 C -270.84126 -151.68411 -273.79126 -152.50611 -278.08926 -152.86311 C -284.50626 -153.38611 -291.38726 -153.15111 -298.84726 -152.15511 L -313.79026 -150.15711 C -321.30226 -149.14911 -327.37926 -147.60411 -332.07726 -145.47311 C -334.74826 -144.27111 -335.62826 -142.92011 -334.66526 -141.41511 C -333.73326 -139.95811 -331.11526 -138.98811 -326.79526 -138.53111 C -320.17026 -137.82611 -312.67026 -138.04811 -304.42426 -139.19511 Z" fill="black"/>
      <path d="M -241.64326 -94.49511 L -263.22426 -90.99411 C -276.21526 -88.88911 -290.03926 -88.65411 -304.29026 -90.26211 C -318.15226 -91.83011 -326.54726 -95.67711 -329.60226 -101.54411 C -331.27126 -104.75011 -331.02526 -107.60811 -328.95826 -110.15411 C -326.94326 -112.63011 -322.32926 -115.32511 -315.22726 -118.22211 C -308.31926 -121.03911 -300.52426 -123.06311 -291.73226 -124.34611 L -273.84926 -126.95611 C -263.42626 -128.47611 -252.21726 -128.81011 -239.92926 -127.95311 C -227.35726 -127.07811 -217.95326 -124.39911 -211.64826 -119.73511 C -207.86426 -116.93111 -206.08026 -114.23211 -206.40926 -111.66711 C -206.75226 -109.02411 -209.98926 -105.96811 -216.25826 -102.47711 C -222.74026 -98.87011 -231.23126 -96.18411 -241.64326 -94.49511 Z M -250.26526 -103.18911 C -240.20626 -104.77811 -232.83426 -107.35811 -228.20826 -110.85311 C -225.76826 -112.77011 -225.95826 -114.85111 -228.68326 -117.08511 C -231.24826 -119.19311 -235.37226 -120.55311 -241.05326 -121.21311 C -249.50526 -122.18911 -258.27726 -121.98111 -267.54226 -120.60211 L -286.15726 -117.82511 C -295.53626 -116.42511 -302.96626 -114.12811 -308.52526 -110.85711 C -311.70726 -109.00111 -312.54726 -106.85111 -310.97726 -104.39511 C -309.44026 -101.99611 -305.81226 -100.33611 -300.05626 -99.46211 C -291.19226 -98.12211 -281.38626 -98.28111 -270.87026 -99.93811 Z" fill="black"/>
      <path d="M -126.17126 -56.43811 L -259.92826 -31.26911 L -248.35126 -13.65311 C -245.33826 -9.071109 -244.44026 -5.4411094 -245.76926 -2.8531094 C -247.11426 -.20110935 -249.97826 1.5648906 -254.36026 2.4548906 C -258.66626 3.3308906 -262.80526 2.9598906 -266.72726 1.3708906 C -270.59926 -.19610935 -273.82226 -3.4011094 -276.36526 -8.141109 L -302.11926 -55.99411 C -303.78126 -59.08411 -303.87326 -61.40211 -302.44326 -63.02311 C -301.02926 -64.62411 -298.65726 -65.70311 -295.29426 -66.27711 C -292.01626 -66.82711 -288.96526 -66.68411 -286.11426 -65.82411 C -283.23426 -64.95211 -280.82426 -63.04711 -278.85626 -60.05711 L -269.94826 -46.50011 L -172.40526 -64.13311 L -190.02126 -73.94611 C -192.71826 -75.41811 -194.50826 -76.54711 -195.40826 -77.34211 C -196.99726 -78.73711 -197.30426 -80.10511 -196.34726 -81.45111 C -195.40126 -82.77911 -193.42526 -83.69511 -190.43026 -84.20811 C -187.70726 -84.67311 -185.13326 -84.68911 -182.68926 -84.25211 C -180.23226 -83.80611 -176.95526 -82.54611 -172.77926 -80.42711 Z" fill="black"/>
      <path d="M -86.31226 -257.9231 L -49.52626 -257.9231 C -32.246258 -257.9231 -19.748258 -255.3401 -12.028258 -250.1741 C -4.310258 -245.0081 -.44925784 -236.8421 -.44925784 -225.6801 C -.44925784 -217.9601 -2.6022578 -211.5921 -6.907258 -206.5741 C -11.213258 -201.5561 -17.492258 -198.3051 -25.745258 -196.8211 L -25.745258 -195.9301 C -5.971258 -192.5461 3.915742 -182.1541 3.915742 -164.7561 C 3.915742 -153.11711 -.01825784 -144.03211 -7.886258 -137.50111 C -15.755258 -130.96811 -26.755258 -127.70311 -40.88626 -127.70311 L -86.31226 -127.70311 Z M -71.17026 -202.1651 L -46.23026 -202.1651 C -35.542258 -202.1651 -27.853258 -203.8421 -23.161258 -207.1981 C -18.471258 -210.5521 -16.124258 -216.2081 -16.124258 -224.1661 C -16.124258 -231.4691 -18.738258 -236.7391 -23.962258 -239.9761 C -29.188258 -243.2111 -37.50126 -244.8301 -48.90226 -244.8301 L -71.17026 -244.8301 Z M -71.17026 -189.3391 L -71.17026 -140.61811 L -44.00326 -140.61811 C -33.493258 -140.61811 -25.581258 -142.65111 -20.266258 -146.71911 C -14.953258 -150.78611 -12.294258 -157.1551 -12.294258 -165.8251 C -12.294258 -173.8991 -15.011258 -179.8381 -20.444258 -183.6381 C -25.877258 -187.4371 -34.147258 -189.3381 -45.25026 -189.3381 L -71.17026 -189.3381 Z" fill="black"/>
      <path d="M -86.31226 -257.9231 L -49.52626 -257.9231 C -32.246258 -257.9231 -19.748258 -255.3401 -12.028258 -250.1741 C -4.310258 -245.0081 -.44925784 -236.8421 -.44925784 -225.6801 C -.44925784 -217.9601 -2.6022578 -211.5921 -6.907258 -206.5741 C -11.213258 -201.5561 -17.492258 -198.3051 -25.745258 -196.8211 L -25.745258 -195.9301 C -5.971258 -192.5461 3.915742 -182.1541 3.915742 -164.7561 C 3.915742 -153.11711 -.01825784 -144.03211 -7.886258 -137.50111 C -15.755258 -130.96811 -26.755258 -127.70311 -40.88626 -127.70311 L -86.31226 -127.70311 Z M -71.17026 -202.1651 L -46.23026 -202.1651 C -35.542258 -202.1651 -27.853258 -203.8421 -23.161258 -207.1981 C -18.471258 -210.5521 -16.124258 -216.2081 -16.124258 -224.1661 C -16.124258 -231.4691 -18.738258 -236.7391 -23.962258 -239.9761 C -29.188258 -243.2111 -37.50126 -244.8301 -48.90226 -244.8301 L -71.17026 -244.8301 Z M -71.17026 -189.3391 L -71.17026 -140.61811 L -44.00326 -140.61811 C -33.493258 -140.61811 -25.581258 -142.65111 -20.266258 -146.71911 C -14.953258 -150.78611 -12.294258 -157.1551 -12.294258 -165.8251 C -12.294258 -173.8991 -15.011258 -179.8381 -20.444258 -183.6381 C -25.877258 -187.4371 -34.147258 -189.3381 -45.25026 -189.3381 L -71.17026 -189.3381 Z" stroke="#231f20" stroke-linecap="butt" stroke-linejoin="round" stroke-width="1.5314"/>
      <path d="M 113.91574 -176.6031 C 113.91574 -160.6881 109.90774 -148.26311 101.89174 -139.32711 C 93.87474 -130.38911 82.80074 -125.92211 68.66874 -125.92211 C 59.93974 -125.92211 52.19074 -127.97011 45.42174 -132.06811 C 38.65174 -136.16511 33.425742 -142.04411 29.745742 -149.70411 C 26.062742 -157.3641 24.222742 -166.3291 24.222742 -176.6031 C 24.222742 -192.5161 28.200742 -204.9121 36.158742 -213.7901 C 44.11474 -222.6661 55.15974 -227.1061 69.29274 -227.1061 C 82.94974 -227.1061 93.80074 -222.5641 101.84774 -213.4781 C 109.89274 -204.3921 113.91574 -192.1011 113.91574 -176.6031 Z M 39.54274 -176.6031 C 39.54274 -164.1331 42.03774 -154.63211 47.02474 -148.10111 C 52.01274 -141.56811 59.34574 -138.30311 69.02474 -138.30311 C 78.70274 -138.30311 86.05074 -141.55411 91.06874 -148.05611 C 96.08674 -154.55911 98.59474 -164.0741 98.59474 -176.6031 C 98.59474 -189.0131 96.08574 -198.4391 91.06874 -204.8821 C 86.05074 -211.3241 78.64374 -214.5461 68.84674 -214.5461 C 59.16674 -214.5461 51.86274 -211.3691 46.93474 -205.0161 C 42.00674 -198.6611 39.54274 -189.1901 39.54274 -176.6031 Z" fill="black"/>
      <path d="M 113.91574 -176.6031 C 113.91574 -160.6881 109.90774 -148.26311 101.89174 -139.32711 C 93.87474 -130.38911 82.80074 -125.92211 68.66874 -125.92211 C 59.93974 -125.92211 52.19074 -127.97011 45.42174 -132.06811 C 38.65174 -136.16511 33.425742 -142.04411 29.745742 -149.70411 C 26.062742 -157.3641 24.222742 -166.3291 24.222742 -176.6031 C 24.222742 -192.5161 28.200742 -204.9121 36.158742 -213.7901 C 44.11474 -222.6661 55.15974 -227.1061 69.29274 -227.1061 C 82.94974 -227.1061 93.80074 -222.5641 101.84774 -213.4781 C 109.89274 -204.3921 113.91574 -192.1011 113.91574 -176.6031 Z M 39.54274 -176.6031 C 39.54274 -164.1331 42.03774 -154.63211 47.02474 -148.10111 C 52.01274 -141.56811 59.34574 -138.30311 69.02474 -138.30311 C 78.70274 -138.30311 86.05074 -141.55411 91.06874 -148.05611 C 96.08674 -154.55911 98.59474 -164.0741 98.59474 -176.6031 C 98.59474 -189.0131 96.08574 -198.4391 91.06874 -204.8821 C 86.05074 -211.3241 78.64374 -214.5461 68.84674 -214.5461 C 59.16674 -214.5461 51.86274 -211.3691 46.93474 -205.0161 C 42.00674 -198.6611 39.54274 -189.1901 39.54274 -176.6031 Z" stroke="#231f20" stroke-linecap="butt" stroke-linejoin="round" stroke-width="1.5314"/>
      <path d="M 224.09574 -176.6031 C 224.09574 -160.6881 220.08774 -148.26311 212.07174 -139.32711 C 204.05474 -130.38911 192.97974 -125.92211 178.84774 -125.92211 C 170.11874 -125.92211 162.36974 -127.97011 155.60074 -132.06811 C 148.83174 -136.16511 143.60474 -142.04411 139.92474 -149.70411 C 136.24174 -157.3641 134.40174 -166.3291 134.40174 -176.6031 C 134.40174 -192.5161 138.37974 -204.9121 146.33774 -213.7901 C 154.29374 -222.6661 165.33874 -227.1061 179.47174 -227.1061 C 193.12874 -227.1061 203.97974 -222.5641 212.02674 -213.4781 C 220.07274 -204.3921 224.09574 -192.1011 224.09574 -176.6031 Z M 149.72174 -176.6031 C 149.72174 -164.1331 152.21674 -154.63211 157.20374 -148.10111 C 162.19174 -141.56811 169.52474 -138.30311 179.20374 -138.30311 C 188.88174 -138.30311 196.22974 -141.55411 201.24774 -148.05611 C 206.26474 -154.55911 208.77374 -164.0741 208.77374 -176.6031 C 208.77374 -189.0131 206.26474 -198.4391 201.24774 -204.8821 C 196.22974 -211.3241 188.82174 -214.5461 179.02474 -214.5461 C 169.34474 -214.5461 162.04074 -211.3691 157.11274 -205.0161 C 152.18574 -198.6611 149.72174 -189.1901 149.72174 -176.6031 Z" fill="black"/>
      <path d="M 224.09574 -176.6031 C 224.09574 -160.6881 220.08774 -148.26311 212.07174 -139.32711 C 204.05474 -130.38911 192.97974 -125.92211 178.84774 -125.92211 C 170.11874 -125.92211 162.36974 -127.97011 155.60074 -132.06811 C 148.83174 -136.16511 143.60474 -142.04411 139.92474 -149.70411 C 136.24174 -157.3641 134.40174 -166.3291 134.40174 -176.6031 C 134.40174 -192.5161 138.37974 -204.9121 146.33774 -213.7901 C 154.29374 -222.6661 165.33874 -227.1061 179.47174 -227.1061 C 193.12874 -227.1061 203.97974 -222.5641 212.02674 -213.4781 C 220.07274 -204.3921 224.09574 -192.1011 224.09574 -176.6031 Z M 149.72174 -176.6031 C 149.72174 -164.1331 152.21674 -154.63211 157.20374 -148.10111 C 162.19174 -141.56811 169.52474 -138.30311 179.20374 -138.30311 C 188.88174 -138.30311 196.22974 -141.55411 201.24774 -148.05611 C 206.26474 -154.55911 208.77374 -164.0741 208.77374 -176.6031 C 208.77374 -189.0131 206.26474 -198.4391 201.24774 -204.8821 C 196.22974 -211.3241 188.82174 -214.5461 179.02474 -214.5461 C 169.34474 -214.5461 162.04074 -211.3691 157.11274 -205.0161 C 152.18574 -198.6611 149.72174 -189.1901 149.72174 -176.6031 Z" stroke="#231f20" stroke-linecap="butt" stroke-linejoin="round" stroke-width="1.5314"/>
      <path d="M 264.62274 -177.6711 C 267.17374 -181.2931 271.06374 -186.0441 276.29074 -191.9221 L 307.82074 -225.3231 L 325.36774 -225.3231 L 285.82174 -183.7281 L 328.12974 -127.70311 L 310.22674 -127.70311 L 275.75674 -173.8411 L 264.62274 -164.2221 L 264.62274 -127.70311 L 250.01474 -127.70311 L 250.01474 -266.2951 L 264.62274 -266.2951 L 264.62274 -192.8131 C 264.62274 -189.5471 264.38474 -184.4991 263.90974 -177.6711 Z" fill="black"/>
      <path d="M 264.62274 -177.6711 C 267.17374 -181.2931 271.06374 -186.0441 276.29074 -191.9221 L 307.82074 -225.3231 L 325.36774 -225.3231 L 285.82174 -183.7281 L 328.12974 -127.70311 L 310.22674 -127.70311 L 275.75674 -173.8411 L 264.62274 -164.2221 L 264.62274 -127.70311 L 250.01474 -127.70311 L 250.01474 -266.2951 L 264.62274 -266.2951 L 264.62274 -192.8131 C 264.62274 -189.5471 264.38474 -184.4991 263.90974 -177.6711 Z" stroke="#231f20" stroke-linecap="butt" stroke-linejoin="round" stroke-width="1.5314"/>
      <path d="M 442.04974 -127.70311 L 424.23574 -127.70311 L 376.76074 -190.8531 L 363.13374 -178.7401 L 363.13374 -127.70311 L 347.99174 -127.70311 L 347.99174 -257.9231 L 363.13374 -257.9231 L 363.13374 -193.3481 L 422.18674 -257.9231 L 440.08974 -257.9231 L 387.71674 -201.3641 Z" fill="black"/>
      <path d="M 442.04974 -127.70311 L 424.23574 -127.70311 L 376.76074 -190.8531 L 363.13374 -178.7401 L 363.13374 -127.70311 L 347.99174 -127.70311 L 347.99174 -257.9231 L 363.13374 -257.9231 L 363.13374 -193.3481 L 422.18674 -257.9231 L 440.08974 -257.9231 L 387.71674 -201.3641 Z" stroke="#231f20" stroke-linecap="butt" stroke-linejoin="round" stroke-width="1.5314"/>
      <path d="M 498.96474 -125.92211 C 484.53474 -125.92211 473.14774 -130.31511 464.80574 -139.10411 C 456.46174 -147.89111 452.29074 -160.0931 452.29074 -175.7121 C 452.29074 -191.4461 456.16574 -203.9471 463.91574 -213.2111 C 471.66474 -222.4741 482.06974 -227.1061 495.13474 -227.1061 C 507.36674 -227.1061 517.04574 -223.0831 524.17174 -215.0371 C 531.29674 -206.9901 534.85974 -196.3771 534.85974 -183.1951 L 534.85974 -173.8421 L 467.61074 -173.8421 C 467.90674 -162.3821 470.80174 -153.68211 476.29574 -147.74511 C 481.78774 -141.80711 489.52274 -138.83811 499.49874 -138.83811 C 510.00874 -138.83811 520.39974 -141.03411 530.67274 -145.42911 L 530.67274 -132.24711 C 525.44674 -129.99011 520.50374 -128.37211 515.84274 -127.39311 C 511.17974 -126.41211 505.55574 -125.92211 498.96474 -125.92211 Z M 494.95674 -214.7251 C 487.11774 -214.7251 480.86774 -212.1701 476.20774 -207.0651 C 471.54474 -201.9571 468.79874 -194.8921 467.96674 -185.8661 L 519.00474 -185.8661 C 519.00474 -195.1871 516.92574 -202.3281 512.76974 -207.2871 C 508.61174 -212.2441 502.67474 -214.7251 494.95674 -214.7251 Z" fill="black"/>
      <path d="M 498.96474 -125.92211 C 484.53474 -125.92211 473.14774 -130.31511 464.80574 -139.10411 C 456.46174 -147.89111 452.29074 -160.0931 452.29074 -175.7121 C 452.29074 -191.4461 456.16574 -203.9471 463.91574 -213.2111 C 471.66474 -222.4741 482.06974 -227.1061 495.13474 -227.1061 C 507.36674 -227.1061 517.04574 -223.0831 524.17174 -215.0371 C 531.29674 -206.9901 534.85974 -196.3771 534.85974 -183.1951 L 534.85974 -173.8421 L 467.61074 -173.8421 C 467.90674 -162.3821 470.80174 -153.68211 476.29574 -147.74511 C 481.78774 -141.80711 489.52274 -138.83811 499.49874 -138.83811 C 510.00874 -138.83811 520.39974 -141.03411 530.67274 -145.42911 L 530.67274 -132.24711 C 525.44674 -129.99011 520.50374 -128.37211 515.84274 -127.39311 C 511.17974 -126.41211 505.55574 -125.92211 498.96474 -125.92211 Z M 494.95674 -214.7251 C 487.11774 -214.7251 480.86774 -212.1701 476.20774 -207.0651 C 471.54474 -201.9571 468.79874 -194.8921 467.96674 -185.8661 L 519.00474 -185.8661 C 519.00474 -195.1871 516.92574 -202.3281 512.76974 -207.2871 C 508.61174 -212.2441 502.67474 -214.7251 494.95674 -214.7251 Z" stroke="#231f20" stroke-linecap="butt" stroke-linejoin="round" stroke-width="1.5314"/>
      <path d="M 601.30774 -125.92211 C 586.87674 -125.92211 575.49074 -130.31511 567.14874 -139.10411 C 558.80474 -147.89111 554.63374 -160.0931 554.63374 -175.7121 C 554.63374 -191.4461 558.50874 -203.9471 566.25874 -213.2111 C 574.00674 -222.4741 584.41174 -227.1061 597.47774 -227.1061 C 609.70874 -227.1061 619.38774 -223.0831 626.51374 -215.0371 C 633.63874 -206.9901 637.20174 -196.3771 637.20174 -183.1951 L 637.20174 -173.8421 L 569.95374 -173.8421 C 570.24974 -162.3821 573.14474 -153.68211 578.63774 -147.74511 C 584.12974 -141.80711 591.86474 -138.83811 601.84074 -138.83811 C 612.35174 -138.83811 622.74174 -141.03411 633.01474 -145.42911 L 633.01474 -132.24711 C 627.78974 -129.99011 622.84574 -128.37211 618.18574 -127.39311 C 613.52274 -126.41211 607.89774 -125.92211 601.30774 -125.92211 Z M 597.29874 -214.7251 C 589.45974 -214.7251 583.20974 -212.1701 578.54974 -207.0651 C 573.88674 -201.9571 571.14174 -194.8921 570.30974 -185.8661 L 621.34674 -185.8661 C 621.34674 -195.1871 619.26874 -202.3281 615.11274 -207.2871 C 610.95474 -212.2441 605.01774 -214.7251 597.29874 -214.7251 Z" fill="black"/>
      <path d="M 601.30774 -125.92211 C 586.87674 -125.92211 575.49074 -130.31511 567.14874 -139.10411 C 558.80474 -147.89111 554.63374 -160.0931 554.63374 -175.7121 C 554.63374 -191.4461 558.50874 -203.9471 566.25874 -213.2111 C 574.00674 -222.4741 584.41174 -227.1061 597.47774 -227.1061 C 609.70874 -227.1061 619.38774 -223.0831 626.51374 -215.0371 C 633.63874 -206.9901 637.20174 -196.3771 637.20174 -183.1951 L 637.20174 -173.8421 L 569.95374 -173.8421 C 570.24974 -162.3821 573.14474 -153.68211 578.63774 -147.74511 C 584.12974 -141.80711 591.86474 -138.83811 601.84074 -138.83811 C 612.35174 -138.83811 622.74174 -141.03411 633.01474 -145.42911 L 633.01474 -132.24711 C 627.78974 -129.99011 622.84574 -128.37211 618.18574 -127.39311 C 613.52274 -126.41211 607.89774 -125.92211 601.30774 -125.92211 Z M 597.29874 -214.7251 C 589.45974 -214.7251 583.20974 -212.1701 578.54974 -207.0651 C 573.88674 -201.9571 571.14174 -194.8921 570.30974 -185.8661 L 621.34674 -185.8661 C 621.34674 -195.1871 619.26874 -202.3281 615.11274 -207.2871 C 610.95474 -212.2441 605.01774 -214.7251 597.29874 -214.7251 Z" stroke="#231f20" stroke-linecap="butt" stroke-linejoin="round" stroke-width="1.5314"/>
      <path d="M 707.8337 -125.92211 C 701.47974 -125.92211 695.67474 -127.09511 690.41974 -129.44011 C 685.16474 -131.78511 680.75574 -135.39211 677.19274 -140.26211 L 676.12374 -140.26211 C 676.83774 -134.56211 677.19274 -129.15811 677.19274 -124.05111 L 677.19274 -83.88111 L 662.40674 -83.88111 L 662.40674 -225.3231 L 674.43174 -225.3231 L 676.47974 -211.9631 L 677.19274 -211.9631 C 680.99174 -217.3071 685.41774 -221.1671 690.46374 -223.5421 C 695.50974 -225.9161 701.30074 -227.1051 707.8327 -227.1051 C 720.7757 -227.1051 730.7677 -222.6811 737.8047 -213.8331 C 744.8407 -204.9851 748.3597 -192.5751 748.3597 -176.6031 C 748.3597 -160.5701 744.7817 -148.11411 737.6267 -139.23811 C 730.4717 -130.36011 720.5397 -125.92211 707.8337 -125.92211 Z M 705.69474 -214.5461 C 695.71874 -214.5461 688.50574 -211.7851 684.05074 -206.2631 C 679.59774 -200.7401 677.31074 -191.9521 677.19274 -179.8981 L 677.19274 -176.6031 C 677.19274 -162.8861 679.47774 -153.07311 684.05074 -147.16511 C 688.62274 -141.25511 695.95474 -138.30211 706.05174 -138.30211 C 714.4817 -138.30211 721.0887 -141.71611 725.8687 -148.54511 C 730.6477 -155.37311 733.0387 -164.7841 733.0387 -176.7801 C 733.0387 -188.9521 730.6477 -198.2911 725.8687 -204.7931 C 721.0897 -211.2951 714.3637 -214.5461 705.69474 -214.5461 Z" fill="black"/>
      <path d="M 707.8337 -125.92211 C 701.47974 -125.92211 695.67474 -127.09511 690.41974 -129.44011 C 685.16474 -131.78511 680.75574 -135.39211 677.19274 -140.26211 L 676.12374 -140.26211 C 676.83774 -134.56211 677.19274 -129.15811 677.19274 -124.05111 L 677.19274 -83.88111 L 662.40674 -83.88111 L 662.40674 -225.3231 L 674.43174 -225.3231 L 676.47974 -211.9631 L 677.19274 -211.9631 C 680.99174 -217.3071 685.41774 -221.1671 690.46374 -223.5421 C 695.50974 -225.9161 701.30074 -227.1051 707.8327 -227.1051 C 720.7757 -227.1051 730.7677 -222.6811 737.8047 -213.8331 C 744.8407 -204.9851 748.3597 -192.5751 748.3597 -176.6031 C 748.3597 -160.5701 744.7817 -148.11411 737.6267 -139.23811 C 730.4717 -130.36011 720.5397 -125.92211 707.8337 -125.92211 Z M 705.69474 -214.5461 C 695.71874 -214.5461 688.50574 -211.7851 684.05074 -206.2631 C 679.59774 -200.7401 677.31074 -191.9521 677.19274 -179.8981 L 677.19274 -176.6031 C 677.19274 -162.8861 679.47774 -153.07311 684.05074 -147.16511 C 688.62274 -141.25511 695.95474 -138.30211 706.05174 -138.30211 C 714.4817 -138.30211 721.0887 -141.71611 725.8687 -148.54511 C 730.6477 -155.37311 733.0387 -164.7841 733.0387 -176.7801 C 733.0387 -188.9521 730.6477 -198.2911 725.8687 -204.7931 C 721.0897 -211.2951 714.3637 -214.5461 705.69474 -214.5461 Z" stroke="#231f20" stroke-linecap="butt" stroke-linejoin="round" stroke-width="1.5314"/>
      <path d="M 815.4297 -125.92211 C 800.9987 -125.92211 789.6127 -130.31511 781.2707 -139.10411 C 772.9277 -147.89111 768.7567 -160.0931 768.7567 -175.7121 C 768.7567 -191.4461 772.6307 -203.9471 780.3807 -213.2111 C 788.1287 -222.4741 798.5347 -227.1061 811.5997 -227.1061 C 823.8307 -227.1061 833.5107 -223.0831 840.6367 -215.0371 C 847.7607 -206.9901 851.3247 -196.3771 851.3247 -183.1951 L 851.3247 -173.8421 L 784.0757 -173.8421 C 784.3717 -162.3821 787.2667 -153.68211 792.7607 -147.74511 C 798.2517 -141.80711 805.9877 -138.83811 815.9637 -138.83811 C 826.4737 -138.83811 836.8647 -141.03411 847.1377 -145.42911 L 847.1377 -132.24711 C 841.9117 -129.99011 836.9677 -128.37211 832.3077 -127.39311 C 827.6457 -126.41211 822.0207 -125.92211 815.4297 -125.92211 Z M 811.4217 -214.7251 C 803.5817 -214.7251 797.3327 -212.1701 792.6727 -207.0651 C 788.0097 -201.9571 785.2637 -194.8921 784.4327 -185.8661 L 835.4697 -185.8661 C 835.4697 -195.1871 833.3907 -202.3281 829.2347 -207.2871 C 825.0767 -212.2441 819.1397 -214.7251 811.4217 -214.7251 Z" fill="black"/>
      <path d="M 815.4297 -125.92211 C 800.9987 -125.92211 789.6127 -130.31511 781.2707 -139.10411 C 772.9277 -147.89111 768.7567 -160.0931 768.7567 -175.7121 C 768.7567 -191.4461 772.6307 -203.9471 780.3807 -213.2111 C 788.1287 -222.4741 798.5347 -227.1061 811.5997 -227.1061 C 823.8307 -227.1061 833.5107 -223.0831 840.6367 -215.0371 C 847.7607 -206.9901 851.3247 -196.3771 851.3247 -183.1951 L 851.3247 -173.8421 L 784.0757 -173.8421 C 784.3717 -162.3821 787.2667 -153.68211 792.7607 -147.74511 C 798.2517 -141.80711 805.9877 -138.83811 815.9637 -138.83811 C 826.4737 -138.83811 836.8647 -141.03411 847.1377 -145.42911 L 847.1377 -132.24711 C 841.9117 -129.99011 836.9677 -128.37211 832.3077 -127.39311 C 827.6457 -126.41211 822.0207 -125.92211 815.4297 -125.92211 Z M 811.4217 -214.7251 C 803.5817 -214.7251 797.3327 -212.1701 792.6727 -207.0651 C 788.0097 -201.9571 785.2637 -194.8921 784.4327 -185.8661 L 835.4697 -185.8661 C 835.4697 -195.1871 833.3907 -202.3281 829.2347 -207.2871 C 825.0767 -212.2441 819.1397 -214.7251 811.4217 -214.7251 Z" stroke="#231f20" stroke-linecap="butt" stroke-linejoin="round" stroke-width="1.5314"/>
      <path d="M 921.0667 -227.1051 C 925.4007 -227.1051 929.2907 -226.7491 932.7347 -226.0361 L 930.6877 -212.3191 C 926.6477 -213.2111 923.0847 -213.6551 919.9997 -213.6551 C 912.1007 -213.6551 905.3467 -210.4481 899.7347 -204.0361 C 894.1237 -197.6221 891.3177 -189.6361 891.3177 -180.0761 L 891.3177 -127.70311 L 876.5327 -127.70311 L 876.5327 -225.3231 L 888.7357 -225.3231 L 890.4267 -207.2421 L 891.1397 -207.2421 C 894.7607 -213.5951 899.1257 -218.4941 904.2337 -221.9381 C 909.3387 -225.3821 914.9497 -227.1051 921.0667 -227.1051 Z" fill="black"/>
      <path d="M 921.0667 -227.1051 C 925.4007 -227.1051 929.2907 -226.7491 932.7347 -226.0361 L 930.6877 -212.3191 C 926.6477 -213.2111 923.0847 -213.6551 919.9997 -213.6551 C 912.1007 -213.6551 905.3467 -210.4481 899.7347 -204.0361 C 894.1237 -197.6221 891.3177 -189.6361 891.3177 -180.0761 L 891.3177 -127.70311 L 876.5327 -127.70311 L 876.5327 -225.3231 L 888.7357 -225.3231 L 890.4267 -207.2421 L 891.1397 -207.2421 C 894.7607 -213.5951 899.1257 -218.4941 904.2337 -221.9381 C 909.3387 -225.3821 914.9497 -227.1051 921.0667 -227.1051 Z" stroke="#231f20" stroke-linecap="butt" stroke-linejoin="round" stroke-width="1.5314"/>
      <path d="M 58.07774 -255.8881 L 55.73374 -269.2491 L 39.65974 -269.2491 L 32.506742 -255.8881 L 26.961742 -255.8881 L 50.49674 -299.1861 L 55.51074 -299.1861 L 63.68274 -255.8881 Z M 54.85974 -274.1161 L 52.71674 -286.6211 C 52.66074 -286.9751 52.59574 -287.4081 52.51974 -287.9191 C 52.44274 -288.4291 52.36874 -288.9811 52.29674 -289.5701 C 52.22474 -290.1591 52.15574 -290.7741 52.09274 -291.4131 C 52.02974 -292.0521 51.97274 -292.6761 51.92474 -293.2861 C 51.67874 -292.6761 51.40974 -292.0471 51.11674 -291.3981 C 50.82474 -290.7491 50.53674 -290.1251 50.25374 -289.5241 C 49.96974 -288.9241 49.69974 -288.3741 49.44374 -287.8731 C 49.18774 -287.3721 48.97074 -286.9541 48.79374 -286.6191 L 42.29374 -274.1141 L 54.85974 -274.1141 Z" fill="black"/>
      <path d="M 83.33874 -255.2981 C 82.17774 -255.2981 81.14874 -255.4251 80.25074 -255.6811 C 79.35274 -255.9361 78.56274 -256.2761 77.88074 -256.6991 C 77.19874 -257.1221 76.61874 -257.6181 76.13974 -258.1891 C 75.66074 -258.7591 75.25074 -259.3581 74.91074 -259.9881 L 74.55674 -259.9881 C 74.49674 -259.3191 74.44274 -258.6801 74.39274 -258.0711 C 74.34074 -257.5601 74.28574 -257.0341 74.22974 -256.4931 C 74.17274 -255.9511 74.11674 -255.5251 74.06074 -255.2101 L 71.60274 -241.3771 L 66.23474 -241.3771 L 74.56974 -288.2741 L 78.93574 -288.2741 L 78.92674 -283.9091 L 79.16274 -283.9091 C 79.73774 -284.5971 80.36274 -285.2411 81.03974 -285.8411 C 81.71674 -286.4411 82.47274 -286.9621 83.30874 -287.4041 C 84.14374 -287.8471 85.05774 -288.2001 86.04874 -288.4661 C 87.03974 -288.7321 88.12574 -288.8641 89.30574 -288.8641 C 91.15374 -288.8641 92.77174 -288.5101 94.16074 -287.8021 C 95.54774 -287.0941 96.65274 -286.0361 97.47574 -284.6311 C 98.29774 -283.2251 98.81774 -281.4801 99.03674 -279.3961 C 99.25674 -277.3121 99.12074 -274.8931 98.63274 -272.1401 C 98.13974 -269.3681 97.41274 -266.9341 96.45074 -264.8401 C 95.48874 -262.7461 94.34574 -260.9911 93.02274 -259.5761 C 91.69874 -258.1601 90.21574 -257.0931 88.57574 -256.3761 C 86.93174 -255.6571 85.18674 -255.2981 83.33874 -255.2981 Z M 87.47974 -284.4091 C 85.98574 -284.4091 84.68174 -284.1821 83.56974 -283.7311 C 82.45674 -283.2781 81.49874 -282.5901 80.69574 -281.6661 C 79.89274 -280.7421 79.21574 -279.5921 78.66674 -278.2151 C 78.11674 -276.8391 77.65774 -275.2161 77.28474 -273.3491 L 77.06974 -272.1401 C 76.71674 -270.1541 76.53674 -268.3901 76.52774 -266.8461 C 76.51874 -265.3021 76.73974 -264.0041 77.19174 -262.9521 C 77.64374 -261.9001 78.35274 -261.1031 79.31774 -260.5631 C 80.28374 -260.0211 81.56274 -259.7521 83.15474 -259.7521 C 85.80974 -259.7521 87.95174 -260.8231 89.58174 -262.9671 C 91.20974 -265.1101 92.38174 -268.1871 93.09574 -272.1981 C 93.82274 -276.2871 93.74074 -279.3451 92.85274 -281.3711 C 91.96474 -283.3961 90.17474 -284.4091 87.47974 -284.4091 Z" fill="black"/>
      <path d="M 122.46474 -255.8881 L 122.17074 -260.3711 L 121.93474 -260.3711 C 121.12874 -259.4861 120.34474 -258.7241 119.58174 -258.0851 C 118.81874 -257.4451 118.01774 -256.9201 117.17674 -256.5061 C 116.33674 -256.0931 115.42774 -255.7891 114.44774 -255.5921 C 113.46874 -255.3961 112.36074 -255.2971 111.12174 -255.2971 C 109.76574 -255.2971 108.55074 -255.4881 107.47774 -255.8721 C 106.40574 -256.2561 105.52174 -256.8461 104.82874 -257.6421 C 104.13474 -258.4381 103.65974 -259.4411 103.40174 -260.6501 C 103.14474 -261.8601 103.16374 -263.2901 103.45674 -264.9421 C 104.03074 -268.1671 105.60574 -270.6441 108.18474 -272.3751 C 110.76274 -274.1051 114.38574 -275.0491 119.05474 -275.2071 L 124.51874 -275.4141 L 124.88074 -277.4491 C 125.11474 -278.7661 125.16774 -279.8671 125.03974 -280.7531 C 124.91274 -281.6381 124.62574 -282.3501 124.18174 -282.8911 C 123.73674 -283.4321 123.13774 -283.8211 122.38274 -284.0561 C 121.62874 -284.2921 120.74074 -284.4101 119.71774 -284.4101 C 118.08574 -284.4101 116.52374 -284.1741 115.03474 -283.7021 C 113.54474 -283.2301 112.09074 -282.6601 110.67574 -281.9911 L 109.50574 -286.0321 C 111.10074 -286.8191 112.84174 -287.4871 114.72974 -288.0371 C 116.61674 -288.5871 118.54274 -288.8631 120.50974 -288.8631 C 122.51474 -288.8631 124.21374 -288.6611 125.60774 -288.2581 C 127.00074 -287.8551 128.09674 -287.2161 128.89374 -286.3411 C 129.69274 -285.4661 130.20674 -284.3501 130.43774 -282.9931 C 130.66874 -281.6371 130.61274 -279.9941 130.27074 -278.0671 L 126.32874 -255.8871 L 122.46474 -255.8871 Z M 113.27974 -259.6331 C 114.47974 -259.6331 115.62374 -259.8201 116.71274 -260.1941 C 117.80074 -260.5671 118.78674 -261.1321 119.66874 -261.8901 C 120.55074 -262.6471 121.30374 -263.6011 121.93274 -264.7511 C 122.55874 -265.9011 123.01074 -267.2531 123.28774 -268.8071 L 123.80674 -271.7271 L 119.55274 -271.5201 C 117.76874 -271.4411 116.24874 -271.2441 114.99474 -270.9301 C 113.73874 -270.6151 112.70274 -270.1781 111.88474 -269.6171 C 111.06674 -269.0571 110.42974 -268.3791 109.97474 -267.5821 C 109.51774 -266.7861 109.20174 -265.8861 109.02374 -264.8831 C 108.70174 -263.0731 108.94174 -261.7461 109.74574 -260.9011 C 110.54774 -260.0561 111.72674 -259.6331 113.27974 -259.6331 Z" fill="black"/>
      <path d="M 148.55174 -255.2981 C 146.56574 -255.2981 144.76174 -255.6081 143.14274 -256.2271 C 141.52174 -256.8461 140.19274 -257.8301 139.15374 -259.1761 C 138.11374 -260.5231 137.41774 -262.2431 137.06274 -264.3381 C 136.70674 -266.4321 136.79174 -268.9541 137.31574 -271.9031 C 137.86474 -274.9901 138.70374 -277.6111 139.83374 -279.7631 C 140.96374 -281.9171 142.30174 -283.6661 143.84974 -285.0131 C 145.39674 -286.3601 147.09974 -287.3391 148.95774 -287.9481 C 150.81574 -288.5571 152.74774 -288.8631 154.75374 -288.8631 C 156.28774 -288.8631 157.75674 -288.6961 159.16274 -288.3621 C 160.56774 -288.0281 161.71774 -287.6151 162.61474 -287.1241 L 160.21574 -282.5811 C 159.79774 -282.7781 159.33074 -282.9691 158.81374 -283.1561 C 158.29574 -283.3431 157.75574 -283.5101 157.19174 -283.6571 C 156.62774 -283.8041 156.06874 -283.9231 155.51474 -284.0111 C 154.95974 -284.1001 154.42674 -284.1441 153.91574 -284.1441 C 150.82874 -284.1441 148.40174 -283.1561 146.63474 -281.1801 C 144.86674 -279.2031 143.61374 -276.1311 142.87274 -271.9621 C 142.13574 -267.8141 142.30974 -264.7811 143.39374 -262.8631 C 144.47874 -260.9461 146.47574 -259.9881 149.38574 -259.9881 C 150.97874 -259.9881 152.45074 -260.1701 153.80374 -260.5331 C 155.15574 -260.8971 156.40674 -261.3251 157.55474 -261.8161 L 156.70574 -257.0381 C 155.54174 -256.4681 154.33074 -256.0351 153.06774 -255.7411 C 151.80774 -255.4451 150.30174 -255.2981 148.55174 -255.2981 Z" fill="black"/>
      <path d="M 184.46274 -255.8881 L 188.16974 -276.7411 C 188.62374 -279.2971 188.44874 -281.2141 187.64374 -282.4931 C 186.83974 -283.7711 185.33474 -284.4101 183.13374 -284.4101 C 181.54074 -284.4101 180.15774 -284.1541 178.98574 -283.6431 C 177.81274 -283.1311 176.80874 -282.3751 175.97174 -281.3721 C 175.13474 -280.3691 174.44474 -279.1401 173.90074 -277.6851 C 173.35774 -276.2301 172.91774 -274.5591 172.58174 -272.6711 L 169.59874 -255.8881 L 164.23074 -255.8881 L 172.38774 -301.7821 L 177.75574 -301.7821 L 175.33374 -288.1551 L 174.34274 -283.9081 L 174.63674 -283.9081 C 175.27874 -284.7541 175.99474 -285.4861 176.78274 -286.1051 C 177.57074 -286.7241 178.40474 -287.2401 179.28474 -287.6541 C 180.16374 -288.0671 181.07374 -288.3711 182.01374 -288.5681 C 182.95174 -288.7651 183.89474 -288.8631 184.83874 -288.8631 C 188.43674 -288.8631 190.97874 -287.9241 192.46374 -286.0461 C 193.94874 -284.1681 194.32374 -281.1651 193.59074 -277.0361 L 189.83174 -255.8881 Z" fill="black"/>
      <path d="M 212.49674 -255.2981 C 210.33274 -255.2981 208.42174 -255.6621 206.76174 -256.3891 C 205.10174 -257.1161 203.75174 -258.1781 202.71174 -259.5751 C 201.67174 -260.9711 200.98274 -262.7011 200.64074 -264.7661 C 200.30074 -266.8301 200.36574 -269.1901 200.83774 -271.8441 C 201.31274 -274.5181 202.06174 -276.9071 203.08474 -279.0111 C 204.10774 -281.1151 205.33774 -282.8991 206.77874 -284.3651 C 208.21874 -285.8291 209.82774 -286.9461 211.60774 -287.7131 C 213.38474 -288.4791 215.26674 -288.8631 217.25374 -288.8631 C 219.19974 -288.8631 220.88874 -288.5141 222.31674 -287.8161 C 223.74574 -287.1181 224.88874 -286.1341 225.74574 -284.8661 C 226.60174 -283.5981 227.16174 -282.0741 227.42574 -280.2941 C 227.68774 -278.5141 227.62874 -276.5431 227.24374 -274.3801 L 226.65074 -271.0471 L 206.24074 -271.0471 C 205.66374 -267.2531 205.96974 -264.4601 207.15674 -262.6711 C 208.34174 -260.8811 210.41974 -259.9871 213.38874 -259.9871 C 214.39174 -259.9871 215.32874 -260.0351 216.20274 -260.1341 C 217.07574 -260.2321 217.92674 -260.3751 218.75574 -260.5621 C 219.58574 -260.7491 220.39974 -260.9841 221.19674 -261.2701 C 221.99374 -261.5541 222.80774 -261.8741 223.63774 -262.2291 L 222.78874 -257.4511 C 221.93474 -257.0771 221.10574 -256.7531 220.29974 -256.4771 C 219.49374 -256.2011 218.67674 -255.9761 217.84874 -255.7991 C 217.02074 -255.6221 216.17374 -255.4941 215.30374 -255.4151 C 214.43474 -255.3371 213.49874 -255.2981 212.49674 -255.2981 Z M 216.34374 -284.4091 C 214.10174 -284.4091 212.19074 -283.6421 210.61174 -282.1081 C 209.02974 -280.5741 207.87174 -278.3421 207.13474 -275.4131 L 221.64574 -275.4131 C 221.88374 -276.7501 221.96874 -277.9741 221.90074 -279.0851 C 221.83274 -280.1951 221.58774 -281.1441 221.16774 -281.9311 C 220.74774 -282.7181 220.14174 -283.3271 219.35374 -283.7601 C 218.56574 -284.1921 217.56274 -284.4091 216.34374 -284.4091 Z" fill="black"/>
      <path d="M -138.18826 5.4688906 L -141.75626 3.1718906 C -145.43126 -6.614109 -149.26026 -16.66011 -153.36426 -27.08911 C -153.36426 -27.36411 -153.36426 -27.65511 -153.37926 -27.96211 C -153.50226 -31.28511 -156.82526 -40.21311 -156.94726 -41.74511 C -157.02426 -42.63311 -156.61026 -43.36911 -156.10526 -43.70511 C -148.41826 -24.27111 -142.70626 -8.084109 -138.18826 5.4688906 Z" fill="#f4dcc9"/>
      <path d="M -150.82326 -42.24911 C -150.05726 -40.21211 -149.41426 -36.50611 -150.05726 -36.64411 C -150.70026 -36.76711 -154.26826 -43.27511 -155.03426 -43.78011 C -155.35526 -43.99411 -155.75426 -43.94811 -156.10626 -43.70411 C -181.83426 -108.75811 -229.69026 -210.1671 -328.98626 -370.7191 C -329.06326 -370.8571 -329.15426 -370.9791 -329.23126 -371.1171 L -329.59926 -370.9331 C -330.24226 -372.6481 -332.93726 -376.3541 -332.93726 -376.3541 C -332.93726 -376.3541 -330.64026 -377.5021 -329.49126 -376.7371 C -328.34226 -375.9721 -234.16126 -232.0201 -201.61926 -165.0211 C -201.61926 -165.0211 -171.37426 -98.78811 -169.07726 -93.81111 C -169.07726 -93.81111 -168.81626 -77.85311 -168.31126 -76.96511 C -167.79026 -76.07711 -166.13726 -89.72211 -165.11026 -90.10511 C -164.09926 -90.48811 -164.34426 -82.06511 -163.57926 -81.43711 C -162.81326 -80.79411 -162.56826 -84.50011 -162.43126 -83.09111 C -162.30826 -81.68211 -162.56926 -61.00811 -161.92626 -61.00811 C -161.28326 -61.14611 -159.50726 -69.69111 -158.86326 -70.71711 C -158.22026 -71.72811 -157.07126 -64.97411 -157.33226 -59.23211 C -157.59326 -53.49011 -157.20926 -53.10611 -156.94926 -54.11711 C -156.68926 -55.14311 -154.65226 -63.44411 -154.00926 -64.20911 C -153.38126 -64.97511 -152.86126 -57.94511 -153.50426 -55.64811 C -154.14726 -53.35111 -156.69026 -50.28811 -155.67926 -48.89511 C -154.65126 -47.48611 -151.58826 -44.30111 -150.82326 -42.24911 Z" fill="url(#Obj_Gradient)"/>
      <path d="M -160.79226 -44.85311 L -160.51726 -44.97611 C -158.02026 -38.88111 -155.64726 -32.92411 -153.36526 -27.08911 C -153.30426 -24.34811 -153.62526 -22.98511 -153.62526 -22.98511 C -153.62526 -22.98511 -155.41726 -27.31911 -156.44326 -29.37111 C -156.44326 -29.37111 -157.20926 -23.49011 -156.06026 -19.66211 C -154.91226 -15.83411 -153.50226 -10.091109 -154.52926 -10.612109 C -155.54026 -11.11711 -159.62826 -20.94911 -159.50626 -24.01211 C -159.36826 -27.07511 -159.50626 -36.00311 -159.50626 -36.76811 C -159.50626 -37.53311 -160.39426 -40.47411 -161.16026 -37.91611 C -161.92626 -35.35911 -163.96226 -24.77711 -163.57926 -20.94811 C -163.19626 -17.11911 -163.19626 -12.90811 -163.71726 -13.15311 C -164.22226 -13.41311 -167.16326 -24.25611 -166.13726 -29.87611 C -165.11126 -35.49611 -165.24926 -39.32511 -166.01426 -37.91611 C -166.78026 -36.50711 -170.99126 -29.75411 -173.67126 -29.37111 C -176.35126 -28.98811 -178.51026 -29.75411 -176.59626 -31.14711 C -174.68126 -32.55611 -167.54526 -39.70811 -166.13726 -42.89311 C -166.13726 -42.89311 -163.84026 -48.89611 -166.90326 -44.80811 C -169.96626 -40.72011 -175.70926 -34.21011 -181.06926 -35.23711 C -186.42926 -36.26311 -192.29426 -39.95411 -188.84826 -39.83111 C -185.40326 -39.70811 -180.56326 -39.44811 -178.89426 -41.74511 C -177.24026 -44.04211 -176.98026 -46.84511 -179.53826 -45.95611 C -182.09526 -45.06811 -186.42926 -43.27611 -187.70026 -43.15311 C -188.98726 -43.01511 -195.49526 -50.42711 -199.32426 -51.69811 C -203.15226 -52.96911 -201.23826 -54.37811 -199.56926 -53.99511 C -197.91526 -53.61211 -190.90226 -53.35111 -189.75326 -54.37811 C -188.60426 -55.40411 -186.17026 -57.56311 -191.02426 -57.70111 C -195.87826 -57.82411 -200.97826 -59.09511 -207.74726 -65.98611 C -214.50026 -72.87711 -252.40326 -146.13911 -256.36926 -152.64811 C -260.32026 -159.1561 -260.70326 -158.8961 -259.81526 -159.0191 C -258.91126 -159.1571 -255.46626 -159.1571 -255.72626 -160.0451 C -255.98626 -160.9331 -259.43226 -160.8111 -260.58026 -161.5761 C -261.72826 -162.3411 -261.20826 -164.3791 -258.02226 -164.1341 C -254.83726 -163.8741 -248.57326 -166.4311 -256.10826 -167.8241 C -263.64326 -169.2331 -263.88726 -168.3451 -268.35926 -177.0121 C -270.45726 -181.0711 -282.44826 -206.5991 -294.66826 -232.8931 C -296.68926 -239.9831 -307.59326 -286.2631 -304.73026 -290.2131 C -301.66726 -294.4241 -285.20526 -264.1791 -269.50826 -235.0831 C -253.81126 -205.9871 -212.84626 -138.60511 -201.36126 -118.69711 C -190.05726 -99.09511 -161.68026 -46.49111 -160.79226 -44.85311 Z" fill="url(#Obj_Gradient_2)"/>
      <path d="M -153.38026 -27.96111 C -153.36526 -27.65511 -153.36526 -27.36411 -153.36526 -27.08811 C -155.64726 -32.92211 -158.02026 -38.88011 -160.51726 -44.97511 C -190.57826 -118.97211 -235.70826 -214.1801 -328.98626 -370.7191 C -229.69026 -210.1671 -181.83326 -108.75811 -156.10626 -43.70411 C -156.61126 -43.36711 -157.02526 -42.63211 -156.94826 -41.74411 C -156.82626 -40.21211 -153.50226 -31.28411 -153.38026 -27.96111 Z" fill="#f4dcc9"/>
      <path d="M -160.51626 -44.97511 L -160.79126 -44.85211 C -161.67926 -46.49111 -190.05626 -99.09411 -201.35826 -118.69611 C -212.84326 -138.60411 -253.80926 -205.9861 -269.50526 -235.0821 C -285.20126 -264.1781 -301.66426 -294.4241 -304.72726 -290.2121 C -307.59126 -286.2611 -296.68726 -239.9821 -294.66526 -232.8921 C -308.54026 -262.6781 -322.69026 -293.4441 -323.10326 -295.0671 C -323.86926 -298.1301 -323.60826 -299.1401 -321.57126 -298.6351 C -319.53426 -298.1301 -317.23826 -298.3751 -317.23826 -299.6611 C -317.23826 -300.9321 -318.63226 -301.4381 -323.10326 -303.3521 C -327.57426 -305.2661 -331.40326 -319.8141 -333.31726 -327.8541 C -335.23126 -335.8941 -337.00726 -350.1971 -335.23126 -349.1711 C -333.43926 -348.1451 -328.58526 -344.9601 -327.81926 -346.1081 C -327.05326 -347.2561 -328.46326 -349.8141 -333.70026 -353.1221 C -333.70026 -353.1221 -335.99726 -352.9991 -335.35426 -357.5941 C -334.71126 -362.1891 -334.32826 -370.8711 -333.70026 -370.6111 C -333.70026 -370.6111 -329.10626 -369.0791 -329.48926 -370.6111 C -329.52026 -370.7031 -329.55026 -370.8101 -329.59626 -370.9321 L -329.22826 -371.1161 C -329.15126 -370.9781 -329.06026 -370.8561 -328.98326 -370.7181 C -235.70826 -214.1801 -190.57826 -118.97211 -160.51626 -44.97511 Z" fill="url(#Obj_Gradient_3)"/>
    </g>
  </g>
</svg>
