<svg xmlns="http://www.w3.org/2000/svg" preserveAspectRatio="xMidYMid" width="300" height="300" viewBox="0 0 300 300"><defs><style>.cls-1{fill:#477ed0}.cls-1,.cls-2{fill-rule:evenodd}.cls-2{fill:#ec282c}</style></defs><path d="M200.71 212.986s30.992-16.92 30.992-31.11c0-15.418-21.695-21.78-21.695-21.78s31.506.98 30.993 21.78c-.513 20.8-40.29 31.11-40.29 31.11zm-133.27-31.11c-16.357-7.83 34.09-21.78 34.09-21.78-55.978 26.145 19.16 23.408 65.087 18.668 16.03-1.655 34.092-6.222 34.092-6.222-22.414 24.594-116.917 17.16-133.27 9.333zm86.78 56c12.818-1.21 27.893-6.223 27.893-6.223-11.398 16.208-66.415 15.21-80.582 9.333-14.165-5.877-12.395-18.667-12.395-18.667 9.222 12.373 41.632 17.763 65.085 15.554zm30.992-31.112s-67.173 16.486-89.88 6.222c-20.065-9.07-3.1-18.667-3.1-18.667-14.94 19.863 92.98 12.443 92.98 12.443zm-55.787 56c70.265 0 99.178-12.445 99.178-12.445-9.865 26.157-167.828 28.974-182.86 9.332-10.616-13.872 30.993-18.667 30.993-18.667-29.884 15-17.576 21.778 52.69 21.778zm108.476 0c-57.91 40.63-154.964 15.556-154.964 15.556C183.09 286.832 237.9 262.763 237.9 262.763z" class="cls-1"/><path d="M138.723 156.986s-34.712-17.284-30.993-46.667C112.07 76.03 155.655 62.75 165 47c8.356-14.086 4.716-33.125 4.716-33.125s9.12 15.25 6.198 28C171.748 60.055 155.407 70.533 136 83c-14.53 9.334-38.022 19.768 2.723 73.986z" class="cls-2"/><path d="M157.32 166.32s6.465-15.614-9.3-34.223c-15.764-18.608 5.5-52.324 49.59-62.222 0 0-52.903 23.227-40.61 51.125 4.55 10.325 11.537 19.297 8 30-4.915 14.873-7.68 15.32-7.68 15.32z" class="cls-2"/></svg>