<?xml version="1.0" encoding="UTF-8"?>
<!DOCTYPE svg  PUBLIC '-//W3C//DTD SVG 1.1//EN'  'http://www.w3.org/Graphics/SVG/1.1/DTD/svg11.dtd'>
<svg width="801pt" height="801pt" version="1.1" viewBox="-291 -716 801 801" xmlns="http://www.w3.org/2000/svg" xmlns:dc="http://purl.org/dc/elements/1.1/" xmlns:xl="http://www.w3.org/1999/xlink">
  <metadata>Produced by OmniGraffle 7.4.2
    <dc:date>2017-09-12 22:10:18 +0000</dc:date>
  </metadata>
  <defs>
    <linearGradient id="c" x2="1" gradientTransform="translate(-66.355 -756.07) rotate(60.634) scale(877.41)" gradientUnits="userSpaceOnUse">
      <stop stop-color="#683b1b" offset="0"/>
      <stop stop-color="#a1612f" offset=".371"/>
      <stop stop-color="#efa363" offset="1"/>
    </linearGradient>
    <linearGradient id="b" x2="1" gradientTransform="translate(9.1259 -576) rotate(60.634) scale(723.67)" gradientUnits="userSpaceOnUse">
      <stop stop-color="#683b1b" offset="0"/>
      <stop stop-color="#a1612f" offset=".371"/>
      <stop stop-color="#efa363" offset="1"/>
    </linearGradient>
    <linearGradient id="a" x2="1" gradientTransform="translate(-78.9 -742.51) rotate(60.634) scale(840.9)" gradientUnits="userSpaceOnUse">
      <stop stop-color="#683b1b" offset="0"/>
      <stop stop-color="#a1612f" offset=".5161"/>
      <stop stop-color="#bd753d" offset="1"/>
    </linearGradient>
  </defs>
  <g fill="none">
    <title>Canvas 1</title>
    <g>
      <title>Layer 1</title>
      <path d="m470.15 53.898c-14.119-13.501-31.99-29.638-56.016-48.996 1.107-0.23732 2.3516-0.29765 3.3366-0.082458 2.3954 0.50279 13.553 6.9868 15.564 7.1115 2.0108 0.13877 0-3.5577-2.3954-5.585-2.3954-2.0453-11.974-5.221-15.179-6.6228-3.1615-1.3897 4.7876-4.4406 6.7983-6.7314 2.0107-2.2887 0.38463-9.2936-1.5792-8.5293-2.0107 0.76022-8.3806 9.0321-9.1936 10.058-0.81307 1.0056-2.0107 0.62346-1.1977-5.0983 0.813-5.7238-2.7769-12.451-4.7876-11.448-2.0107 1.0217-7.5676 9.5369-9.5783 9.6797-2.0107 0.12067-1.1977-20.606-1.5792-22.008-0.43155-1.4038-1.1977 2.2887-3.5899 1.6492-2.3954-0.62547-1.6292-9.0201-4.7876-8.6379-3.2084 0.38212-8.3806 13.978-10.01 13.093-1.5792-0.88491-2.3954-16.787-2.3954-16.787-7.1829-4.9595-101.76-70.964-101.76-70.964-101.76-66.766-396.27-210.22-399.87-210.98-3.5899-0.76424-10.773 0.38011-10.773 0.38011s9.5783 4.1973 10.773 5.7238c1.1978 1.5245-13.168 0-13.168 0-1.9638-0.25945-3.1615 8.3926-5.1722 12.97-2.0107 4.5794 5.1722 4.4567 5.1722 4.4567 16.377 3.2963 20.783 5.8465 18.387 6.9908-2.3954 1.1444-17.574-2.0293-23.178-3.0509-5.5538-1.0237 0 13.231 5.9883 21.242 5.9853 8.0124 17.959 22.509 31.94 24.418 13.981 1.9066 18.34 2.4114 18.34 3.6784 0 1.2811-7.1829 1.5244-13.553 1.0216-6.3698-0.50277-7.1829 0.5028-4.7876 3.5578 2.3954 3.0509 157.22 108.99 171.2 117.64 13.984 8.6359 14.751 7.751 38.31 9.1548 23.563 1.3897 3.9746 3.9378-5.9853 3.6784-9.9629-0.24537-11.589 1.7839-7.9991 2.5481 3.593 0.76424 14.366 0.64157 15.179 1.5245 0.81306 0.88693-9.9629 0.88693-12.784 1.0217-2.78 0.12468-1.5823-0.13475 10.773 6.3492 12.402 6.484 130.93 79.493 152.05 86.363 21.167 6.8681 37.115 8.1331 52.294 8.2538 15.179 0.13877 7.5676 2.2887 3.9746 3.3104-3.5931 1.0257-25.526 0.76424-30.699 0.38212-5.2191-0.38212-11.204 1.0217 0.76928 2.2887 11.974 1.265 32.325 8.652 36.346 8.5132 3.9745-0.12067 17.527-1.9066 25.526-2.7915 7.996-0.8829 7.1829 1.9066 2.0107 4.1953-5.2191 2.2887-20.354 2.0293-31.127 1.9066-10.776-0.12067 7.5644 3.5577 24.326 4.5794 16.761 1.0237 34.72-5.4623 44.298-9.5409 9.5783-4.0726 2.3954 1.9106 2.3954 1.9106-4.4061 3.1736-26.721 10.299-32.706 11.705-5.9853 1.3857 0.76926 2.1499 9.1467 1.7678 8.3806-0.38212 21.552-7.1094 23.944-8.5153 2.3954-1.4038 2.8238 2.4094-0.3846 8.0105-3.2084 5.6031 5.9884 16.407 7.5675 16.668 1.6292 0.24134 1.6292-3.956 0.43153-7.7691-1.1977-3.8172 5.1722-14.362 7.5676-16.91 2.3954-2.5502 5.1722 0.3781 5.1722 1.1423s0.43156 9.6616 0 12.715c-0.38464 3.0529 12.402 12.849 15.564 13.352 3.2084 0.51888-1.1977-5.2009-4.7876-9.018-3.593-3.8132-1.1977-9.6757-1.1977-9.6757 3.2084 2.0454 8.809 6.3653 8.809 6.3653s0.9694-1.3676 0.83495-4.0927c12.818 10.398 24.807 20.409 36.277 30.157z" fill="#a7a9ac"/>
      <path d="m-106.36-359.53l-140.5 7.8174 3.0395 3.234c0.75052 0.78635 0.02811 1.4219-2.1545 1.9066-2.2109 0.48467-5.3599 0.84067-9.447 1.074-3.9965 0.22926-7.4144 0.2373-10.226 0.0382-2.7988-0.1991-4.5124-0.7039-5.1316-1.5084l-7.2986-9.4263c-0.54099-0.7059 0.24079-1.265 2.3609-1.6914 2.1077-0.42033 5.0471-0.73406 8.8153-0.94323 3.6806-0.1971 6.8108-0.2152 9.4157-0.04426 2.6111 0.16291 4.2372 0.59331 4.8939 1.2892l2.8175 2.9946 105.78-5.8243-9.9223-2.1942c-1.601-0.34393-2.5517-0.61339-2.8737-0.80849-0.55351-0.34591 0.1782-0.70994 2.217-1.1001 2.0295-0.37809 4.8189-0.66771 8.3525-0.85673 3.2084-0.16694 5.8946-0.22124 8.0522-0.1388 2.1702 0.0865 4.4749 0.38212 6.9421 0.89095z" fill="#a7a9ac"/>
      <path d="m-69.059-339.86l-157.74 9.4082 3.9026 4.1349c0.95998 1.0156 0.23766 1.8362-2.2077 2.4456-2.436 0.61943-5.9759 1.0639-10.595 1.3454-4.525 0.27555-8.4025 0.27555-11.636 0.00605-3.2178-0.2715-5.2285-0.92915-6.0196-1.9569l-9.3219-12.033c-0.68177-0.89093 0.1376-1.6009 2.483-2.1278 2.3203-0.52289 5.6006-0.91105 9.8222-1.1504 4.1278-0.24337 7.6582-0.2494 10.601-0.0302 2.9613 0.21722 4.8564 0.76424 5.6851 1.6431l3.5899 3.7951 118.56-6.9808-11.68-2.7976c-1.8887-0.42835-3.0114-0.7763-3.396-1.0237-0.71611-0.43239 0.04378-0.88894 2.2578-1.3595 2.2046-0.47462 5.2723-0.82055 9.2093-1.0478 3.5836-0.20714 6.5982-0.2514 9.0467-0.14883 2.4548 0.11063 5.1409 0.49473 8.0335 1.1383z" fill="#a7a9ac"/>
      <path d="m-97.706-299.84l-37.775 2.516c-22.628 1.5104-45.549 1.8885-68.408 1.1443-22.584-0.73203-35.224-3.0248-38.032-6.7756-1.5792-2.0996 0.07821-4.0324 4.8689-5.8082 4.7314-1.7437 14.291-3.6985 28.582-5.8525 14.059-2.1177 29.398-3.6864 46.137-4.7242l34.138-2.1338c19.935-1.2369 40.299-1.6029 61.369-1.088 21.28 0.51082 35.017 2.3611 41.187 5.6111 3.6243 1.9146 3.9339 3.7387 0.86308 5.4864-3.1209 1.7739-11.358 3.8272-24.835 6.1884-13.747 2.3993-29.807 4.2174-48.095 5.4361zm-7.6114-5.3959c18.062-1.1866 32.522-2.9926 43.32-5.3859 5.8164-1.3354 7.3893-2.7573 4.7938-4.2657-2.4767-1.444-8.3744-2.3591-17.64-2.7653-13.919-0.59934-29.485-0.34794-46.916 0.75619l-34.905 2.2022c-17.546 1.1102-32.109 2.8257-43.77 5.1666-6.5919 1.3072-9.1842 2.7774-7.6895 4.3984 1.4291 1.5606 6.8389 2.5924 16.223 3.069 14.31 0.71998 30.952 0.4666 49.714-0.76627z" fill="#a7a9ac"/>
      <path d="m43.501-280.47l-208.98 15.039 7.1986 7.6303c1.7856 1.8865 1.157 3.3908-1.9263 4.497-3.1052 1.1202-7.7865 1.9146-14.056 2.3812-6.1416 0.45051-11.526 0.40827-16.092-0.14077-4.5499-0.54302-7.5613-1.7859-9.0529-3.7106l-17.002-21.956c-1.2289-1.5908-0.3658-2.8358 2.5924-3.7367 2.9488-0.89297 7.1829-1.5325 12.746-1.9166 5.4255-0.37207 10.147-0.34996 14.181 0.07038 4.0496 0.4123 6.8108 1.3917 8.2774 2.9604l6.4074 6.7977 156.41-11.045-17.665-5.0158c-2.8112-0.7763-4.5562-1.3817-5.2535-1.8181-1.232-0.76023-0.52222-1.5426 2.139-2.335 2.6236-0.78836 6.4887-1.3575 11.592-1.7095 4.6343-0.31777 8.6308-0.364 11.986-0.14882 3.3648 0.21115 7.2079 0.89295 11.567 2.0353z" fill="#a7a9ac"/>
      <path d="m36.919-204.33l-53.376 4.5955c-32.15 2.7634-65.547 3.1877-99.47 1.247-33.363-1.8905-52.795-6.8138-58.545-14.48-3.1896-4.2476-1.6668-8.0728 4.3654-11.514 5.9196-3.3667 18.537-7.0451 37.613-11.023 18.638-3.8775 39.27-6.669 62.123-8.4328l46.419-3.5799c27.006-2.0836 55.237-2.5059 85.273-1.263 30.47 1.263 51.688 4.9716 63.721 11.323 7.1329 3.7609 9.497 7.3528 6.889 10.752-2.6893 3.4753-12.502 7.4674-29.751 12.013-17.731 4.6699-39.533 8.1392-65.259 10.364zm-15.714-11.144c25.173-2.1117 44.495-5.5166 57.851-10.12 7.1235-2.5441 8.0272-5.3175 2.8769-8.3161-4.8814-2.8358-14.094-4.692-27.622-5.6031-20.232-1.3435-42.069-1.08-65.863 0.79842l-47.838 3.7729c-24.138 1.9126-43.764 5.036-59.024 9.4706-8.6808 2.5039-11.605 5.3798-8.6058 8.65 2.902 3.1616 11.258 5.3215 25.095 6.4317 21.18 1.7034 45.158 1.444 71.532-0.76626z" fill="#a7a9ac"/>
      <path d="m161.88-115.68l-67.207 7.0652c-40.671 4.2717-83.966 4.6357-128.67 1.1303-43.739-3.4371-70.147-11.651-79.481-24.106-5.1097-6.8239-4.134-12.89 2.6455-18.261 6.6107-5.225 21.533-10.868 44.383-16.886 22.187-5.8364 47.082-9.9613 75.01-12.485l56.557-5.1063c32.809-2.9584 67.827-3.3868 105.92-1.2831 38.773 2.1399 67.392 7.9662 86.139 17.845 11.214 5.9168 16.311 11.566 14.966 16.892-1.3979 5.4844-11.683 11.775-31.299 18.927-20.307 7.4051-46.697 12.879-78.959 16.268zm-25.686-18.227c31.299-3.1676 54.343-8.4348 69.012-15.645 7.7395-3.954 7.4112-8.3001-0.7036-13.024-7.6551-4.4607-20.232-7.395-37.731-8.8994-26.114-2.2324-53.445-1.989-82.527 0.71598l-58.689 5.4704c-29.707 2.7694-53.401 7.4875-71.285 14.309-10.241 3.8755-13.077 8.4127-8.2868 13.63 4.6813 5.0903 16.029 8.642 34.142 10.561 27.803 2.9343 58.592 2.7271 91.639-0.60737z" fill="#a7a9ac"/>
      <path d="m504.23-37.449l-405.5 52.067 33.607 35.638c8.6902 9.2131 11.029 16.524 6.7045 21.779-4.3842 5.3778-13.3 9.008-26.752 10.915-13.231 1.8744-25.855 1.2369-37.706-1.8804-11.727-3.0751-21.324-9.4967-28.707-19.058l-75.835-97.944c-4.9658-6.4096-5.0628-11.23-0.44402-14.605 4.5718-3.3305 12.105-5.5769 22.687-6.7676 10.31-1.1423 19.838-0.84469 28.666 0.94122 8.9059 1.81 16.236 5.76 22.08 11.946l26.327 27.921 298.94-36.416-51.534-20.031c-7.9397-3.0188-13.193-5.3396-15.804-6.9747-4.6218-2.8659-5.3598-5.6755-2.2796-8.4328 3.0426-2.7191 9.1467-4.5874 18.278-5.6212 8.29-0.93519 16.064-0.94927 23.369-0.03621 7.3362 0.93118 17.014 3.5316 29.248 7.8898z" fill="#a7a9ac"/>
      <path d="m-127.38-374.37l-133.87 9.3781 2.9458 2.892c0.72229 0.7019 0.05315 1.2912-2.0076 1.7658-2.0857 0.47664-5.0596 0.84871-8.9246 1.1222-3.7776 0.26952-7.011 0.32783-9.6721 0.19106-2.6487-0.13876-4.281-0.56916-4.8783-1.2912l-7.0547-8.4308c-0.52536-0.62949 0.20327-1.1504 2.2015-1.5687 1.9794-0.4143 4.7469-0.74616 8.2993-0.99552 3.471-0.23934 6.4324-0.3037 8.8965-0.19309 2.4705 0.10459 4.0184 0.47065 4.65 1.092l2.7237 2.6708 100.55-7.0049-9.5533-1.8362c-1.5416-0.2876-2.4579-0.5169-2.7675-0.68984-0.54097-0.30571 0.15007-0.64761 2.0858-1.0398 1.9325-0.3781 4.5906-0.68784 7.9646-0.91912 3.0646-0.20714 5.635-0.29968 7.702-0.25944 2.0827 0.04424 4.2998 0.27552 6.6764 0.69786z" fill="#000"/>
      <path d="m-90.758-356.94l-151.02 10.991 3.7963 3.7146c0.9381 0.9151 0.26585 1.6753-2.0451 2.2646-2.3047 0.60134-5.6632 1.0599-10.05 1.3817-4.2935 0.31575-7.9772 0.3741-11.048 0.17297-3.0614-0.20313-4.9783-0.7723-5.7475-1.6974l-9.0624-10.822c-0.65985-0.80044 0.1032-1.4561 2.3141-1.9689 2.1827-0.51084 5.2817-0.91507 9.2749-1.1966 3.9089-0.28356 7.2517-0.34189 10.05-0.18702 2.8113 0.1528 4.625 0.62345 5.4256 1.4118l3.493 3.4029 113.19-8.1794-11.317-2.3812c-1.8262-0.362-2.9176-0.66367-3.296-0.8829-0.70046-0.38413 0.01566-0.8145 2.1295-1.2791 2.1015-0.4706 5.044-0.83462 8.8184-1.1061 3.4398-0.24736 6.3386-0.33383 8.6996-0.27756 2.3671 0.06236 4.9657 0.3721 7.7708 0.9151z" fill="#000"/>
      <path d="m-117.15-319.66l-36.393 2.8216c-21.733 1.6854-43.72 2.335-65.622 1.9448-21.577-0.3781-33.666-2.3148-36.415-5.7137-1.5448-1.9005-0.00314-3.6905 4.5124-5.3799 4.4624-1.6592 13.525-3.5798 27.099-5.7499 13.371-2.1358 28-3.787 44.011-4.9776l32.725-2.4456c19.169-1.4239 38.817-2.0574 59.227-1.8905 20.664 0.16493 34.088 1.6733 40.218 4.5855 3.6056 1.7175 3.9808 3.4029 1.0507 5.0641-2.9739 1.6853-10.92 3.7005-23.95 6.0717-13.275 2.3973-28.794 4.2979-46.462 5.6695zm-7.5269-4.8791c17.427-1.3415 31.377-3.2078 41.765-5.5689 5.6007-1.3133 7.0766-2.6487 4.4999-4.0042-2.4516-1.2992-8.2055-2.0574-17.199-2.3008-13.487-0.35397-28.522 0.09853-45.293 1.3636l-33.497 2.514c-16.796 1.263-30.686 3.0389-41.775 5.3457-6.2635 1.2892-8.7058 2.6708-7.2455 4.137 1.3978 1.4138 6.592 2.2847 15.579 2.5984 13.722 0.47263 29.679 0.02012 47.685-1.3676z" fill="#000"/>
      <path d="m21.439-303.5l-202.98 16.477 7.1423 6.9868c1.773 1.7296 1.2071 3.1314-1.7387 4.1893-2.9582 1.072-7.455 1.8583-13.481 2.3571-5.9008 0.48467-11.079 0.50277-15.485 0.0422-4.3874-0.4545-7.308-1.5727-8.7871-3.3385l-16.793-20.071c-1.2134-1.45-0.41278-2.6064 2.3891-3.4692 2.8019-0.85876 6.839-1.5003 12.152-1.9207 5.1878-0.40826 9.7096-0.4485 13.59-0.1086 3.8932 0.33185 6.57 1.1986 8.0209 2.6266l6.3293 6.1984 151.31-12.143-17.443-4.4366c-2.7737-0.6838-4.4967-1.2268-5.1941-1.623-1.2289-0.68782-0.56596-1.4239 1.9982-2.1902 2.5298-0.76624 6.2792-1.3455 11.242-1.7376 4.5155-0.35597 8.415-0.45253 11.702-0.29564 3.2991 0.15284 7.086 0.73607 11.398 1.7416z" fill="#000"/>
      <path d="m18.275-231.87l-52.541 4.7765c-31.505 2.8599-64.212 3.5236-97.375 1.9669-32.481-1.5084-51.434-5.955-57.195-13.062-3.1896-3.9318-1.8231-7.5097 3.912-10.772 5.6225-3.1897 17.721-6.7354 36.068-10.627 17.959-3.7971 37.916-6.6147 60.112-8.4951l45.249-3.8353c26.427-2.2384 54.208-2.9383 83.94-2.0976 30.276 0.86078 51.569 4.1269 63.893 9.9995 7.3143 3.4853 9.866 6.8621 7.4331 10.104-2.5048 3.3204-12.111 7.1939-29.107 11.659-17.434 4.5874-38.96 8.0587-64.39 10.384zm-16.029-10.39c24.82-2.2203 43.826-5.6132 56.876-10.09 6.9609-2.4697 7.7271-5.0983 2.4642-7.8777-4.9815-2.6266-14.206-4.2798-27.647-4.9977-20.067-1.0518-41.584-0.57921-64.912 1.4239l-46.728 4.0183c-23.491 2.0272-42.494 5.1345-57.185 9.4203-8.3525 2.4174-11.104 5.1345-8.0929 8.1613 2.9144 2.9302 11.101 4.8811 24.61 5.8002 20.717 1.4178 44.17 0.97136 69.956-1.3354z" fill="#000"/>
      <path d="m147.91-147.84l-67.486 7.0411c-40.624 4.2335-83.853 4.7061-128.42 1.4722-43.348-3.1535-69.6-10.89-79.153-22.69-5.2191-6.4478-4.4498-12.196 2.0139-17.316 6.301-4.9796 20.729-10.4 42.938-16.226 21.602-5.6654 45.978-9.736 73.471-12.316l55.922-5.2491c32.594-3.057 67.645-3.7287 106.07-2.0051 39.314 1.7598 68.721 7.1477 88.437 16.528 11.833 5.6393 17.412 11.067 16.383 16.226-1.0726 5.3155-11.195 11.462-30.799 18.483-20.27 7.2543-46.822 12.656-79.381 16.053zm-26.962-17.485c31.455-3.1957 54.508-8.3845 68.974-15.414 7.6301-3.8554 7.036-8.0406-1.4854-12.534-8.021-4.2395-20.917-6.9747-38.682-8.3021-26.43-1.9629-53.861-1.5446-82.834 1.2288l-58.211 5.585c-29.329 2.8156-52.563 7.4353-69.947 14.014-9.9505 3.7327-12.577 8.0567-7.6677 12.996 4.8064 4.8248 16.151 8.1633 34.151 9.9211 27.719 2.695 58.383 2.3752 91.267-0.95731z" fill="#000"/>
      <path d="m509-71.299l-418.27 50.619 36.202 35.429c9.4219 9.2151 12.23 16.516 8.0741 21.721-4.206 5.3336-13.162 8.8853-26.865 10.675-13.465 1.7618-26.408 1.0156-38.673-2.1801-12.108-3.1515-22.187-9.5973-30.139-19.13l-80.535-96.24c-5.1972-6.2145-5.4849-10.876-1.0132-14.136 4.4217-3.2199 11.839-5.3899 22.356-6.5443 10.251-1.1061 19.791-0.81853 28.707 0.91106 9.006 1.7537 16.542 5.585 22.696 11.598l27.856 27.265 305.03-35.463-55.087-19.736c-8.4338-2.9604-14.031-5.231-16.846-6.8299-4.9689-2.8056-5.929-5.5568-2.9363-8.2639 2.9582-2.6708 9.1374-4.513 18.503-5.5448 8.5151-0.93518 16.564-0.96737 24.207-0.08849 7.6832 0.89698 17.931 3.431 30.989 7.6927z" fill="#000"/>
      <path d="m471.42 53.206l-11.157-4.6196c-11.492-19.681-23.466-39.885-36.299-60.86 0-0.55307 0-1.1383-0.04694-1.7557-0.38461-6.6831-10.776-24.639-11.157-27.72-0.2408-1.7859 1.0538-3.2661 2.633-3.9419 24.038 39.085 41.9 71.64 56.028 98.897z" fill="#f4dcc9"/>
      <path d="m431.91-42.762c2.3953 4.0967 4.4061 11.55 2.3953 11.273-2.0107-0.24737-13.168-13.336-15.564-14.352-1.0038-0.43039-2.2515-0.33787-3.3522 0.15285-80.454-130.83-230.1-334.78-540.61-657.68-0.24081-0.27756-0.52534-0.52295-0.76614-0.8005l-1.1508 0.3701c-2.0107-3.4492-10.438-10.902-10.438-10.902s7.183-2.3088 10.776-0.7703c3.593 1.5386 298.11 291.05 399.87 425.79 0 0 94.579 133.21 101.76 143.21 0 0 0.81616 32.094 2.3954 33.88 1.6292 1.7859 6.7983-25.656 10.01-26.427 3.1615-0.77027 2.3954 16.17 4.7876 17.433 2.3954 1.2932 3.1614-6.1602 3.5899-3.3265 0.38465 2.8337-0.43155 44.412 1.5792 44.412 2.0107-0.27754 7.5644-17.463 9.5783-19.526 2.0107-2.0333 5.6038 11.55 4.7876 23.098-0.81617 11.548 0.38463 12.32 1.1977 10.287 0.81303-2.0635 7.1829-18.758 9.1936-20.297 1.9638-1.5406 3.5899 12.598 1.5792 17.218-2.0107 4.6196-9.9629 10.78-6.8014 13.581 3.2147 2.8337 12.793 9.2393 15.185 13.366z" fill="url(#c)"/>
      <path d="m400.74-47.999l0.85995-0.24737c7.8083 12.258 15.229 24.239 22.365 35.974 0.19074 5.5126-0.81306 8.2538-0.81306 8.2538s-5.6037-8.7164-8.8121-12.843c0 0-2.3954 11.828 1.1977 19.526 3.5899 7.6987 7.9991 19.249 4.7876 18.201-3.1615-1.0156-15.945-20.789-15.564-26.95 0.43153-6.1602 0-24.116 0-25.654 0-1.5385-2.7769-7.4534-5.1722-2.3088-2.3954 5.1425-8.7621 26.425-7.5644 34.125 1.1977 7.7007 1.1977 16.17-0.43155 15.677-1.5792-0.5229-10.776-22.33-7.5676-33.633 3.2084-11.303 2.7769-19.003 0.38464-16.17-2.3954 2.8337-15.564 16.415-23.944 17.185-8.3806 0.77028-15.132-0.77027-9.1468-3.5718 5.9884-2.8337 28.303-17.218 32.706-23.623 0 0 7.1829-12.073-2.3953-3.8514-9.5783 8.2216-27.537 21.314-44.298 19.249-16.761-2.0634-35.102-9.4866-24.326-9.2393 10.773 0.24737 25.908 0.77027 31.127-3.8494 5.1722-4.6196 5.9853-10.257-2.0139-8.469-7.996 1.7859-21.549 5.3899-25.523 5.6373-4.0246 0.27754-24.376-14.629-36.349-17.185-11.971-2.5562-5.9852-5.3899-0.76614-4.6196 5.1722 0.77027 27.102 1.2952 30.696-0.77028 3.593-2.0634 11.204-6.4055-3.9745-6.6831-15.179-0.24738-31.127-2.8036-52.294-16.662-21.117-13.859-139.64-161.2-152.05-174.29-12.355-13.089-13.553-12.566-10.776-12.813 2.8269-0.27752 13.6-0.27752 12.787-2.0634-0.81304-1.7859-11.589-1.5405-15.179-3.0791-3.5899-1.5385-1.9638-5.6373 7.9991-5.1446 9.9598 0.52289 29.548-4.6196 5.9853-7.4212-23.563-2.8337-24.326-1.0478-38.31-18.479-6.5606-8.1633-44.058-59.504-82.271-112.39-6.3198-14.259-40.418-107.34-31.465-115.28 9.5783-8.469 61.056 52.359 110.14 110.88 49.086 58.517 177.19 194.03 213.1 234.07 35.349 39.423 124.09 145.22 126.86 148.51z" fill="url(#b)"/>
      <path d="m423.91-14.027c0.04691 0.61541 0.04691 1.2007 0.04691 1.7557-7.136-11.733-14.557-23.716-22.365-35.974-94.004-148.82-235.13-340.3-526.82-655.12 310.51 322.9 460.16 526.85 540.61 657.68-1.5792 0.67776-2.8738 2.156-2.633 3.9419 0.3815 3.0811 10.776 21.037 11.157 27.72z" fill="#f4dcc9"/>
      <path d="m401.6-48.245l-0.85996 0.24737c-2.7769-3.2963-91.514-109.09-126.86-148.51-35.915-40.038-164.02-175.55-213.1-234.07-49.083-58.517-100.56-119.35-110.14-110.88-8.956 7.9461 25.142 101.02 31.465 115.28-43.388-59.904-87.637-121.78-88.928-125.04-2.3954-6.1602-1.5792-8.1914 4.7907-7.1758 6.3699 1.0156 13.55 0.52286 13.55-2.0635 0-2.5562-4.3591-3.5738-18.34-7.4232-13.981-3.8494-25.955-33.108-31.94-49.277-5.9853-16.17-11.539-44.935-5.9853-42.872 5.6038 2.0634 20.783 8.4689 23.178 6.1601 2.3953-2.3088-2.0138-7.4533-18.39-14.106 0 0-7.183 0.2473-5.1722-8.9939 2.0107-9.2413 3.2084-26.702 5.1722-26.179 0 0 14.366 3.0811 13.168 0-0.09695-0.18505-0.19078-0.4002-0.33462-0.6456l1.1508-0.37005c0.24077 0.2775 0.52532 0.52295 0.76613 0.80045 291.68 314.82 432.81 506.3 526.81 655.12z" fill="url(#a)"/>
    </g>
  </g>
</svg>
